<?xml version="1.0" encoding="utf-8" standalone="no"?>
<!DOCTYPE svg PUBLIC "-//W3C//DTD SVG 1.1//EN"
  "http://www.w3.org/Graphics/SVG/1.1/DTD/svg11.dtd">
<svg xmlns:xlink="http://www.w3.org/1999/xlink" width="414.526562pt" height="299.34825pt" viewBox="0 0 414.526562 299.34825" xmlns="http://www.w3.org/2000/svg" version="1.1">
 <metadata>
  <rdf:RDF xmlns:dc="http://purl.org/dc/elements/1.1/" xmlns:cc="http://creativecommons.org/ns#" xmlns:rdf="http://www.w3.org/1999/02/22-rdf-syntax-ns#">
   <cc:Work>
    <dc:type rdf:resource="http://purl.org/dc/dcmitype/StillImage"/>
    <dc:date>2022-05-21T12:03:33.018074</dc:date>
    <dc:format>image/svg+xml</dc:format>
    <dc:creator>
     <cc:Agent>
      <dc:title>Matplotlib v3.5.1, https://matplotlib.org/</dc:title>
     </cc:Agent>
    </dc:creator>
   </cc:Work>
  </rdf:RDF>
 </metadata>
 <defs>
  <style type="text/css">*{stroke-linejoin: round; stroke-linecap: butt}</style>
 </defs>
 <g id="figure_1">
  <g id="patch_1">
   <path d="M 0 299.34825 
L 414.526562 299.34825 
L 414.526562 0 
L 0 0 
z
" style="fill: #ffffff"/>
  </g>
  <g id="axes_1">
   <g id="patch_2">
    <path d="M 52.785313 267.552 
L 409.905313 267.552 
L 409.905313 1.44 
L 52.785313 1.44 
z
" style="fill: #ffffff"/>
   </g>
   <g id="matplotlib.axis_1">
    <g id="xtick_1">
     <g id="line2d_1">
      <defs>
       <path id="m6db7cfbc29" d="M 0 0 
L 0 3.5 
" style="stroke: #000000; stroke-width: 0.8"/>
      </defs>
      <g>
       <use xlink:href="#m6db7cfbc29" x="52.785313" y="267.552" style="stroke: #000000; stroke-width: 0.8"/>
      </g>
     </g>
     <g id="text_1">
      <!-- −6 -->
      <g transform="translate(45.414219 282.150437)scale(0.1 -0.1)">
       <defs>
        <path id="DejaVuSans-2212" d="M 678 2272 
L 4684 2272 
L 4684 1741 
L 678 1741 
L 678 2272 
z
" transform="scale(0.015625)"/>
        <path id="DejaVuSans-36" d="M 2113 2584 
Q 1688 2584 1439 2293 
Q 1191 2003 1191 1497 
Q 1191 994 1439 701 
Q 1688 409 2113 409 
Q 2538 409 2786 701 
Q 3034 994 3034 1497 
Q 3034 2003 2786 2293 
Q 2538 2584 2113 2584 
z
M 3366 4563 
L 3366 3988 
Q 3128 4100 2886 4159 
Q 2644 4219 2406 4219 
Q 1781 4219 1451 3797 
Q 1122 3375 1075 2522 
Q 1259 2794 1537 2939 
Q 1816 3084 2150 3084 
Q 2853 3084 3261 2657 
Q 3669 2231 3669 1497 
Q 3669 778 3244 343 
Q 2819 -91 2113 -91 
Q 1303 -91 875 529 
Q 447 1150 447 2328 
Q 447 3434 972 4092 
Q 1497 4750 2381 4750 
Q 2619 4750 2861 4703 
Q 3103 4656 3366 4563 
z
" transform="scale(0.015625)"/>
       </defs>
       <use xlink:href="#DejaVuSans-2212"/>
       <use xlink:href="#DejaVuSans-36" x="83.789062"/>
      </g>
     </g>
    </g>
    <g id="xtick_2">
     <g id="line2d_2">
      <g>
       <use xlink:href="#m6db7cfbc29" x="112.305313" y="267.552" style="stroke: #000000; stroke-width: 0.8"/>
      </g>
     </g>
     <g id="text_2">
      <!-- −4 -->
      <g transform="translate(104.934219 282.150437)scale(0.1 -0.1)">
       <defs>
        <path id="DejaVuSans-34" d="M 2419 4116 
L 825 1625 
L 2419 1625 
L 2419 4116 
z
M 2253 4666 
L 3047 4666 
L 3047 1625 
L 3713 1625 
L 3713 1100 
L 3047 1100 
L 3047 0 
L 2419 0 
L 2419 1100 
L 313 1100 
L 313 1709 
L 2253 4666 
z
" transform="scale(0.015625)"/>
       </defs>
       <use xlink:href="#DejaVuSans-2212"/>
       <use xlink:href="#DejaVuSans-34" x="83.789062"/>
      </g>
     </g>
    </g>
    <g id="xtick_3">
     <g id="line2d_3">
      <g>
       <use xlink:href="#m6db7cfbc29" x="171.825312" y="267.552" style="stroke: #000000; stroke-width: 0.8"/>
      </g>
     </g>
     <g id="text_3">
      <!-- −2 -->
      <g transform="translate(164.454219 282.150437)scale(0.1 -0.1)">
       <defs>
        <path id="DejaVuSans-32" d="M 1228 531 
L 3431 531 
L 3431 0 
L 469 0 
L 469 531 
Q 828 903 1448 1529 
Q 2069 2156 2228 2338 
Q 2531 2678 2651 2914 
Q 2772 3150 2772 3378 
Q 2772 3750 2511 3984 
Q 2250 4219 1831 4219 
Q 1534 4219 1204 4116 
Q 875 4013 500 3803 
L 500 4441 
Q 881 4594 1212 4672 
Q 1544 4750 1819 4750 
Q 2544 4750 2975 4387 
Q 3406 4025 3406 3419 
Q 3406 3131 3298 2873 
Q 3191 2616 2906 2266 
Q 2828 2175 2409 1742 
Q 1991 1309 1228 531 
z
" transform="scale(0.015625)"/>
       </defs>
       <use xlink:href="#DejaVuSans-2212"/>
       <use xlink:href="#DejaVuSans-32" x="83.789062"/>
      </g>
     </g>
    </g>
    <g id="xtick_4">
     <g id="line2d_4">
      <g>
       <use xlink:href="#m6db7cfbc29" x="231.345313" y="267.552" style="stroke: #000000; stroke-width: 0.8"/>
      </g>
     </g>
     <g id="text_4">
      <!-- 0 -->
      <g transform="translate(228.164062 282.150437)scale(0.1 -0.1)">
       <defs>
        <path id="DejaVuSans-30" d="M 2034 4250 
Q 1547 4250 1301 3770 
Q 1056 3291 1056 2328 
Q 1056 1369 1301 889 
Q 1547 409 2034 409 
Q 2525 409 2770 889 
Q 3016 1369 3016 2328 
Q 3016 3291 2770 3770 
Q 2525 4250 2034 4250 
z
M 2034 4750 
Q 2819 4750 3233 4129 
Q 3647 3509 3647 2328 
Q 3647 1150 3233 529 
Q 2819 -91 2034 -91 
Q 1250 -91 836 529 
Q 422 1150 422 2328 
Q 422 3509 836 4129 
Q 1250 4750 2034 4750 
z
" transform="scale(0.015625)"/>
       </defs>
       <use xlink:href="#DejaVuSans-30"/>
      </g>
     </g>
    </g>
    <g id="xtick_5">
     <g id="line2d_5">
      <g>
       <use xlink:href="#m6db7cfbc29" x="290.865313" y="267.552" style="stroke: #000000; stroke-width: 0.8"/>
      </g>
     </g>
     <g id="text_5">
      <!-- 2 -->
      <g transform="translate(287.684063 282.150437)scale(0.1 -0.1)">
       <use xlink:href="#DejaVuSans-32"/>
      </g>
     </g>
    </g>
    <g id="xtick_6">
     <g id="line2d_6">
      <g>
       <use xlink:href="#m6db7cfbc29" x="350.385312" y="267.552" style="stroke: #000000; stroke-width: 0.8"/>
      </g>
     </g>
     <g id="text_6">
      <!-- 4 -->
      <g transform="translate(347.204063 282.150437)scale(0.1 -0.1)">
       <use xlink:href="#DejaVuSans-34"/>
      </g>
     </g>
    </g>
    <g id="xtick_7">
     <g id="line2d_7">
      <g>
       <use xlink:href="#m6db7cfbc29" x="409.905313" y="267.552" style="stroke: #000000; stroke-width: 0.8"/>
      </g>
     </g>
     <g id="text_7">
      <!-- 6 -->
      <g transform="translate(406.724063 282.150437)scale(0.1 -0.1)">
       <use xlink:href="#DejaVuSans-36"/>
      </g>
     </g>
    </g>
    <g id="text_8">
     <!-- $x$ -->
     <g transform="translate(228.345313 295.828562)scale(0.1 -0.1)">
      <defs>
       <path id="DejaVuSans-Oblique-78" d="M 3841 3500 
L 2234 1784 
L 3219 0 
L 2559 0 
L 1819 1388 
L 531 0 
L -166 0 
L 1556 1844 
L 641 3500 
L 1300 3500 
L 1972 2234 
L 3144 3500 
L 3841 3500 
z
" transform="scale(0.015625)"/>
      </defs>
      <use xlink:href="#DejaVuSans-Oblique-78" transform="translate(0 0.3125)"/>
     </g>
    </g>
   </g>
   <g id="matplotlib.axis_2">
    <g id="ytick_1">
     <g id="line2d_8">
      <defs>
       <path id="m6817038c70" d="M 0 0 
L -3.5 0 
" style="stroke: #000000; stroke-width: 0.8"/>
      </defs>
      <g>
       <use xlink:href="#m6817038c70" x="52.785313" y="263.174446" style="stroke: #000000; stroke-width: 0.8"/>
      </g>
     </g>
     <g id="text_9">
      <!-- −0.10 -->
      <g transform="translate(15.14 266.973664)scale(0.1 -0.1)">
       <defs>
        <path id="DejaVuSans-2e" d="M 684 794 
L 1344 794 
L 1344 0 
L 684 0 
L 684 794 
z
" transform="scale(0.015625)"/>
        <path id="DejaVuSans-31" d="M 794 531 
L 1825 531 
L 1825 4091 
L 703 3866 
L 703 4441 
L 1819 4666 
L 2450 4666 
L 2450 531 
L 3481 531 
L 3481 0 
L 794 0 
L 794 531 
z
" transform="scale(0.015625)"/>
       </defs>
       <use xlink:href="#DejaVuSans-2212"/>
       <use xlink:href="#DejaVuSans-30" x="83.789062"/>
       <use xlink:href="#DejaVuSans-2e" x="147.412109"/>
       <use xlink:href="#DejaVuSans-31" x="179.199219"/>
       <use xlink:href="#DejaVuSans-30" x="242.822266"/>
      </g>
     </g>
    </g>
    <g id="ytick_2">
     <g id="line2d_9">
      <g>
       <use xlink:href="#m6817038c70" x="52.785313" y="230.072235" style="stroke: #000000; stroke-width: 0.8"/>
      </g>
     </g>
     <g id="text_10">
      <!-- −0.08 -->
      <g transform="translate(15.14 233.871453)scale(0.1 -0.1)">
       <defs>
        <path id="DejaVuSans-38" d="M 2034 2216 
Q 1584 2216 1326 1975 
Q 1069 1734 1069 1313 
Q 1069 891 1326 650 
Q 1584 409 2034 409 
Q 2484 409 2743 651 
Q 3003 894 3003 1313 
Q 3003 1734 2745 1975 
Q 2488 2216 2034 2216 
z
M 1403 2484 
Q 997 2584 770 2862 
Q 544 3141 544 3541 
Q 544 4100 942 4425 
Q 1341 4750 2034 4750 
Q 2731 4750 3128 4425 
Q 3525 4100 3525 3541 
Q 3525 3141 3298 2862 
Q 3072 2584 2669 2484 
Q 3125 2378 3379 2068 
Q 3634 1759 3634 1313 
Q 3634 634 3220 271 
Q 2806 -91 2034 -91 
Q 1263 -91 848 271 
Q 434 634 434 1313 
Q 434 1759 690 2068 
Q 947 2378 1403 2484 
z
M 1172 3481 
Q 1172 3119 1398 2916 
Q 1625 2713 2034 2713 
Q 2441 2713 2670 2916 
Q 2900 3119 2900 3481 
Q 2900 3844 2670 4047 
Q 2441 4250 2034 4250 
Q 1625 4250 1398 4047 
Q 1172 3844 1172 3481 
z
" transform="scale(0.015625)"/>
       </defs>
       <use xlink:href="#DejaVuSans-2212"/>
       <use xlink:href="#DejaVuSans-30" x="83.789062"/>
       <use xlink:href="#DejaVuSans-2e" x="147.412109"/>
       <use xlink:href="#DejaVuSans-30" x="179.199219"/>
       <use xlink:href="#DejaVuSans-38" x="242.822266"/>
      </g>
     </g>
    </g>
    <g id="ytick_3">
     <g id="line2d_10">
      <g>
       <use xlink:href="#m6817038c70" x="52.785313" y="196.970024" style="stroke: #000000; stroke-width: 0.8"/>
      </g>
     </g>
     <g id="text_11">
      <!-- −0.06 -->
      <g transform="translate(15.14 200.769242)scale(0.1 -0.1)">
       <use xlink:href="#DejaVuSans-2212"/>
       <use xlink:href="#DejaVuSans-30" x="83.789062"/>
       <use xlink:href="#DejaVuSans-2e" x="147.412109"/>
       <use xlink:href="#DejaVuSans-30" x="179.199219"/>
       <use xlink:href="#DejaVuSans-36" x="242.822266"/>
      </g>
     </g>
    </g>
    <g id="ytick_4">
     <g id="line2d_11">
      <g>
       <use xlink:href="#m6817038c70" x="52.785313" y="163.867813" style="stroke: #000000; stroke-width: 0.8"/>
      </g>
     </g>
     <g id="text_12">
      <!-- −0.04 -->
      <g transform="translate(15.14 167.667031)scale(0.1 -0.1)">
       <use xlink:href="#DejaVuSans-2212"/>
       <use xlink:href="#DejaVuSans-30" x="83.789062"/>
       <use xlink:href="#DejaVuSans-2e" x="147.412109"/>
       <use xlink:href="#DejaVuSans-30" x="179.199219"/>
       <use xlink:href="#DejaVuSans-34" x="242.822266"/>
      </g>
     </g>
    </g>
    <g id="ytick_5">
     <g id="line2d_12">
      <g>
       <use xlink:href="#m6817038c70" x="52.785313" y="130.765602" style="stroke: #000000; stroke-width: 0.8"/>
      </g>
     </g>
     <g id="text_13">
      <!-- −0.02 -->
      <g transform="translate(15.14 134.56482)scale(0.1 -0.1)">
       <use xlink:href="#DejaVuSans-2212"/>
       <use xlink:href="#DejaVuSans-30" x="83.789062"/>
       <use xlink:href="#DejaVuSans-2e" x="147.412109"/>
       <use xlink:href="#DejaVuSans-30" x="179.199219"/>
       <use xlink:href="#DejaVuSans-32" x="242.822266"/>
      </g>
     </g>
    </g>
    <g id="ytick_6">
     <g id="line2d_13">
      <g>
       <use xlink:href="#m6817038c70" x="52.785313" y="97.663391" style="stroke: #000000; stroke-width: 0.8"/>
      </g>
     </g>
     <g id="text_14">
      <!-- 0.00 -->
      <g transform="translate(23.519688 101.462609)scale(0.1 -0.1)">
       <use xlink:href="#DejaVuSans-30"/>
       <use xlink:href="#DejaVuSans-2e" x="63.623047"/>
       <use xlink:href="#DejaVuSans-30" x="95.410156"/>
       <use xlink:href="#DejaVuSans-30" x="159.033203"/>
      </g>
     </g>
    </g>
    <g id="ytick_7">
     <g id="line2d_14">
      <g>
       <use xlink:href="#m6817038c70" x="52.785313" y="64.56118" style="stroke: #000000; stroke-width: 0.8"/>
      </g>
     </g>
     <g id="text_15">
      <!-- 0.02 -->
      <g transform="translate(23.519688 68.360398)scale(0.1 -0.1)">
       <use xlink:href="#DejaVuSans-30"/>
       <use xlink:href="#DejaVuSans-2e" x="63.623047"/>
       <use xlink:href="#DejaVuSans-30" x="95.410156"/>
       <use xlink:href="#DejaVuSans-32" x="159.033203"/>
      </g>
     </g>
    </g>
    <g id="ytick_8">
     <g id="line2d_15">
      <g>
       <use xlink:href="#m6817038c70" x="52.785313" y="31.458969" style="stroke: #000000; stroke-width: 0.8"/>
      </g>
     </g>
     <g id="text_16">
      <!-- 0.04 -->
      <g transform="translate(23.519688 35.258187)scale(0.1 -0.1)">
       <use xlink:href="#DejaVuSans-30"/>
       <use xlink:href="#DejaVuSans-2e" x="63.623047"/>
       <use xlink:href="#DejaVuSans-30" x="95.410156"/>
       <use xlink:href="#DejaVuSans-34" x="159.033203"/>
      </g>
     </g>
    </g>
    <g id="text_17">
     <!-- $y-f_2(x)$ -->
     <g transform="translate(9.04 154.596)rotate(-90)scale(0.1 -0.1)">
      <defs>
       <path id="DejaVuSans-Oblique-79" d="M 1588 -325 
Q 1188 -997 936 -1164 
Q 684 -1331 294 -1331 
L -159 -1331 
L -63 -850 
L 269 -850 
Q 509 -850 678 -719 
Q 847 -588 1056 -206 
L 1234 128 
L 459 3500 
L 1069 3500 
L 1650 819 
L 3256 3500 
L 3859 3500 
L 1588 -325 
z
" transform="scale(0.015625)"/>
       <path id="DejaVuSans-Oblique-66" d="M 3059 4863 
L 2969 4384 
L 2419 4384 
Q 2106 4384 1964 4261 
Q 1822 4138 1753 3809 
L 1691 3500 
L 2638 3500 
L 2553 3053 
L 1606 3053 
L 1013 0 
L 434 0 
L 1031 3053 
L 481 3053 
L 563 3500 
L 1113 3500 
L 1159 3744 
Q 1278 4363 1576 4613 
Q 1875 4863 2516 4863 
L 3059 4863 
z
" transform="scale(0.015625)"/>
       <path id="DejaVuSans-28" d="M 1984 4856 
Q 1566 4138 1362 3434 
Q 1159 2731 1159 2009 
Q 1159 1288 1364 580 
Q 1569 -128 1984 -844 
L 1484 -844 
Q 1016 -109 783 600 
Q 550 1309 550 2009 
Q 550 2706 781 3412 
Q 1013 4119 1484 4856 
L 1984 4856 
z
" transform="scale(0.015625)"/>
       <path id="DejaVuSans-29" d="M 513 4856 
L 1013 4856 
Q 1481 4119 1714 3412 
Q 1947 2706 1947 2009 
Q 1947 1309 1714 600 
Q 1481 -109 1013 -844 
L 513 -844 
Q 928 -128 1133 580 
Q 1338 1288 1338 2009 
Q 1338 2731 1133 3434 
Q 928 4138 513 4856 
z
" transform="scale(0.015625)"/>
      </defs>
      <use xlink:href="#DejaVuSans-Oblique-79" transform="translate(0 0.015625)"/>
      <use xlink:href="#DejaVuSans-2212" transform="translate(78.662109 0.015625)"/>
      <use xlink:href="#DejaVuSans-Oblique-66" transform="translate(181.933594 0.015625)"/>
      <use xlink:href="#DejaVuSans-32" transform="translate(217.138672 -16.390625)scale(0.7)"/>
      <use xlink:href="#DejaVuSans-28" transform="translate(264.40918 0.015625)"/>
      <use xlink:href="#DejaVuSans-Oblique-78" transform="translate(303.422852 0.015625)"/>
      <use xlink:href="#DejaVuSans-29" transform="translate(362.602539 0.015625)"/>
     </g>
    </g>
   </g>
   <g id="LineCollection_1">
    <path d="M 52.785313 97.663391 
L 52.785313 97.663391 
" clip-path="url(#p1356d37813)" style="fill: none; stroke: #000000; stroke-width: 1.5"/>
    <path d="M 112.305313 97.663391 
L 112.305313 97.663391 
" clip-path="url(#p1356d37813)" style="fill: none; stroke: #000000; stroke-width: 1.5"/>
    <path d="M 171.825312 97.663391 
L 171.825312 97.663391 
" clip-path="url(#p1356d37813)" style="fill: none; stroke: #000000; stroke-width: 1.5"/>
    <path d="M 231.345313 97.663391 
L 231.345313 97.663391 
" clip-path="url(#p1356d37813)" style="fill: none; stroke: #000000; stroke-width: 1.5"/>
    <path d="M 290.865313 97.663391 
L 290.865313 97.663391 
" clip-path="url(#p1356d37813)" style="fill: none; stroke: #000000; stroke-width: 1.5"/>
    <path d="M 350.385312 97.663391 
L 350.385312 97.663391 
" clip-path="url(#p1356d37813)" style="fill: none; stroke: #000000; stroke-width: 1.5"/>
    <path d="M 409.905313 97.663391 
L 409.905313 97.663391 
" clip-path="url(#p1356d37813)" style="fill: none; stroke: #000000; stroke-width: 1.5"/>
   </g>
   <g id="line2d_16">
    <defs>
     <path id="m8726447533" d="M -0 4.242641 
L 4.242641 0 
L 0 -4.242641 
L -4.242641 -0 
z
" style="stroke: #000000; stroke-linejoin: miter"/>
    </defs>
    <g clip-path="url(#p1356d37813)">
     <use xlink:href="#m8726447533" x="52.785313" y="97.663391" style="stroke: #000000; stroke-linejoin: miter"/>
     <use xlink:href="#m8726447533" x="112.305313" y="97.663391" style="stroke: #000000; stroke-linejoin: miter"/>
     <use xlink:href="#m8726447533" x="171.825312" y="97.663391" style="stroke: #000000; stroke-linejoin: miter"/>
     <use xlink:href="#m8726447533" x="231.345313" y="97.663391" style="stroke: #000000; stroke-linejoin: miter"/>
     <use xlink:href="#m8726447533" x="290.865313" y="97.663391" style="stroke: #000000; stroke-linejoin: miter"/>
     <use xlink:href="#m8726447533" x="350.385312" y="97.663391" style="stroke: #000000; stroke-linejoin: miter"/>
     <use xlink:href="#m8726447533" x="409.905313" y="97.663391" style="stroke: #000000; stroke-linejoin: miter"/>
    </g>
   </g>
   <g id="line2d_17">
    <path d="M 52.785313 97.663391 
L 409.905313 97.663391 
" clip-path="url(#p1356d37813)" style="fill: none; stroke: #b2b2b2; stroke-width: 1.5; stroke-linecap: square"/>
   </g>
   <g id="line2d_18">
    <path d="M 52.785313 97.663391 
L 56.360087 90.406851 
L 59.577385 84.375161 
L 62.437204 79.441323 
L 65.297024 74.938857 
L 67.799367 71.376443 
L 70.301709 68.188424 
L 72.446574 65.770978 
L 74.591439 63.660349 
L 76.736303 61.872446 
L 78.523691 60.641108 
L 80.311078 59.655643 
L 82.098466 58.92663 
L 83.885853 58.465084 
L 85.315763 58.296117 
L 86.745673 58.311746 
L 88.175583 58.51825 
L 89.605493 58.9221 
L 91.035403 59.529965 
L 92.465313 60.34871 
L 93.895222 61.385401 
L 95.68261 62.998832 
L 97.469997 64.978783 
L 99.257385 67.340346 
L 101.044772 70.099077 
L 102.832159 73.270978 
L 104.619547 76.872476 
L 106.406934 80.920396 
L 108.551799 86.391388 
L 110.696664 92.560257 
L 111.769096 95.915998 
L 112.126574 98.680346 
L 114.986394 83.045803 
L 117.488736 70.51655 
L 119.991078 59.113173 
L 122.135943 50.27162 
L 124.280808 42.32219 
L 126.425673 35.292903 
L 128.21306 30.156955 
L 130.000448 25.691975 
L 131.787835 21.910301 
L 133.217745 19.384123 
L 134.647655 17.306556 
L 136.077565 15.681123 
L 137.149997 14.760278 
L 138.22243 14.095757 
L 139.294862 13.687748 
L 140.367294 13.536 
L 141.439727 13.639788 
L 142.512159 13.997882 
L 143.584592 14.608515 
L 144.657024 15.469349 
L 145.729457 16.577439 
L 147.159367 18.433225 
L 148.589276 20.711764 
L 150.019186 23.40043 
L 151.806574 27.314888 
L 153.593961 31.811637 
L 155.738826 37.917668 
L 157.883691 44.717987 
L 160.386033 53.396631 
L 163.603331 65.449058 
L 171.825312 97.663391 
L 176.115042 135.614031 
L 179.33234 162.186954 
L 182.192159 183.8769 
L 184.694502 201.016209 
L 186.839367 214.130613 
L 188.626754 223.833167 
L 190.414141 232.339501 
L 191.844051 238.238811 
L 193.273961 243.301927 
L 194.703871 247.505405 
L 195.776303 250.08268 
L 196.848736 252.160263 
L 197.921168 253.734105 
L 198.993601 254.801876 
L 199.708556 255.232199 
L 200.423511 255.437535 
L 201.138466 255.418459 
L 201.853421 255.175878 
L 202.568376 254.711024 
L 203.283331 254.025453 
L 204.355763 252.587427 
L 205.428195 250.664672 
L 206.500628 248.266298 
L 207.57306 245.402851 
L 209.00297 240.882259 
L 210.43288 235.587978 
L 212.220267 227.936562 
L 214.007655 219.208703 
L 216.15252 207.432885 
L 218.297385 194.384299 
L 220.799727 177.774429 
L 223.659547 157.302852 
L 227.591799 127.319179 
L 231.166574 99.083459 
L 231.524051 99.083459 
L 237.601168 146.598064 
L 241.175943 172.790577 
L 244.035763 192.097339 
L 246.538105 207.432885 
L 248.68297 219.208703 
L 250.470358 227.936562 
L 252.257745 235.587978 
L 253.687655 240.882259 
L 255.117565 245.402851 
L 256.547475 249.11798 
L 257.619907 251.358917 
L 258.69234 253.121035 
L 259.764772 254.395719 
L 260.479727 254.971146 
L 261.194682 255.325037 
L 261.909637 255.456 
L 262.624592 255.362963 
L 263.339547 255.045184 
L 264.054502 254.502256 
L 264.769457 253.734105 
L 265.841889 252.160263 
L 266.914322 250.08268 
L 267.986754 247.505405 
L 269.059186 244.434191 
L 270.489096 239.583985 
L 271.919006 233.891251 
L 273.348916 227.383166 
L 275.136303 218.150536 
L 276.923691 207.766116 
L 279.068556 193.900025 
L 281.570898 175.985749 
L 284.07324 156.460603 
L 287.290538 129.456839 
L 290.865313 97.663391 
L 294.797565 82.340005 
L 300.874682 58.65059 
L 303.734502 48.348216 
L 306.236844 40.111874 
L 308.381709 33.76434 
L 310.169096 29.04588 
L 311.956484 24.893964 
L 313.743871 21.346025 
L 315.173781 18.96368 
L 316.603691 17.001148 
L 318.033601 15.469349 
L 319.106033 14.608515 
L 320.178466 13.997882 
L 321.250898 13.639788 
L 322.323331 13.536 
L 323.395763 13.687748 
L 324.468195 14.095757 
L 325.540628 14.760278 
L 326.61306 15.681123 
L 327.685493 16.857695 
L 329.115403 18.822519 
L 330.545313 21.236929 
L 331.975222 24.096673 
L 333.405132 27.396625 
L 335.19252 32.131561 
L 336.979907 37.532103 
L 338.767294 43.583932 
L 340.912159 51.684039 
L 343.057024 60.671449 
L 345.559367 72.238655 
L 348.061709 84.924738 
L 350.206574 96.651657 
L 350.564051 97.075729 
L 352.708916 90.424534 
L 354.853781 84.491689 
L 356.998646 79.246565 
L 359.143511 74.659092 
L 360.930898 71.317346 
L 362.718285 68.395292 
L 364.505673 65.876754 
L 366.29306 63.745996 
L 368.080448 61.987737 
L 369.867835 60.58717 
L 371.297745 59.714608 
L 372.727655 59.054675 
L 374.157565 58.600454 
L 375.587475 58.345228 
L 377.017385 58.282476 
L 378.447294 58.405872 
L 380.234682 58.812562 
L 382.022069 59.488979 
L 383.809457 60.424013 
L 385.596844 61.607002 
L 387.384231 63.027714 
L 389.529096 65.032575 
L 391.673961 67.349467 
L 394.176303 70.426411 
L 396.678646 73.884089 
L 399.180988 77.700792 
L 402.040808 82.476226 
L 404.900628 87.665446 
L 408.117925 93.964919 
L 409.905313 97.663391 
L 409.905313 97.663391 
" clip-path="url(#p1356d37813)" style="fill: none; stroke-dasharray: 4.5,1.5,1.5,1.5,1.5,1.5; stroke-dashoffset: 0; stroke: #000000; stroke-width: 1.5"/>
   </g>
   <g id="line2d_19">
    <path d="M 52.785313 97.663391 
L 54.930177 102.522647 
L 57.075042 106.891881 
L 59.219907 110.78143 
L 61.364772 114.202201 
L 63.509637 117.165702 
L 65.297024 119.294719 
L 67.084412 121.121975 
L 68.871799 122.655175 
L 70.659186 123.902371 
L 72.446574 124.871971 
L 74.233961 125.572757 
L 76.021349 126.013896 
L 77.808736 126.204954 
L 79.596123 126.155909 
L 81.383511 125.877165 
L 83.170898 125.379561 
L 84.958285 124.674385 
L 87.10315 123.570751 
L 89.248015 122.206341 
L 91.750358 120.314574 
L 94.2527 118.135017 
L 97.11252 115.34154 
L 100.329817 111.886082 
L 104.619547 106.916887 
L 117.131258 92.144582 
L 120.348556 88.803847 
L 123.208376 86.159289 
L 125.710718 84.15274 
L 127.855583 82.695482 
L 130.000448 81.506634 
L 131.787835 80.73663 
L 133.575222 80.17865 
L 135.36261 79.841209 
L 137.149997 79.730411 
L 138.937385 79.84959 
L 140.724772 80.198921 
L 142.512159 80.775017 
L 144.299547 81.570508 
L 146.444412 82.797778 
L 148.589276 84.29412 
L 151.091619 86.324921 
L 154.308916 89.25133 
L 160.386033 94.875746 
L 162.530898 96.548117 
L 164.318285 97.670887 
L 165.748195 98.332657 
L 167.178105 98.735329 
L 168.250538 98.838673 
L 169.32297 98.748521 
L 170.395403 98.443288 
L 171.467835 97.900827 
L 171.825312 97.663391 
L 173.255222 99.4666 
L 175.04261 102.169273 
L 177.187475 105.926531 
L 180.047294 111.498269 
L 186.481889 124.280655 
L 188.626754 128.026386 
L 190.414141 130.775613 
L 192.201529 133.115895 
L 193.631439 134.656831 
L 195.061349 135.878927 
L 196.491258 136.765219 
L 197.563691 137.202375 
L 198.636123 137.44109 
L 199.708556 137.480181 
L 200.780988 137.320174 
L 201.853421 136.963291 
L 202.925853 136.413416 
L 204.355763 135.389797 
L 205.785673 134.050469 
L 207.215583 132.417591 
L 209.00297 130.004652 
L 211.147835 126.645617 
L 213.650177 122.244511 
L 218.297385 113.443646 
L 221.514682 107.586015 
L 223.659547 104.124246 
L 225.446934 101.663395 
L 226.876844 100.048626 
L 228.306754 98.807758 
L 229.379186 98.155535 
L 230.451619 97.767763 
L 231.524051 97.667637 
L 232.596484 97.866203 
L 233.668916 98.344706 
L 234.741349 99.079918 
L 235.813781 100.048626 
L 237.243691 101.663395 
L 238.673601 103.597297 
L 240.460988 106.380538 
L 242.963331 110.771874 
L 247.610538 119.576584 
L 250.827835 125.432923 
L 252.9727 128.93614 
L 254.760087 131.499225 
L 256.547475 133.668804 
L 257.977385 135.083776 
L 259.407294 136.188144 
L 260.837204 136.963291 
L 261.909637 137.320174 
L 262.982069 137.480181 
L 264.054502 137.44109 
L 265.126934 137.202375 
L 266.199367 136.765219 
L 267.271799 136.132527 
L 268.701709 134.992999 
L 270.131619 133.529895 
L 271.561529 131.764101 
L 273.348916 129.171194 
L 275.493781 125.576309 
L 277.996123 120.877286 
L 282.643331 111.498269 
L 285.860628 105.268685 
L 288.005493 101.593496 
L 289.79288 98.983288 
L 290.865313 97.663391 
L 291.937745 98.289935 
L 293.010177 98.671757 
L 294.08261 98.831176 
L 295.155042 98.78997 
L 296.584952 98.45944 
L 298.014862 97.858098 
L 299.444772 97.031885 
L 301.232159 95.748752 
L 303.734502 93.624443 
L 308.024231 89.589458 
L 311.956484 86.018799 
L 314.458826 84.027628 
L 316.603691 82.573615 
L 318.748556 81.394357 
L 320.535943 80.641949 
L 322.323331 80.110751 
L 324.110718 79.807299 
L 325.898105 79.734236 
L 327.685493 79.890723 
L 329.47288 80.272843 
L 331.260267 80.87398 
L 333.047655 81.685179 
L 335.19252 82.920348 
L 337.337385 84.420028 
L 339.839727 86.470581 
L 342.342069 88.803847 
L 345.201889 91.75725 
L 348.776664 95.773566 
L 354.138826 102.177352 
L 361.288376 110.675574 
L 364.86315 114.599426 
L 368.080448 117.802397 
L 370.940267 120.314574 
L 373.44261 122.206341 
L 375.587475 123.570751 
L 377.73234 124.674385 
L 379.877204 125.496055 
L 381.664592 125.950776 
L 383.451979 126.184433 
L 385.239367 126.186276 
L 387.026754 125.945986 
L 388.814141 125.453671 
L 390.601529 124.699843 
L 392.388916 123.675414 
L 394.176303 122.371678 
L 395.963691 120.780299 
L 397.751078 118.893297 
L 399.538466 116.703034 
L 401.325853 114.202201 
L 403.470718 110.78143 
L 405.615583 106.891881 
L 407.760448 102.522647 
L 409.905313 97.663391 
L 409.905313 97.663391 
" clip-path="url(#p1356d37813)" style="fill: none; stroke-dasharray: 5.55,2.4; stroke-dashoffset: 0; stroke: #666666; stroke-width: 1.5"/>
   </g>
   <g id="line2d_20">
    <path d="M 52.785313 97.663391 
L 54.930177 111.870534 
L 57.075042 124.558529 
L 59.219907 135.776186 
L 61.007294 144.036666 
L 62.794682 151.339251 
L 64.582069 157.713135 
L 66.369457 163.187825 
L 67.799367 166.940195 
L 69.229276 170.1516 
L 70.659186 172.837615 
L 72.089096 175.013962 
L 73.161529 176.321298 
L 74.233961 177.357628 
L 75.306394 178.129758 
L 76.378826 178.644545 
L 77.451258 178.908901 
L 78.523691 178.929788 
L 79.596123 178.714227 
L 80.668556 178.269291 
L 81.740988 177.602111 
L 82.813421 176.719877 
L 84.243331 175.221568 
L 85.67324 173.371173 
L 87.10315 171.186223 
L 88.890538 168.011588 
L 90.677925 164.376968 
L 92.82279 159.458304 
L 94.967655 153.990765 
L 97.469997 147.002777 
L 100.329817 138.338528 
L 103.904592 126.719367 
L 108.551799 110.783852 
L 117.846213 78.728604 
L 121.420988 67.279433 
L 124.280808 58.808916 
L 126.78315 52.034973 
L 128.928015 46.784082 
L 131.07288 42.110954 
L 132.860267 38.700215 
L 134.647655 35.762912 
L 136.077565 33.773769 
L 137.507475 32.120324 
L 138.937385 30.815228 
L 140.367294 29.869805 
L 141.439727 29.402768 
L 142.512159 29.14721 
L 143.584592 29.106173 
L 144.657024 29.282126 
L 145.729457 29.676934 
L 146.801889 30.291824 
L 147.874322 31.12735 
L 149.304231 32.58423 
L 150.734141 34.430592 
L 152.164051 36.661576 
L 153.593961 39.269752 
L 155.381349 43.044739 
L 157.168736 47.367266 
L 159.313601 53.230412 
L 161.458466 59.764401 
L 163.960808 68.12153 
L 166.820628 78.443999 
L 171.110358 94.87671 
L 177.544952 119.510605 
L 180.404772 129.588962 
L 182.907114 137.594204 
L 185.051979 143.687792 
L 186.839367 148.13503 
L 188.626754 151.946094 
L 190.056664 154.503449 
L 191.486574 156.60142 
L 192.559006 157.863681 
L 193.631439 158.853577 
L 194.703871 159.567794 
L 195.776303 160.004667 
L 196.848736 160.164216 
L 197.921168 160.048165 
L 198.993601 159.659958 
L 200.066033 159.004755 
L 201.138466 158.089424 
L 202.210898 156.922519 
L 203.640808 154.993178 
L 205.070718 152.663547 
L 206.858105 149.24008 
L 208.645493 145.319328 
L 210.790358 140.079534 
L 213.650177 132.461395 
L 220.799727 113.083146 
L 222.944592 108.038832 
L 224.731979 104.399076 
L 226.161889 101.951644 
L 227.591799 99.990973 
L 228.664231 98.881144 
L 229.736664 98.11266 
L 230.451619 97.804292 
L 231.166574 97.669116 
L 231.881529 97.714518 
L 232.596484 97.937364 
L 233.668916 98.585624 
L 234.741349 99.584892 
L 235.813781 100.906183 
L 237.243691 103.118792 
L 238.673601 105.783964 
L 240.460988 109.648084 
L 242.605853 114.892261 
L 245.465673 122.547457 
L 252.257745 140.987126 
L 254.40261 146.139282 
L 256.189997 149.967127 
L 257.977385 153.281731 
L 259.407294 155.514243 
L 260.837204 157.338844 
L 261.909637 158.422944 
L 262.982069 159.252433 
L 264.054502 159.819317 
L 265.126934 160.117294 
L 266.199367 160.141776 
L 267.271799 159.889892 
L 268.344231 159.36049 
L 269.416664 158.554113 
L 270.489096 157.47298 
L 271.561529 156.120946 
L 272.991439 153.906453 
L 274.421349 151.237282 
L 275.851258 148.13503 
L 277.638646 143.687792 
L 279.426033 138.662818 
L 281.570898 131.963987 
L 284.07324 123.387234 
L 287.290538 111.489649 
L 299.087294 66.884582 
L 301.589637 58.63223 
L 303.734502 52.204562 
L 305.879367 46.460429 
L 307.666754 42.245013 
L 309.454141 38.582852 
L 310.884051 36.068133 
L 312.313961 33.932711 
L 313.743871 32.183361 
L 315.173781 30.824321 
L 316.246213 30.062359 
L 317.318646 29.520925 
L 318.391078 29.199237 
L 319.463511 29.095852 
L 320.535943 29.208699 
L 321.608376 29.535116 
L 322.680808 30.071876 
L 323.75324 30.815228 
L 325.18315 32.120324 
L 326.61306 33.773769 
L 328.04297 35.762912 
L 329.830358 38.700215 
L 331.617745 42.110954 
L 333.405132 45.963486 
L 335.549997 51.12228 
L 338.05234 57.802032 
L 340.912159 66.183108 
L 344.129457 76.375699 
L 348.061709 89.606618 
L 361.645853 136.076625 
L 364.86315 145.956484 
L 367.72297 153.990765 
L 370.225312 160.317893 
L 372.370177 165.138993 
L 374.157565 168.684442 
L 375.944952 171.762859 
L 377.374862 173.865825 
L 378.804772 175.629834 
L 380.234682 177.037404 
L 381.664592 178.071237 
L 382.737024 178.59105 
L 383.809457 178.883858 
L 384.881889 178.94257 
L 385.954322 178.760147 
L 387.026754 178.329607 
L 388.099186 177.644022 
L 389.171619 176.696518 
L 390.244051 175.480271 
L 391.316484 173.988508 
L 392.746394 171.559302 
L 394.176303 168.612549 
L 395.606213 165.132599 
L 397.036123 161.103951 
L 398.823511 155.273144 
L 400.610898 148.531303 
L 402.398285 140.849046 
L 404.185673 132.197302 
L 405.97306 122.547295 
L 408.117925 109.609483 
L 409.905313 97.663391 
L 409.905313 97.663391 
" clip-path="url(#p1356d37813)" style="fill: none; stroke-dasharray: 9.6,2.4,1.5,2.4; stroke-dashoffset: 0; stroke: #999999; stroke-width: 1.5"/>
   </g>
   <g id="patch_3">
    <path d="M 52.785313 267.552 
L 52.785313 1.44 
" style="fill: none; stroke: #000000; stroke-width: 0.8; stroke-linejoin: miter; stroke-linecap: square"/>
   </g>
   <g id="patch_4">
    <path d="M 409.905313 267.552 
L 409.905313 1.44 
" style="fill: none; stroke: #000000; stroke-width: 0.8; stroke-linejoin: miter; stroke-linecap: square"/>
   </g>
   <g id="patch_5">
    <path d="M 52.785313 267.552 
L 409.905313 267.552 
" style="fill: none; stroke: #000000; stroke-width: 0.8; stroke-linejoin: miter; stroke-linecap: square"/>
   </g>
   <g id="patch_6">
    <path d="M 52.785313 1.44 
L 409.905313 1.44 
" style="fill: none; stroke: #000000; stroke-width: 0.8; stroke-linejoin: miter; stroke-linecap: square"/>
   </g>
   <g id="legend_1">
    <g id="patch_7">
     <path d="M 358.605312 53.474375 
L 402.905312 53.474375 
Q 404.905312 53.474375 404.905312 51.474375 
L 404.905312 8.44 
Q 404.905312 6.44 402.905312 6.44 
L 358.605312 6.44 
Q 356.605312 6.44 356.605312 8.44 
L 356.605312 51.474375 
Q 356.605312 53.474375 358.605312 53.474375 
z
" style="fill: #ffffff; opacity: 0.8; stroke: #cccccc; stroke-linejoin: miter"/>
    </g>
    <g id="line2d_21">
     <path d="M 360.605312 14.538437 
L 370.605312 14.538437 
L 380.605312 14.538437 
" style="fill: none; stroke-dasharray: 4.5,1.5,1.5,1.5,1.5,1.5; stroke-dashoffset: 0; stroke: #000000; stroke-width: 1.5"/>
    </g>
    <g id="text_18">
     <!-- $N_1$ -->
     <g transform="translate(388.605312 18.038437)scale(0.1 -0.1)">
      <defs>
       <path id="DejaVuSans-Oblique-4e" d="M 1081 4666 
L 1931 4666 
L 3219 666 
L 4000 4666 
L 4616 4666 
L 3706 0 
L 2853 0 
L 1569 4025 
L 788 0 
L 172 0 
L 1081 4666 
z
" transform="scale(0.015625)"/>
      </defs>
      <use xlink:href="#DejaVuSans-Oblique-4e" transform="translate(0 0.09375)"/>
      <use xlink:href="#DejaVuSans-31" transform="translate(74.804688 -16.3125)scale(0.7)"/>
     </g>
    </g>
    <g id="line2d_22">
     <path d="M 360.605312 29.216562 
L 370.605312 29.216562 
L 380.605312 29.216562 
" style="fill: none; stroke-dasharray: 5.55,2.4; stroke-dashoffset: 0; stroke: #666666; stroke-width: 1.5"/>
    </g>
    <g id="text_19">
     <!-- $N_2$ -->
     <g transform="translate(388.605312 32.716562)scale(0.1 -0.1)">
      <use xlink:href="#DejaVuSans-Oblique-4e" transform="translate(0 0.09375)"/>
      <use xlink:href="#DejaVuSans-32" transform="translate(74.804688 -16.3125)scale(0.7)"/>
     </g>
    </g>
    <g id="line2d_23">
     <path d="M 360.605312 43.894687 
L 370.605312 43.894687 
L 380.605312 43.894687 
" style="fill: none; stroke-dasharray: 9.6,2.4,1.5,2.4; stroke-dashoffset: 0; stroke: #999999; stroke-width: 1.5"/>
    </g>
    <g id="text_20">
     <!-- $S_3$ -->
     <g transform="translate(388.605312 47.394687)scale(0.1 -0.1)">
      <defs>
       <path id="DejaVuSans-Oblique-53" d="M 3859 4513 
L 3738 3897 
Q 3422 4066 3111 4152 
Q 2800 4238 2509 4238 
Q 1944 4238 1609 3991 
Q 1275 3744 1275 3334 
Q 1275 3109 1398 2989 
Q 1522 2869 2034 2731 
L 2413 2638 
Q 3053 2472 3303 2217 
Q 3553 1963 3553 1503 
Q 3553 797 2998 353 
Q 2444 -91 1538 -91 
Q 1166 -91 791 -17 
Q 416 56 38 206 
L 166 856 
Q 513 641 861 531 
Q 1209 422 1556 422 
Q 2147 422 2503 684 
Q 2859 947 2859 1369 
Q 2859 1650 2717 1795 
Q 2575 1941 2106 2059 
L 1728 2156 
Q 1081 2325 845 2545 
Q 609 2766 609 3163 
Q 609 3859 1145 4304 
Q 1681 4750 2541 4750 
Q 2875 4750 3203 4690 
Q 3531 4631 3859 4513 
z
" transform="scale(0.015625)"/>
       <path id="DejaVuSans-33" d="M 2597 2516 
Q 3050 2419 3304 2112 
Q 3559 1806 3559 1356 
Q 3559 666 3084 287 
Q 2609 -91 1734 -91 
Q 1441 -91 1130 -33 
Q 819 25 488 141 
L 488 750 
Q 750 597 1062 519 
Q 1375 441 1716 441 
Q 2309 441 2620 675 
Q 2931 909 2931 1356 
Q 2931 1769 2642 2001 
Q 2353 2234 1838 2234 
L 1294 2234 
L 1294 2753 
L 1863 2753 
Q 2328 2753 2575 2939 
Q 2822 3125 2822 3475 
Q 2822 3834 2567 4026 
Q 2313 4219 1838 4219 
Q 1578 4219 1281 4162 
Q 984 4106 628 3988 
L 628 4550 
Q 988 4650 1302 4700 
Q 1616 4750 1894 4750 
Q 2613 4750 3031 4423 
Q 3450 4097 3450 3541 
Q 3450 3153 3228 2886 
Q 3006 2619 2597 2516 
z
" transform="scale(0.015625)"/>
      </defs>
      <use xlink:href="#DejaVuSans-Oblique-53" transform="translate(0 0.78125)"/>
      <use xlink:href="#DejaVuSans-33" transform="translate(63.476562 -15.625)scale(0.7)"/>
     </g>
    </g>
   </g>
  </g>
 </g>
 <defs>
  <clipPath id="p1356d37813">
   <rect x="52.785313" y="1.44" width="357.12" height="266.112"/>
  </clipPath>
 </defs>
</svg>
