<?xml version="1.0" encoding="utf-8" standalone="no"?>
<!DOCTYPE svg PUBLIC "-//W3C//DTD SVG 1.1//EN"
  "http://www.w3.org/Graphics/SVG/1.1/DTD/svg11.dtd">
<svg xmlns:xlink="http://www.w3.org/1999/xlink" width="420.889062pt" height="300.124039pt" viewBox="0 0 420.889062 300.124039" xmlns="http://www.w3.org/2000/svg" version="1.1">
 <metadata>
  <rdf:RDF xmlns:dc="http://purl.org/dc/elements/1.1/" xmlns:cc="http://creativecommons.org/ns#" xmlns:rdf="http://www.w3.org/1999/02/22-rdf-syntax-ns#">
   <cc:Work>
    <dc:type rdf:resource="http://purl.org/dc/dcmitype/StillImage"/>
    <dc:date>2022-05-21T12:03:18.635936</dc:date>
    <dc:format>image/svg+xml</dc:format>
    <dc:creator>
     <cc:Agent>
      <dc:title>Matplotlib v3.5.1, https://matplotlib.org/</dc:title>
     </cc:Agent>
    </dc:creator>
   </cc:Work>
  </rdf:RDF>
 </metadata>
 <defs>
  <style type="text/css">*{stroke-linejoin: round; stroke-linecap: butt}</style>
 </defs>
 <g id="figure_1">
  <g id="patch_1">
   <path d="M 0 300.124039 
L 420.889062 300.124039 
L 420.889062 0 
L 0 0 
z
" style="fill: #ffffff"/>
  </g>
  <g id="axes_1">
   <g id="patch_2">
    <path d="M 59.147813 268.327789 
L 416.267813 268.327789 
L 416.267813 2.215789 
L 59.147813 2.215789 
z
" style="fill: #ffffff"/>
   </g>
   <g id="matplotlib.axis_1">
    <g id="xtick_1">
     <g id="line2d_1">
      <defs>
       <path id="m4086a096a2" d="M 0 0 
L 0 3.5 
" style="stroke: #000000; stroke-width: 0.8"/>
      </defs>
      <g>
       <use xlink:href="#m4086a096a2" x="59.147813" y="268.327789" style="stroke: #000000; stroke-width: 0.8"/>
      </g>
     </g>
     <g id="text_1">
      <!-- −6 -->
      <g transform="translate(51.776719 282.926226)scale(0.1 -0.1)">
       <defs>
        <path id="DejaVuSans-2212" d="M 678 2272 
L 4684 2272 
L 4684 1741 
L 678 1741 
L 678 2272 
z
" transform="scale(0.015625)"/>
        <path id="DejaVuSans-36" d="M 2113 2584 
Q 1688 2584 1439 2293 
Q 1191 2003 1191 1497 
Q 1191 994 1439 701 
Q 1688 409 2113 409 
Q 2538 409 2786 701 
Q 3034 994 3034 1497 
Q 3034 2003 2786 2293 
Q 2538 2584 2113 2584 
z
M 3366 4563 
L 3366 3988 
Q 3128 4100 2886 4159 
Q 2644 4219 2406 4219 
Q 1781 4219 1451 3797 
Q 1122 3375 1075 2522 
Q 1259 2794 1537 2939 
Q 1816 3084 2150 3084 
Q 2853 3084 3261 2657 
Q 3669 2231 3669 1497 
Q 3669 778 3244 343 
Q 2819 -91 2113 -91 
Q 1303 -91 875 529 
Q 447 1150 447 2328 
Q 447 3434 972 4092 
Q 1497 4750 2381 4750 
Q 2619 4750 2861 4703 
Q 3103 4656 3366 4563 
z
" transform="scale(0.015625)"/>
       </defs>
       <use xlink:href="#DejaVuSans-2212"/>
       <use xlink:href="#DejaVuSans-36" x="83.789062"/>
      </g>
     </g>
    </g>
    <g id="xtick_2">
     <g id="line2d_2">
      <g>
       <use xlink:href="#m4086a096a2" x="118.667813" y="268.327789" style="stroke: #000000; stroke-width: 0.8"/>
      </g>
     </g>
     <g id="text_2">
      <!-- −4 -->
      <g transform="translate(111.296719 282.926226)scale(0.1 -0.1)">
       <defs>
        <path id="DejaVuSans-34" d="M 2419 4116 
L 825 1625 
L 2419 1625 
L 2419 4116 
z
M 2253 4666 
L 3047 4666 
L 3047 1625 
L 3713 1625 
L 3713 1100 
L 3047 1100 
L 3047 0 
L 2419 0 
L 2419 1100 
L 313 1100 
L 313 1709 
L 2253 4666 
z
" transform="scale(0.015625)"/>
       </defs>
       <use xlink:href="#DejaVuSans-2212"/>
       <use xlink:href="#DejaVuSans-34" x="83.789062"/>
      </g>
     </g>
    </g>
    <g id="xtick_3">
     <g id="line2d_3">
      <g>
       <use xlink:href="#m4086a096a2" x="178.187813" y="268.327789" style="stroke: #000000; stroke-width: 0.8"/>
      </g>
     </g>
     <g id="text_3">
      <!-- −2 -->
      <g transform="translate(170.816719 282.926226)scale(0.1 -0.1)">
       <defs>
        <path id="DejaVuSans-32" d="M 1228 531 
L 3431 531 
L 3431 0 
L 469 0 
L 469 531 
Q 828 903 1448 1529 
Q 2069 2156 2228 2338 
Q 2531 2678 2651 2914 
Q 2772 3150 2772 3378 
Q 2772 3750 2511 3984 
Q 2250 4219 1831 4219 
Q 1534 4219 1204 4116 
Q 875 4013 500 3803 
L 500 4441 
Q 881 4594 1212 4672 
Q 1544 4750 1819 4750 
Q 2544 4750 2975 4387 
Q 3406 4025 3406 3419 
Q 3406 3131 3298 2873 
Q 3191 2616 2906 2266 
Q 2828 2175 2409 1742 
Q 1991 1309 1228 531 
z
" transform="scale(0.015625)"/>
       </defs>
       <use xlink:href="#DejaVuSans-2212"/>
       <use xlink:href="#DejaVuSans-32" x="83.789062"/>
      </g>
     </g>
    </g>
    <g id="xtick_4">
     <g id="line2d_4">
      <g>
       <use xlink:href="#m4086a096a2" x="237.707813" y="268.327789" style="stroke: #000000; stroke-width: 0.8"/>
      </g>
     </g>
     <g id="text_4">
      <!-- 0 -->
      <g transform="translate(234.526563 282.926226)scale(0.1 -0.1)">
       <defs>
        <path id="DejaVuSans-30" d="M 2034 4250 
Q 1547 4250 1301 3770 
Q 1056 3291 1056 2328 
Q 1056 1369 1301 889 
Q 1547 409 2034 409 
Q 2525 409 2770 889 
Q 3016 1369 3016 2328 
Q 3016 3291 2770 3770 
Q 2525 4250 2034 4250 
z
M 2034 4750 
Q 2819 4750 3233 4129 
Q 3647 3509 3647 2328 
Q 3647 1150 3233 529 
Q 2819 -91 2034 -91 
Q 1250 -91 836 529 
Q 422 1150 422 2328 
Q 422 3509 836 4129 
Q 1250 4750 2034 4750 
z
" transform="scale(0.015625)"/>
       </defs>
       <use xlink:href="#DejaVuSans-30"/>
      </g>
     </g>
    </g>
    <g id="xtick_5">
     <g id="line2d_5">
      <g>
       <use xlink:href="#m4086a096a2" x="297.227813" y="268.327789" style="stroke: #000000; stroke-width: 0.8"/>
      </g>
     </g>
     <g id="text_5">
      <!-- 2 -->
      <g transform="translate(294.046563 282.926226)scale(0.1 -0.1)">
       <use xlink:href="#DejaVuSans-32"/>
      </g>
     </g>
    </g>
    <g id="xtick_6">
     <g id="line2d_6">
      <g>
       <use xlink:href="#m4086a096a2" x="356.747813" y="268.327789" style="stroke: #000000; stroke-width: 0.8"/>
      </g>
     </g>
     <g id="text_6">
      <!-- 4 -->
      <g transform="translate(353.566563 282.926226)scale(0.1 -0.1)">
       <use xlink:href="#DejaVuSans-34"/>
      </g>
     </g>
    </g>
    <g id="xtick_7">
     <g id="line2d_7">
      <g>
       <use xlink:href="#m4086a096a2" x="416.267813" y="268.327789" style="stroke: #000000; stroke-width: 0.8"/>
      </g>
     </g>
     <g id="text_7">
      <!-- 6 -->
      <g transform="translate(413.086563 282.926226)scale(0.1 -0.1)">
       <use xlink:href="#DejaVuSans-36"/>
      </g>
     </g>
    </g>
    <g id="text_8">
     <!-- $x$ -->
     <g transform="translate(234.707813 296.604351)scale(0.1 -0.1)">
      <defs>
       <path id="DejaVuSans-Oblique-78" d="M 3841 3500 
L 2234 1784 
L 3219 0 
L 2559 0 
L 1819 1388 
L 531 0 
L -166 0 
L 1556 1844 
L 641 3500 
L 1300 3500 
L 1972 2234 
L 3144 3500 
L 3841 3500 
z
" transform="scale(0.015625)"/>
      </defs>
      <use xlink:href="#DejaVuSans-Oblique-78" transform="translate(0 0.3125)"/>
     </g>
    </g>
   </g>
   <g id="matplotlib.axis_2">
    <g id="ytick_1">
     <g id="line2d_8">
      <defs>
       <path id="ma80f56bb98" d="M 0 0 
L -3.5 0 
" style="stroke: #000000; stroke-width: 0.8"/>
      </defs>
      <g>
       <use xlink:href="#ma80f56bb98" x="59.147813" y="241.68505" style="stroke: #000000; stroke-width: 0.8"/>
      </g>
     </g>
     <g id="text_9">
      <!-- −0.075 -->
      <g transform="translate(15.14 245.484268)scale(0.1 -0.1)">
       <defs>
        <path id="DejaVuSans-2e" d="M 684 794 
L 1344 794 
L 1344 0 
L 684 0 
L 684 794 
z
" transform="scale(0.015625)"/>
        <path id="DejaVuSans-37" d="M 525 4666 
L 3525 4666 
L 3525 4397 
L 1831 0 
L 1172 0 
L 2766 4134 
L 525 4134 
L 525 4666 
z
" transform="scale(0.015625)"/>
        <path id="DejaVuSans-35" d="M 691 4666 
L 3169 4666 
L 3169 4134 
L 1269 4134 
L 1269 2991 
Q 1406 3038 1543 3061 
Q 1681 3084 1819 3084 
Q 2600 3084 3056 2656 
Q 3513 2228 3513 1497 
Q 3513 744 3044 326 
Q 2575 -91 1722 -91 
Q 1428 -91 1123 -41 
Q 819 9 494 109 
L 494 744 
Q 775 591 1075 516 
Q 1375 441 1709 441 
Q 2250 441 2565 725 
Q 2881 1009 2881 1497 
Q 2881 1984 2565 2268 
Q 2250 2553 1709 2553 
Q 1456 2553 1204 2497 
Q 953 2441 691 2322 
L 691 4666 
z
" transform="scale(0.015625)"/>
       </defs>
       <use xlink:href="#DejaVuSans-2212"/>
       <use xlink:href="#DejaVuSans-30" x="83.789062"/>
       <use xlink:href="#DejaVuSans-2e" x="147.412109"/>
       <use xlink:href="#DejaVuSans-30" x="179.199219"/>
       <use xlink:href="#DejaVuSans-37" x="242.822266"/>
       <use xlink:href="#DejaVuSans-35" x="306.445312"/>
      </g>
     </g>
    </g>
    <g id="ytick_2">
     <g id="line2d_9">
      <g>
       <use xlink:href="#ma80f56bb98" x="59.147813" y="207.907074" style="stroke: #000000; stroke-width: 0.8"/>
      </g>
     </g>
     <g id="text_10">
      <!-- −0.050 -->
      <g transform="translate(15.14 211.706292)scale(0.1 -0.1)">
       <use xlink:href="#DejaVuSans-2212"/>
       <use xlink:href="#DejaVuSans-30" x="83.789062"/>
       <use xlink:href="#DejaVuSans-2e" x="147.412109"/>
       <use xlink:href="#DejaVuSans-30" x="179.199219"/>
       <use xlink:href="#DejaVuSans-35" x="242.822266"/>
       <use xlink:href="#DejaVuSans-30" x="306.445312"/>
      </g>
     </g>
    </g>
    <g id="ytick_3">
     <g id="line2d_10">
      <g>
       <use xlink:href="#ma80f56bb98" x="59.147813" y="174.129098" style="stroke: #000000; stroke-width: 0.8"/>
      </g>
     </g>
     <g id="text_11">
      <!-- −0.025 -->
      <g transform="translate(15.14 177.928317)scale(0.1 -0.1)">
       <use xlink:href="#DejaVuSans-2212"/>
       <use xlink:href="#DejaVuSans-30" x="83.789062"/>
       <use xlink:href="#DejaVuSans-2e" x="147.412109"/>
       <use xlink:href="#DejaVuSans-30" x="179.199219"/>
       <use xlink:href="#DejaVuSans-32" x="242.822266"/>
       <use xlink:href="#DejaVuSans-35" x="306.445312"/>
      </g>
     </g>
    </g>
    <g id="ytick_4">
     <g id="line2d_11">
      <g>
       <use xlink:href="#ma80f56bb98" x="59.147813" y="140.351122" style="stroke: #000000; stroke-width: 0.8"/>
      </g>
     </g>
     <g id="text_12">
      <!-- 0.000 -->
      <g transform="translate(23.519687 144.150341)scale(0.1 -0.1)">
       <use xlink:href="#DejaVuSans-30"/>
       <use xlink:href="#DejaVuSans-2e" x="63.623047"/>
       <use xlink:href="#DejaVuSans-30" x="95.410156"/>
       <use xlink:href="#DejaVuSans-30" x="159.033203"/>
       <use xlink:href="#DejaVuSans-30" x="222.65625"/>
      </g>
     </g>
    </g>
    <g id="ytick_5">
     <g id="line2d_12">
      <g>
       <use xlink:href="#ma80f56bb98" x="59.147813" y="106.573146" style="stroke: #000000; stroke-width: 0.8"/>
      </g>
     </g>
     <g id="text_13">
      <!-- 0.025 -->
      <g transform="translate(23.519687 110.372365)scale(0.1 -0.1)">
       <use xlink:href="#DejaVuSans-30"/>
       <use xlink:href="#DejaVuSans-2e" x="63.623047"/>
       <use xlink:href="#DejaVuSans-30" x="95.410156"/>
       <use xlink:href="#DejaVuSans-32" x="159.033203"/>
       <use xlink:href="#DejaVuSans-35" x="222.65625"/>
      </g>
     </g>
    </g>
    <g id="ytick_6">
     <g id="line2d_13">
      <g>
       <use xlink:href="#ma80f56bb98" x="59.147813" y="72.79517" style="stroke: #000000; stroke-width: 0.8"/>
      </g>
     </g>
     <g id="text_14">
      <!-- 0.050 -->
      <g transform="translate(23.519687 76.594389)scale(0.1 -0.1)">
       <use xlink:href="#DejaVuSans-30"/>
       <use xlink:href="#DejaVuSans-2e" x="63.623047"/>
       <use xlink:href="#DejaVuSans-30" x="95.410156"/>
       <use xlink:href="#DejaVuSans-35" x="159.033203"/>
       <use xlink:href="#DejaVuSans-30" x="222.65625"/>
      </g>
     </g>
    </g>
    <g id="ytick_7">
     <g id="line2d_14">
      <g>
       <use xlink:href="#ma80f56bb98" x="59.147813" y="39.017195" style="stroke: #000000; stroke-width: 0.8"/>
      </g>
     </g>
     <g id="text_15">
      <!-- 0.075 -->
      <g transform="translate(23.519687 42.816413)scale(0.1 -0.1)">
       <use xlink:href="#DejaVuSans-30"/>
       <use xlink:href="#DejaVuSans-2e" x="63.623047"/>
       <use xlink:href="#DejaVuSans-30" x="95.410156"/>
       <use xlink:href="#DejaVuSans-37" x="159.033203"/>
       <use xlink:href="#DejaVuSans-35" x="222.65625"/>
      </g>
     </g>
    </g>
    <g id="ytick_8">
     <g id="line2d_15">
      <g>
       <use xlink:href="#ma80f56bb98" x="59.147813" y="5.239219" style="stroke: #000000; stroke-width: 0.8"/>
      </g>
     </g>
     <g id="text_16">
      <!-- 0.100 -->
      <g transform="translate(23.519687 9.038437)scale(0.1 -0.1)">
       <defs>
        <path id="DejaVuSans-31" d="M 794 531 
L 1825 531 
L 1825 4091 
L 703 3866 
L 703 4441 
L 1819 4666 
L 2450 4666 
L 2450 531 
L 3481 531 
L 3481 0 
L 794 0 
L 794 531 
z
" transform="scale(0.015625)"/>
       </defs>
       <use xlink:href="#DejaVuSans-30"/>
       <use xlink:href="#DejaVuSans-2e" x="63.623047"/>
       <use xlink:href="#DejaVuSans-31" x="95.410156"/>
       <use xlink:href="#DejaVuSans-30" x="159.033203"/>
       <use xlink:href="#DejaVuSans-30" x="222.65625"/>
      </g>
     </g>
    </g>
    <g id="text_17">
     <!-- $y-f_2(x)$ -->
     <g transform="translate(9.04 155.371789)rotate(-90)scale(0.1 -0.1)">
      <defs>
       <path id="DejaVuSans-Oblique-79" d="M 1588 -325 
Q 1188 -997 936 -1164 
Q 684 -1331 294 -1331 
L -159 -1331 
L -63 -850 
L 269 -850 
Q 509 -850 678 -719 
Q 847 -588 1056 -206 
L 1234 128 
L 459 3500 
L 1069 3500 
L 1650 819 
L 3256 3500 
L 3859 3500 
L 1588 -325 
z
" transform="scale(0.015625)"/>
       <path id="DejaVuSans-Oblique-66" d="M 3059 4863 
L 2969 4384 
L 2419 4384 
Q 2106 4384 1964 4261 
Q 1822 4138 1753 3809 
L 1691 3500 
L 2638 3500 
L 2553 3053 
L 1606 3053 
L 1013 0 
L 434 0 
L 1031 3053 
L 481 3053 
L 563 3500 
L 1113 3500 
L 1159 3744 
Q 1278 4363 1576 4613 
Q 1875 4863 2516 4863 
L 3059 4863 
z
" transform="scale(0.015625)"/>
       <path id="DejaVuSans-28" d="M 1984 4856 
Q 1566 4138 1362 3434 
Q 1159 2731 1159 2009 
Q 1159 1288 1364 580 
Q 1569 -128 1984 -844 
L 1484 -844 
Q 1016 -109 783 600 
Q 550 1309 550 2009 
Q 550 2706 781 3412 
Q 1013 4119 1484 4856 
L 1984 4856 
z
" transform="scale(0.015625)"/>
       <path id="DejaVuSans-29" d="M 513 4856 
L 1013 4856 
Q 1481 4119 1714 3412 
Q 1947 2706 1947 2009 
Q 1947 1309 1714 600 
Q 1481 -109 1013 -844 
L 513 -844 
Q 928 -128 1133 580 
Q 1338 1288 1338 2009 
Q 1338 2731 1133 3434 
Q 928 4138 513 4856 
z
" transform="scale(0.015625)"/>
      </defs>
      <use xlink:href="#DejaVuSans-Oblique-79" transform="translate(0 0.015625)"/>
      <use xlink:href="#DejaVuSans-2212" transform="translate(78.662109 0.015625)"/>
      <use xlink:href="#DejaVuSans-Oblique-66" transform="translate(181.933594 0.015625)"/>
      <use xlink:href="#DejaVuSans-32" transform="translate(217.138672 -16.390625)scale(0.7)"/>
      <use xlink:href="#DejaVuSans-28" transform="translate(264.40918 0.015625)"/>
      <use xlink:href="#DejaVuSans-Oblique-78" transform="translate(303.422852 0.015625)"/>
      <use xlink:href="#DejaVuSans-29" transform="translate(362.602539 0.015625)"/>
     </g>
    </g>
   </g>
   <g id="LineCollection_1">
    <path d="M 59.147813 140.351122 
L 59.147813 140.351122 
" clip-path="url(#p5e203c1375)" style="fill: none; stroke: #000000; stroke-width: 1.5"/>
    <path d="M 103.787813 140.351122 
L 103.787813 140.351122 
" clip-path="url(#p5e203c1375)" style="fill: none; stroke: #000000; stroke-width: 1.5"/>
    <path d="M 148.427813 140.351122 
L 148.427813 140.351122 
" clip-path="url(#p5e203c1375)" style="fill: none; stroke: #000000; stroke-width: 1.5"/>
    <path d="M 193.067813 140.351122 
L 193.067813 140.351122 
" clip-path="url(#p5e203c1375)" style="fill: none; stroke: #000000; stroke-width: 1.5"/>
    <path d="M 237.707813 140.351122 
L 237.707813 140.351122 
" clip-path="url(#p5e203c1375)" style="fill: none; stroke: #000000; stroke-width: 1.5"/>
    <path d="M 282.347813 140.351122 
L 282.347813 140.351122 
" clip-path="url(#p5e203c1375)" style="fill: none; stroke: #000000; stroke-width: 1.5"/>
    <path d="M 326.987813 140.351122 
L 326.987813 140.351122 
" clip-path="url(#p5e203c1375)" style="fill: none; stroke: #000000; stroke-width: 1.5"/>
    <path d="M 371.627813 140.351122 
L 371.627813 140.351122 
" clip-path="url(#p5e203c1375)" style="fill: none; stroke: #000000; stroke-width: 1.5"/>
    <path d="M 416.267813 140.351122 
L 416.267813 140.351122 
" clip-path="url(#p5e203c1375)" style="fill: none; stroke: #000000; stroke-width: 1.5"/>
   </g>
   <g id="line2d_16">
    <defs>
     <path id="m74e693f24d" d="M -0 4.242641 
L 4.242641 0 
L 0 -4.242641 
L -4.242641 -0 
z
" style="stroke: #000000; stroke-linejoin: miter"/>
    </defs>
    <g clip-path="url(#p5e203c1375)">
     <use xlink:href="#m74e693f24d" x="59.147813" y="140.351122" style="stroke: #000000; stroke-linejoin: miter"/>
     <use xlink:href="#m74e693f24d" x="103.787813" y="140.351122" style="stroke: #000000; stroke-linejoin: miter"/>
     <use xlink:href="#m74e693f24d" x="148.427813" y="140.351122" style="stroke: #000000; stroke-linejoin: miter"/>
     <use xlink:href="#m74e693f24d" x="193.067813" y="140.351122" style="stroke: #000000; stroke-linejoin: miter"/>
     <use xlink:href="#m74e693f24d" x="237.707813" y="140.351122" style="stroke: #000000; stroke-linejoin: miter"/>
     <use xlink:href="#m74e693f24d" x="282.347813" y="140.351122" style="stroke: #000000; stroke-linejoin: miter"/>
     <use xlink:href="#m74e693f24d" x="326.987813" y="140.351122" style="stroke: #000000; stroke-linejoin: miter"/>
     <use xlink:href="#m74e693f24d" x="371.627813" y="140.351122" style="stroke: #000000; stroke-linejoin: miter"/>
     <use xlink:href="#m74e693f24d" x="416.267813" y="140.351122" style="stroke: #000000; stroke-linejoin: miter"/>
    </g>
   </g>
   <g id="line2d_17">
    <path d="M 59.147813 140.351122 
L 416.267813 140.351122 
" clip-path="url(#p5e203c1375)" style="fill: none; stroke: #b2b2b2; stroke-width: 1.5; stroke-linecap: square"/>
   </g>
   <g id="line2d_18">
    <path d="M 59.147813 140.351122 
L 61.292677 165.448184 
L 63.080065 183.896135 
L 64.867452 200.132032 
L 66.65484 214.191826 
L 68.084749 223.901688 
L 69.514659 232.271814 
L 70.944569 239.330485 
L 72.374479 245.108761 
L 73.446912 248.62242 
L 74.519344 251.450011 
L 75.591776 253.607554 
L 76.306731 254.681938 
L 77.021686 255.471148 
L 77.736641 255.980502 
L 78.451596 256.215461 
L 79.166551 256.18163 
L 79.881506 255.884748 
L 80.596461 255.330692 
L 81.311416 254.525467 
L 82.383849 252.860141 
L 83.456281 250.664737 
L 84.528713 247.961071 
L 85.958623 243.604327 
L 87.388533 238.438414 
L 88.818443 232.519457 
L 90.605831 224.149626 
L 92.750695 212.83408 
L 94.89556 200.324491 
L 97.75538 182.149745 
L 101.330155 157.740537 
L 104.547452 135.80426 
L 110.267092 102.181605 
L 113.126912 86.600004 
L 115.629254 74.160561 
L 117.774119 64.638307 
L 119.561506 57.654508 
L 121.348894 51.650426 
L 122.778803 47.62222 
L 124.208713 44.338315 
L 125.281146 42.39345 
L 126.353578 40.914913 
L 127.068533 40.197871 
L 127.783488 39.702262 
L 128.498443 39.433515 
L 129.213398 39.396924 
L 129.928353 39.597638 
L 130.643308 40.040666 
L 131.358263 40.730869 
L 132.073218 41.672959 
L 133.14565 43.568323 
L 134.218083 46.055414 
L 135.290515 49.148192 
L 136.362948 52.859816 
L 137.792858 58.7925 
L 139.222767 65.874136 
L 140.652677 74.128998 
L 142.082587 83.578646 
L 143.869975 97.099276 
L 145.657362 112.546608 
L 147.444749 129.944465 
L 148.159704 137.453784 
L 148.517182 139.274253 
L 150.662047 114.91271 
L 152.449434 96.789957 
L 154.236822 80.645675 
L 156.024209 66.470872 
L 157.811596 54.249877 
L 159.241506 45.865097 
L 160.671416 38.70229 
L 162.101326 32.744514 
L 163.173758 29.055366 
L 164.246191 26.024023 
L 165.318623 23.640593 
L 166.391056 21.894441 
L 167.106011 21.078799 
L 167.820966 20.537812 
L 168.535921 20.267797 
L 169.250876 20.264939 
L 169.965831 20.52529 
L 170.680785 21.044771 
L 171.39574 21.819179 
L 172.468173 23.449276 
L 173.540605 25.62808 
L 174.613038 28.339892 
L 175.68547 31.568453 
L 177.11538 36.647926 
L 178.54529 42.574926 
L 180.332677 51.110293 
L 182.120065 60.816605 
L 184.26493 73.883625 
L 186.409794 88.348147 
L 188.912137 106.770396 
L 191.771957 129.537049 
L 193.201867 140.599481 
L 194.989254 144.153363 
L 197.134119 148.913153 
L 200.351416 156.706286 
L 206.786011 172.546648 
L 209.288353 178.044582 
L 211.07574 181.526955 
L 212.863128 184.5415 
L 214.293038 186.56098 
L 215.722948 188.188016 
L 216.79538 189.12734 
L 217.867813 189.808282 
L 218.940245 190.215627 
L 220.012677 190.334721 
L 221.08511 190.151496 
L 222.157542 189.652481 
L 223.229975 188.824819 
L 224.302407 187.656282 
L 225.37484 186.135284 
L 226.447272 184.250892 
L 227.519704 181.992838 
L 228.949614 178.38436 
L 230.379524 174.07376 
L 231.809434 169.042371 
L 233.239344 163.27373 
L 235.026731 155.004683 
L 236.814119 145.538669 
L 237.529074 141.413013 
L 237.886551 141.712946 
L 240.031416 157.098197 
L 242.176281 170.709064 
L 243.963668 180.69311 
L 245.751056 189.445803 
L 247.538443 196.97561 
L 248.968353 202.127691 
L 250.398263 206.514324 
L 251.828173 210.146109 
L 252.900605 212.381898 
L 253.973038 214.205709 
L 255.04547 215.623766 
L 256.117903 216.642735 
L 257.190335 217.269696 
L 257.90529 217.473557 
L 258.620245 217.508799 
L 259.3352 217.377786 
L 260.050155 217.082941 
L 261.122587 216.33893 
L 262.19502 215.240472 
L 263.267452 213.796373 
L 264.339885 212.015628 
L 265.769794 209.133448 
L 267.199704 205.691008 
L 268.629614 201.710449 
L 270.417002 196.011756 
L 272.204389 189.549722 
L 274.349254 180.846652 
L 276.494119 171.1744 
L 278.996461 158.752215 
L 281.498803 145.194243 
L 282.213758 141.123762 
L 282.571236 141.150777 
L 284.716101 148.419977 
L 286.860966 154.977291 
L 289.005831 160.853176 
L 291.150695 166.068848 
L 293.29556 170.636074 
L 295.082948 173.948731 
L 296.870335 176.809368 
L 298.657722 179.210275 
L 300.087632 180.792303 
L 301.517542 182.065115 
L 302.947452 183.019776 
L 304.377362 183.646182 
L 305.449794 183.893925 
L 306.522227 183.945803 
L 307.594659 183.796609 
L 308.667092 183.440967 
L 309.739524 182.87338 
L 310.811957 182.088277 
L 311.884389 181.080064 
L 313.314299 179.379101 
L 314.744209 177.258619 
L 316.174119 174.706062 
L 317.604029 171.709496 
L 319.033939 168.257796 
L 320.821326 163.287811 
L 322.608713 157.573738 
L 324.396101 151.101693 
L 326.183488 143.861543 
L 326.898443 140.748922 
L 327.255921 141.333267 
L 329.043308 147.434734 
L 330.830695 152.76191 
L 332.618083 157.320977 
L 334.047993 160.422595 
L 335.477903 163.047921 
L 336.907813 165.207319 
L 338.337722 166.913352 
L 339.410155 167.90416 
L 340.482587 168.655262 
L 341.55502 169.174401 
L 342.627452 169.470008 
L 343.699885 169.551199 
L 344.772317 169.427763 
L 345.844749 169.110152 
L 347.274659 168.403908 
L 348.704569 167.40036 
L 350.134479 166.129537 
L 351.921867 164.213936 
L 354.066731 161.523513 
L 356.569074 157.999984 
L 364.433578 146.556672 
L 366.220966 144.391902 
L 368.008353 142.577226 
L 369.438263 141.438905 
L 370.868173 140.630303 
L 371.583128 140.36447 
L 372.65556 131.085479 
L 375.51538 106.545084 
L 378.017722 86.802962 
L 380.162587 71.366669 
L 382.307452 57.465316 
L 384.09484 47.162526 
L 385.882227 38.115606 
L 387.312137 31.837644 
L 388.742047 26.456802 
L 390.171957 22.012384 
L 391.244389 19.316399 
L 392.316822 17.183809 
L 393.389254 15.629435 
L 394.104209 14.921482 
L 394.819164 14.480946 
L 395.534119 14.311789 
L 396.249074 14.417851 
L 396.964029 14.802848 
L 397.678984 15.470368 
L 398.393939 16.423867 
L 399.108894 17.66667 
L 400.181326 20.080252 
L 401.253758 23.162074 
L 402.326191 26.921582 
L 403.398623 31.367484 
L 404.828533 38.37671 
L 406.258443 46.63694 
L 407.688353 56.162376 
L 409.47574 69.865847 
L 411.263128 85.581183 
L 413.050515 103.318867 
L 414.837903 123.082776 
L 416.267813 140.351122 
L 416.267813 140.351122 
" clip-path="url(#p5e203c1375)" style="fill: none; stroke-dasharray: 4.5,1.5,1.5,1.5,1.5,1.5; stroke-dashoffset: 0; stroke: #000000; stroke-width: 1.5"/>
   </g>
   <g id="line2d_19">
    <path d="M 59.147813 140.351122 
L 61.292677 164.282479 
L 63.080065 181.848899 
L 64.867452 197.284983 
L 66.65484 210.626682 
L 68.084749 219.820904 
L 69.514659 227.72769 
L 70.944569 234.37532 
L 72.374479 239.794855 
L 73.446912 243.07378 
L 74.519344 245.696054 
L 75.591776 247.6777 
L 76.306731 248.651162 
L 77.021686 249.352525 
L 77.736641 249.787107 
L 78.451596 249.96037 
L 79.166551 249.877916 
L 79.881506 249.545487 
L 80.596461 248.968959 
L 81.311416 248.154336 
L 82.383849 246.49943 
L 83.456281 244.343862 
L 84.528713 241.709452 
L 85.958623 237.490811 
L 87.388533 232.515301 
L 89.175921 225.317208 
L 90.963308 217.137068 
L 93.108173 206.187963 
L 95.610515 192.111962 
L 98.470335 174.717383 
L 102.760065 147.083099 
L 109.194659 105.592928 
L 112.411957 86.403409 
L 114.914299 72.811662 
L 117.059164 62.357933 
L 118.846551 54.639281 
L 120.633939 47.939547 
L 122.063849 43.384139 
L 123.493758 39.600065 
L 124.566191 37.298385 
L 125.638623 35.479194 
L 126.711056 34.162268 
L 127.426011 33.572825 
L 128.140966 33.220621 
L 128.855921 33.111018 
L 129.570876 33.249239 
L 130.285831 33.640362 
L 131.000785 34.289322 
L 131.71574 35.200907 
L 132.788173 37.070811 
L 133.860605 39.55703 
L 134.933038 42.673791 
L 136.00547 46.434519 
L 137.43538 52.472232 
L 138.86529 59.704709 
L 140.2952 68.156894 
L 141.72511 77.851032 
L 143.512497 91.74465 
L 145.299885 107.641103 
L 147.087272 125.565583 
L 148.159704 137.301636 
L 148.517182 139.568885 
L 150.662047 121.923891 
L 152.449434 108.878148 
L 154.236822 97.338047 
L 156.024209 87.294595 
L 157.454119 80.327111 
L 158.884029 74.296525 
L 160.313939 69.189134 
L 161.743849 64.988638 
L 162.816281 62.422175 
L 163.888713 60.346424 
L 164.961146 58.75175 
L 166.033578 57.627762 
L 166.748533 57.134465 
L 167.463488 56.841958 
L 168.178443 56.746629 
L 168.893398 56.844729 
L 169.608353 57.132376 
L 170.323308 57.605554 
L 171.39574 58.654103 
L 172.468173 60.09625 
L 173.540605 61.916886 
L 174.970515 64.905944 
L 176.400425 68.501145 
L 177.830335 72.662065 
L 179.617722 78.594659 
L 181.40511 85.260338 
L 183.549975 94.102259 
L 186.052317 105.380162 
L 189.269614 121.003091 
L 194.989254 150.227453 
L 199.636461 173.436777 
L 202.496281 186.655776 
L 204.998623 197.174634 
L 207.143488 205.205001 
L 208.930876 211.080173 
L 210.718263 216.117639 
L 212.148173 219.486487 
L 213.578083 222.221435 
L 214.650515 223.831838 
L 215.722948 225.045695 
L 216.79538 225.846716 
L 217.510335 226.14357 
L 218.22529 226.245387 
L 218.940245 226.147741 
L 219.6552 225.84632 
L 220.370155 225.336924 
L 221.08511 224.615474 
L 222.157542 223.127062 
L 223.229975 221.139785 
L 224.302407 218.641414 
L 225.37484 215.620364 
L 226.804749 210.760438 
L 228.234659 204.92787 
L 229.664569 198.100724 
L 231.094479 190.259238 
L 232.881867 179.004409 
L 234.669254 166.107942 
L 236.456641 151.545828 
L 237.529074 142.001095 
L 237.886551 140.878725 
L 240.031416 146.776491 
L 241.818803 151.073953 
L 243.606191 154.807152 
L 245.393578 157.978621 
L 246.823488 160.116226 
L 248.253398 161.905075 
L 249.683308 163.353098 
L 251.113218 164.470027 
L 252.543128 165.267307 
L 253.973038 165.757997 
L 255.402948 165.956666 
L 256.832858 165.879276 
L 258.262767 165.543062 
L 259.692677 164.966398 
L 261.122587 164.168663 
L 262.909975 162.891513 
L 264.697362 161.341653 
L 266.842227 159.181439 
L 269.344569 156.341149 
L 272.919344 151.910289 
L 280.068894 142.941733 
L 282.928713 139.726612 
L 285.431056 137.232911 
L 287.575921 135.380588 
L 289.720785 133.820801 
L 291.86565 132.571629 
L 293.653038 131.774425 
L 295.440425 131.199084 
L 297.227813 130.84124 
L 299.0152 130.692375 
L 300.802587 130.740114 
L 302.947452 131.034379 
L 305.092317 131.555691 
L 307.594659 132.399779 
L 310.811957 133.755008 
L 322.608713 139.066184 
L 325.468533 139.973172 
L 326.898443 140.330973 
L 327.613398 145.337397 
L 329.758263 161.124429 
L 331.54565 172.735571 
L 333.333038 182.950904 
L 335.120425 191.783783 
L 336.550335 197.867066 
L 337.980245 203.089418 
L 339.410155 207.46506 
L 340.840065 211.01042 
L 341.912497 213.135689 
L 342.98493 214.813017 
L 344.057362 216.051744 
L 345.129794 216.861882 
L 345.844749 217.169113 
L 346.559704 217.293911 
L 347.274659 217.239726 
L 347.989614 217.01013 
L 348.704569 216.608817 
L 349.777002 215.693254 
L 350.849434 214.413303 
L 351.921867 212.782906 
L 353.351776 210.089039 
L 354.781686 206.833819 
L 356.211596 203.054672 
L 357.998984 197.653386 
L 359.786371 191.573402 
L 361.931236 183.4973 
L 364.433578 173.185742 
L 367.650876 158.892963 
L 373.370515 132.161411 
L 377.660245 112.535575 
L 380.520065 100.360714 
L 383.022407 90.644339 
L 385.167272 83.201783 
L 386.954659 77.734933 
L 388.742047 73.022444 
L 390.171957 69.847524 
L 391.601867 67.242614 
L 392.674299 65.684834 
L 393.746731 64.482715 
L 394.819164 63.650323 
L 395.534119 63.307478 
L 396.249074 63.138798 
L 396.964029 63.147998 
L 397.678984 63.338667 
L 398.393939 63.71426 
L 399.108894 64.278102 
L 400.181326 65.483766 
L 401.253758 67.130297 
L 402.326191 69.227141 
L 403.398623 71.783007 
L 404.828533 75.918492 
L 406.258443 80.900764 
L 407.688353 86.744023 
L 409.118263 93.459906 
L 410.90565 103.095394 
L 412.693038 114.120068 
L 414.480425 126.539134 
L 416.267813 140.351122 
L 416.267813 140.351122 
" clip-path="url(#p5e203c1375)" style="fill: none; stroke-dasharray: 5.55,2.4; stroke-dashoffset: 0; stroke: #666666; stroke-width: 1.5"/>
   </g>
   <g id="line2d_20">
    <path d="M 59.147813 140.351122 
L 60.9352 141.36069 
L 63.437542 143.066529 
L 72.374479 149.494562 
L 74.519344 150.675444 
L 76.664209 151.603247 
L 78.451596 152.159858 
L 80.238984 152.50645 
L 82.026371 152.636366 
L 83.813758 152.54799 
L 85.601146 152.244394 
L 87.388533 151.732965 
L 89.533398 150.861106 
L 91.678263 149.732659 
L 94.180605 148.135514 
L 97.040425 146.015012 
L 100.972677 142.767644 
L 108.479704 136.478625 
L 111.339524 134.386667 
L 113.841867 132.817726 
L 115.986731 131.712014 
L 118.131596 130.857722 
L 119.918984 130.354041 
L 121.706371 130.049204 
L 123.493758 129.94792 
L 125.281146 130.050502 
L 127.068533 130.352556 
L 129.213398 130.964705 
L 131.358263 131.823893 
L 133.860605 133.087152 
L 137.077903 134.99503 
L 142.797542 138.450183 
L 144.942407 139.467497 
L 146.729794 140.066741 
L 148.159704 140.32766 
L 149.589614 140.355678 
L 151.019524 140.1689 
L 152.806912 139.693473 
L 154.951776 138.861506 
L 157.811596 137.487367 
L 164.246191 134.305526 
L 166.748533 133.332105 
L 168.893398 132.702575 
L 171.038263 132.292695 
L 173.183128 132.120377 
L 175.327993 132.193657 
L 177.472858 132.511453 
L 179.617722 133.064367 
L 181.762587 133.835536 
L 184.26493 134.979466 
L 187.124749 136.550646 
L 190.699524 138.786662 
L 199.993939 144.748944 
L 202.853758 146.282413 
L 205.356101 147.398804 
L 207.858443 148.260505 
L 210.003308 148.770925 
L 212.148173 149.054858 
L 214.293038 149.104069 
L 216.437903 148.917615 
L 218.582767 148.502549 
L 220.727632 147.874558 
L 223.229975 146.906558 
L 226.089794 145.560581 
L 235.026731 141.143455 
L 237.171596 140.46918 
L 238.958984 140.164033 
L 240.746371 140.084676 
L 242.891236 140.219442 
L 245.393578 140.600104 
L 249.325831 141.458352 
L 256.117903 142.962093 
L 259.692677 143.509212 
L 262.909975 143.783105 
L 266.127272 143.830576 
L 269.344569 143.646497 
L 272.561867 143.229277 
L 275.779164 142.571047 
L 278.638984 141.76482 
L 281.498803 140.716345 
L 284.001146 139.567053 
L 288.290876 137.287768 
L 292.938083 134.883474 
L 295.797903 133.641876 
L 298.300245 132.77755 
L 300.802587 132.153351 
L 303.30493 131.786162 
L 305.449794 131.680222 
L 307.952137 131.797414 
L 310.454479 132.16525 
L 312.956822 132.771736 
L 315.459164 133.605102 
L 317.961506 134.657106 
L 320.463849 135.926208 
L 322.966191 137.420539 
L 325.468533 139.16057 
L 327.970876 141.179127 
L 331.54565 144.430165 
L 336.550335 148.96618 
L 339.052677 150.952161 
L 341.197542 152.405326 
L 343.342407 153.580112 
L 345.129794 154.321254 
L 346.917182 154.830672 
L 348.704569 155.099079 
L 350.491957 155.121992 
L 352.279344 154.899512 
L 354.066731 154.436072 
L 355.854119 153.740175 
L 357.641506 152.824088 
L 359.786371 151.456493 
L 361.931236 149.827657 
L 364.433578 147.648951 
L 367.650876 144.514955 
L 373.013038 138.880643 
L 377.660245 134.117939 
L 380.520065 131.480624 
L 383.022407 129.463764 
L 385.167272 128.004185 
L 387.312137 126.831485 
L 389.099524 126.095293 
L 390.886912 125.593081 
L 392.674299 125.334857 
L 394.461686 125.326557 
L 396.249074 125.569721 
L 398.036461 126.061189 
L 399.823849 126.792804 
L 401.611236 127.751144 
L 403.756101 129.173363 
L 406.258443 131.151426 
L 409.118263 133.719177 
L 416.267813 140.351122 
L 416.267813 140.351122 
" clip-path="url(#p5e203c1375)" style="fill: none; stroke-dasharray: 9.6,2.4,1.5,2.4; stroke-dashoffset: 0; stroke: #999999; stroke-width: 1.5"/>
   </g>
   <g id="patch_3">
    <path d="M 59.147813 268.327789 
L 59.147813 2.215789 
" style="fill: none; stroke: #000000; stroke-width: 0.8; stroke-linejoin: miter; stroke-linecap: square"/>
   </g>
   <g id="patch_4">
    <path d="M 416.267813 268.327789 
L 416.267813 2.215789 
" style="fill: none; stroke: #000000; stroke-width: 0.8; stroke-linejoin: miter; stroke-linecap: square"/>
   </g>
   <g id="patch_5">
    <path d="M 59.147813 268.327789 
L 416.267813 268.327789 
" style="fill: none; stroke: #000000; stroke-width: 0.8; stroke-linejoin: miter; stroke-linecap: square"/>
   </g>
   <g id="patch_6">
    <path d="M 59.147813 2.215789 
L 416.267813 2.215789 
" style="fill: none; stroke: #000000; stroke-width: 0.8; stroke-linejoin: miter; stroke-linecap: square"/>
   </g>
   <g id="legend_1">
    <g id="patch_7">
     <path d="M 66.147813 54.250164 
L 110.447812 54.250164 
Q 112.447812 54.250164 112.447812 52.250164 
L 112.447812 9.215789 
Q 112.447812 7.215789 110.447812 7.215789 
L 66.147813 7.215789 
Q 64.147813 7.215789 64.147813 9.215789 
L 64.147813 52.250164 
Q 64.147813 54.250164 66.147813 54.250164 
z
" style="fill: #ffffff; opacity: 0.8; stroke: #cccccc; stroke-linejoin: miter"/>
    </g>
    <g id="line2d_21">
     <path d="M 68.147813 15.314226 
L 78.147813 15.314226 
L 88.147813 15.314226 
" style="fill: none; stroke-dasharray: 4.5,1.5,1.5,1.5,1.5,1.5; stroke-dashoffset: 0; stroke: #000000; stroke-width: 1.5"/>
    </g>
    <g id="text_18">
     <!-- $N_1$ -->
     <g transform="translate(96.147813 18.814226)scale(0.1 -0.1)">
      <defs>
       <path id="DejaVuSans-Oblique-4e" d="M 1081 4666 
L 1931 4666 
L 3219 666 
L 4000 4666 
L 4616 4666 
L 3706 0 
L 2853 0 
L 1569 4025 
L 788 0 
L 172 0 
L 1081 4666 
z
" transform="scale(0.015625)"/>
      </defs>
      <use xlink:href="#DejaVuSans-Oblique-4e" transform="translate(0 0.09375)"/>
      <use xlink:href="#DejaVuSans-31" transform="translate(74.804688 -16.3125)scale(0.7)"/>
     </g>
    </g>
    <g id="line2d_22">
     <path d="M 68.147813 29.992351 
L 78.147813 29.992351 
L 88.147813 29.992351 
" style="fill: none; stroke-dasharray: 5.55,2.4; stroke-dashoffset: 0; stroke: #666666; stroke-width: 1.5"/>
    </g>
    <g id="text_19">
     <!-- $N_2$ -->
     <g transform="translate(96.147813 33.492351)scale(0.1 -0.1)">
      <use xlink:href="#DejaVuSans-Oblique-4e" transform="translate(0 0.09375)"/>
      <use xlink:href="#DejaVuSans-32" transform="translate(74.804688 -16.3125)scale(0.7)"/>
     </g>
    </g>
    <g id="line2d_23">
     <path d="M 68.147813 44.670476 
L 78.147813 44.670476 
L 88.147813 44.670476 
" style="fill: none; stroke-dasharray: 9.6,2.4,1.5,2.4; stroke-dashoffset: 0; stroke: #999999; stroke-width: 1.5"/>
    </g>
    <g id="text_20">
     <!-- $S_3$ -->
     <g transform="translate(96.147813 48.170476)scale(0.1 -0.1)">
      <defs>
       <path id="DejaVuSans-Oblique-53" d="M 3859 4513 
L 3738 3897 
Q 3422 4066 3111 4152 
Q 2800 4238 2509 4238 
Q 1944 4238 1609 3991 
Q 1275 3744 1275 3334 
Q 1275 3109 1398 2989 
Q 1522 2869 2034 2731 
L 2413 2638 
Q 3053 2472 3303 2217 
Q 3553 1963 3553 1503 
Q 3553 797 2998 353 
Q 2444 -91 1538 -91 
Q 1166 -91 791 -17 
Q 416 56 38 206 
L 166 856 
Q 513 641 861 531 
Q 1209 422 1556 422 
Q 2147 422 2503 684 
Q 2859 947 2859 1369 
Q 2859 1650 2717 1795 
Q 2575 1941 2106 2059 
L 1728 2156 
Q 1081 2325 845 2545 
Q 609 2766 609 3163 
Q 609 3859 1145 4304 
Q 1681 4750 2541 4750 
Q 2875 4750 3203 4690 
Q 3531 4631 3859 4513 
z
" transform="scale(0.015625)"/>
       <path id="DejaVuSans-33" d="M 2597 2516 
Q 3050 2419 3304 2112 
Q 3559 1806 3559 1356 
Q 3559 666 3084 287 
Q 2609 -91 1734 -91 
Q 1441 -91 1130 -33 
Q 819 25 488 141 
L 488 750 
Q 750 597 1062 519 
Q 1375 441 1716 441 
Q 2309 441 2620 675 
Q 2931 909 2931 1356 
Q 2931 1769 2642 2001 
Q 2353 2234 1838 2234 
L 1294 2234 
L 1294 2753 
L 1863 2753 
Q 2328 2753 2575 2939 
Q 2822 3125 2822 3475 
Q 2822 3834 2567 4026 
Q 2313 4219 1838 4219 
Q 1578 4219 1281 4162 
Q 984 4106 628 3988 
L 628 4550 
Q 988 4650 1302 4700 
Q 1616 4750 1894 4750 
Q 2613 4750 3031 4423 
Q 3450 4097 3450 3541 
Q 3450 3153 3228 2886 
Q 3006 2619 2597 2516 
z
" transform="scale(0.015625)"/>
      </defs>
      <use xlink:href="#DejaVuSans-Oblique-53" transform="translate(0 0.78125)"/>
      <use xlink:href="#DejaVuSans-33" transform="translate(63.476562 -15.625)scale(0.7)"/>
     </g>
    </g>
   </g>
  </g>
 </g>
 <defs>
  <clipPath id="p5e203c1375">
   <rect x="59.147813" y="2.215789" width="357.12" height="266.112"/>
  </clipPath>
 </defs>
</svg>
