<?xml version="1.0" encoding="utf-8" standalone="no"?>
<!DOCTYPE svg PUBLIC "-//W3C//DTD SVG 1.1//EN"
  "http://www.w3.org/Graphics/SVG/1.1/DTD/svg11.dtd">
<svg xmlns:xlink="http://www.w3.org/1999/xlink" width="460.8pt" height="345.6pt" viewBox="0 0 460.8 345.6" xmlns="http://www.w3.org/2000/svg" version="1.1">
 <metadata>
  <rdf:RDF xmlns:dc="http://purl.org/dc/elements/1.1/" xmlns:cc="http://creativecommons.org/ns#" xmlns:rdf="http://www.w3.org/1999/02/22-rdf-syntax-ns#">
   <cc:Work>
    <dc:type rdf:resource="http://purl.org/dc/dcmitype/StillImage"/>
    <dc:date>2022-05-24T13:10:43.450408</dc:date>
    <dc:format>image/svg+xml</dc:format>
    <dc:creator>
     <cc:Agent>
      <dc:title>Matplotlib v3.5.1, https://matplotlib.org/</dc:title>
     </cc:Agent>
    </dc:creator>
   </cc:Work>
  </rdf:RDF>
 </metadata>
 <defs>
  <style type="text/css">*{stroke-linejoin: round; stroke-linecap: butt}</style>
 </defs>
 <g id="figure_1">
  <g id="patch_1">
   <path d="M 0 345.6 
L 460.8 345.6 
L 460.8 0 
L 0 0 
z
" style="fill: #ffffff"/>
  </g>
  <g id="axes_1">
   <g id="patch_2">
    <path d="M 0 317.622857 
L 460.8 317.622857 
L 460.8 27.977143 
L 0 27.977143 
z
" style="fill: #ffffff"/>
   </g>
   <g id="matplotlib.axis_1">
    <g id="xtick_1">
     <g id="line2d_1">
      <defs>
       <path id="mc6c5e0fc4c" d="M 0 0 
L 0 3.5 
" style="stroke: #000000; stroke-width: 0.8"/>
      </defs>
      <g>
       <use xlink:href="#mc6c5e0fc4c" x="32.914286" y="317.622857" style="stroke: #000000; stroke-width: 0.8"/>
      </g>
     </g>
     <g id="text_1">
      <!-- −30 -->
      <g transform="translate(22.361942 332.221295)scale(0.1 -0.1)">
       <defs>
        <path id="DejaVuSans-2212" d="M 678 2272 
L 4684 2272 
L 4684 1741 
L 678 1741 
L 678 2272 
z
" transform="scale(0.015625)"/>
        <path id="DejaVuSans-33" d="M 2597 2516 
Q 3050 2419 3304 2112 
Q 3559 1806 3559 1356 
Q 3559 666 3084 287 
Q 2609 -91 1734 -91 
Q 1441 -91 1130 -33 
Q 819 25 488 141 
L 488 750 
Q 750 597 1062 519 
Q 1375 441 1716 441 
Q 2309 441 2620 675 
Q 2931 909 2931 1356 
Q 2931 1769 2642 2001 
Q 2353 2234 1838 2234 
L 1294 2234 
L 1294 2753 
L 1863 2753 
Q 2328 2753 2575 2939 
Q 2822 3125 2822 3475 
Q 2822 3834 2567 4026 
Q 2313 4219 1838 4219 
Q 1578 4219 1281 4162 
Q 984 4106 628 3988 
L 628 4550 
Q 988 4650 1302 4700 
Q 1616 4750 1894 4750 
Q 2613 4750 3031 4423 
Q 3450 4097 3450 3541 
Q 3450 3153 3228 2886 
Q 3006 2619 2597 2516 
z
" transform="scale(0.015625)"/>
        <path id="DejaVuSans-30" d="M 2034 4250 
Q 1547 4250 1301 3770 
Q 1056 3291 1056 2328 
Q 1056 1369 1301 889 
Q 1547 409 2034 409 
Q 2525 409 2770 889 
Q 3016 1369 3016 2328 
Q 3016 3291 2770 3770 
Q 2525 4250 2034 4250 
z
M 2034 4750 
Q 2819 4750 3233 4129 
Q 3647 3509 3647 2328 
Q 3647 1150 3233 529 
Q 2819 -91 2034 -91 
Q 1250 -91 836 529 
Q 422 1150 422 2328 
Q 422 3509 836 4129 
Q 1250 4750 2034 4750 
z
" transform="scale(0.015625)"/>
       </defs>
       <use xlink:href="#DejaVuSans-2212"/>
       <use xlink:href="#DejaVuSans-33" x="83.789062"/>
       <use xlink:href="#DejaVuSans-30" x="147.412109"/>
      </g>
     </g>
    </g>
    <g id="xtick_2">
     <g id="line2d_2">
      <g>
       <use xlink:href="#mc6c5e0fc4c" x="98.742857" y="317.622857" style="stroke: #000000; stroke-width: 0.8"/>
      </g>
     </g>
     <g id="text_2">
      <!-- −20 -->
      <g transform="translate(88.190513 332.221295)scale(0.1 -0.1)">
       <defs>
        <path id="DejaVuSans-32" d="M 1228 531 
L 3431 531 
L 3431 0 
L 469 0 
L 469 531 
Q 828 903 1448 1529 
Q 2069 2156 2228 2338 
Q 2531 2678 2651 2914 
Q 2772 3150 2772 3378 
Q 2772 3750 2511 3984 
Q 2250 4219 1831 4219 
Q 1534 4219 1204 4116 
Q 875 4013 500 3803 
L 500 4441 
Q 881 4594 1212 4672 
Q 1544 4750 1819 4750 
Q 2544 4750 2975 4387 
Q 3406 4025 3406 3419 
Q 3406 3131 3298 2873 
Q 3191 2616 2906 2266 
Q 2828 2175 2409 1742 
Q 1991 1309 1228 531 
z
" transform="scale(0.015625)"/>
       </defs>
       <use xlink:href="#DejaVuSans-2212"/>
       <use xlink:href="#DejaVuSans-32" x="83.789062"/>
       <use xlink:href="#DejaVuSans-30" x="147.412109"/>
      </g>
     </g>
    </g>
    <g id="xtick_3">
     <g id="line2d_3">
      <g>
       <use xlink:href="#mc6c5e0fc4c" x="164.571429" y="317.622857" style="stroke: #000000; stroke-width: 0.8"/>
      </g>
     </g>
     <g id="text_3">
      <!-- −10 -->
      <g transform="translate(154.019085 332.221295)scale(0.1 -0.1)">
       <defs>
        <path id="DejaVuSans-31" d="M 794 531 
L 1825 531 
L 1825 4091 
L 703 3866 
L 703 4441 
L 1819 4666 
L 2450 4666 
L 2450 531 
L 3481 531 
L 3481 0 
L 794 0 
L 794 531 
z
" transform="scale(0.015625)"/>
       </defs>
       <use xlink:href="#DejaVuSans-2212"/>
       <use xlink:href="#DejaVuSans-31" x="83.789062"/>
       <use xlink:href="#DejaVuSans-30" x="147.412109"/>
      </g>
     </g>
    </g>
    <g id="xtick_4">
     <g id="line2d_4">
      <g>
       <use xlink:href="#mc6c5e0fc4c" x="230.4" y="317.622857" style="stroke: #000000; stroke-width: 0.8"/>
      </g>
     </g>
     <g id="text_4">
      <!-- 0 -->
      <g transform="translate(227.21875 332.221295)scale(0.1 -0.1)">
       <use xlink:href="#DejaVuSans-30"/>
      </g>
     </g>
    </g>
    <g id="xtick_5">
     <g id="line2d_5">
      <g>
       <use xlink:href="#mc6c5e0fc4c" x="296.228571" y="317.622857" style="stroke: #000000; stroke-width: 0.8"/>
      </g>
     </g>
     <g id="text_5">
      <!-- 10 -->
      <g transform="translate(289.866071 332.221295)scale(0.1 -0.1)">
       <use xlink:href="#DejaVuSans-31"/>
       <use xlink:href="#DejaVuSans-30" x="63.623047"/>
      </g>
     </g>
    </g>
    <g id="xtick_6">
     <g id="line2d_6">
      <g>
       <use xlink:href="#mc6c5e0fc4c" x="362.057143" y="317.622857" style="stroke: #000000; stroke-width: 0.8"/>
      </g>
     </g>
     <g id="text_6">
      <!-- 20 -->
      <g transform="translate(355.694643 332.221295)scale(0.1 -0.1)">
       <use xlink:href="#DejaVuSans-32"/>
       <use xlink:href="#DejaVuSans-30" x="63.623047"/>
      </g>
     </g>
    </g>
    <g id="xtick_7">
     <g id="line2d_7">
      <g>
       <use xlink:href="#mc6c5e0fc4c" x="427.885714" y="317.622857" style="stroke: #000000; stroke-width: 0.8"/>
      </g>
     </g>
     <g id="text_7">
      <!-- 30 -->
      <g transform="translate(421.523214 332.221295)scale(0.1 -0.1)">
       <use xlink:href="#DejaVuSans-33"/>
       <use xlink:href="#DejaVuSans-30" x="63.623047"/>
      </g>
     </g>
    </g>
   </g>
   <g id="matplotlib.axis_2"/>
   <g id="line2d_8">
    <path d="M 0 185.728207 
L 10.368 187.018595 
L 13.5936 187.1094 
L 16.5888 186.975182 
L 19.8144 186.606788 
L 24.0768 185.873289 
L 30.528 184.764102 
L 33.6384 184.479406 
L 36.4032 184.454391 
L 39.0528 184.65214 
L 41.9328 185.097543 
L 45.504 185.896656 
L 52.992 187.644263 
L 55.6416 187.993143 
L 58.0608 188.088888 
L 60.3648 187.956976 
L 62.6688 187.606113 
L 65.2032 186.993368 
L 68.4288 185.962942 
L 75.456 183.62615 
L 77.8752 183.103733 
L 79.9488 182.872381 
L 81.9072 182.868598 
L 83.8656 183.087523 
L 85.824 183.52822 
L 87.8976 184.218325 
L 90.3168 185.263653 
L 93.7728 187.031152 
L 98.2656 189.294447 
L 100.5696 190.196696 
L 102.528 190.722548 
L 104.256 190.958809 
L 105.8688 190.962372 
L 107.4816 190.742889 
L 109.0944 190.295805 
L 110.8224 189.569591 
L 112.6656 188.532819 
L 114.7392 187.088134 
L 117.2736 185.02815 
L 124.416 179.04404 
L 126.2592 177.87475 
L 127.872 177.105706 
L 129.2544 176.673031 
L 130.6368 176.476562 
L 131.904 176.521956 
L 133.1712 176.795791 
L 134.4384 177.306291 
L 135.7056 178.057314 
L 137.088 179.14993 
L 138.5856 180.646761 
L 140.1984 182.601919 
L 141.9264 185.052152 
L 144 188.395385 
L 146.7648 193.317916 
L 152.1792 203.060571 
L 154.1376 206.085038 
L 155.7504 208.176225 
L 157.1328 209.602192 
L 158.2848 210.486697 
L 159.3216 211.017496 
L 160.2432 211.259173 
L 161.1648 211.268455 
L 162.0864 211.03115 
L 163.008 210.534106 
L 163.9296 209.765314 
L 164.8512 208.713997 
L 165.888 207.181844 
L 167.04 205.032389 
L 168.192 202.400738 
L 169.4592 198.939232 
L 170.8416 194.480106 
L 172.3392 188.847094 
L 173.952 181.863482 
L 175.68 173.363952 
L 177.6384 162.542124 
L 179.8272 149.118859 
L 182.4768 131.379108 
L 190.4256 76.904579 
L 191.9232 68.663981 
L 193.1904 62.88259 
L 194.2272 59.145578 
L 195.0336 56.936638 
L 195.7248 55.563783 
L 196.3008 54.80007 
L 196.8768 54.387439 
L 197.3376 54.310258 
L 197.7984 54.455573 
L 198.2592 54.819133 
L 198.8352 55.570971 
L 199.5264 56.887995 
L 200.3328 58.952675 
L 201.2544 61.929916 
L 202.4064 66.423428 
L 203.904 73.226057 
L 206.0928 84.335324 
L 214.9632 130.436056 
L 218.9952 149.70576 
L 222.912 167.386777 
L 226.0224 180.489133 
L 228.5568 190.253863 
L 230.6304 197.406262 
L 232.3584 202.644189 
L 233.9712 206.835025 
L 235.3536 209.823372 
L 236.6208 212.028278 
L 237.6576 213.428194 
L 238.5792 214.354136 
L 239.5008 214.971738 
L 240.3072 215.254464 
L 241.1136 215.294077 
L 241.92 215.089662 
L 242.7264 214.641911 
L 243.648 213.83532 
L 244.5696 212.72024 
L 245.6064 211.108542 
L 246.7584 208.894924 
L 248.0256 205.981632 
L 249.5232 201.960166 
L 251.2512 196.666333 
L 253.5552 188.819081 
L 260.5824 164.266557 
L 262.3104 159.264931 
L 263.808 155.580475 
L 265.0752 153.01662 
L 266.2272 151.173739 
L 267.264 149.939713 
L 268.1856 149.195369 
L 268.992 148.823522 
L 269.7984 148.716312 
L 270.4896 148.836225 
L 271.296 149.222818 
L 272.1024 149.872725 
L 273.024 150.932087 
L 274.0608 152.51552 
L 275.2128 154.738648 
L 276.48 157.709176 
L 277.9776 161.856821 
L 279.7056 167.369133 
L 281.7792 174.763453 
L 285.12 187.626061 
L 288.9216 202.042745 
L 291.1104 209.504547 
L 292.9536 215.032101 
L 294.5664 219.192841 
L 296.064 222.439247 
L 297.4464 224.887816 
L 298.7136 226.668205 
L 299.8656 227.909744 
L 300.9024 228.732503 
L 301.9392 229.291855 
L 302.976 229.606966 
L 304.0128 229.700496 
L 305.1648 229.575887 
L 306.432 229.20608 
L 307.9296 228.529097 
L 310.1184 227.264337 
L 313.5744 225.260043 
L 315.3024 224.525877 
L 316.8 224.123895 
L 318.2976 223.952524 
L 320.1408 223.991831 
L 322.56 224.052796 
L 323.5968 223.843521 
L 324.4032 223.46904 
L 325.2096 222.835632 
L 326.016 221.8749 
L 326.8224 220.524449 
L 327.6288 218.736061 
L 328.5504 216.124184 
L 329.5872 212.475393 
L 330.8544 207.134162 
L 332.8128 197.704548 
L 335.5776 184.450902 
L 337.0752 178.303735 
L 338.3424 173.94392 
L 339.4944 170.708831 
L 340.5312 168.396376 
L 341.4528 166.805495 
L 342.3744 165.632494 
L 343.1808 164.929859 
L 343.9872 164.509801 
L 344.7936 164.352002 
L 345.6 164.435107 
L 346.4064 164.73715 
L 347.328 165.321878 
L 348.3648 166.245428 
L 349.632 167.690764 
L 351.2448 169.911761 
L 353.5488 173.533476 
L 358.5024 181.441958 
L 360.4608 184.122437 
L 362.1888 186.136364 
L 363.8016 187.681752 
L 365.2992 188.815594 
L 366.7968 189.661374 
L 368.1792 190.197069 
L 369.6768 190.53143 
L 371.1744 190.636678 
L 372.7872 190.530777 
L 374.6304 190.186651 
L 376.9344 189.521037 
L 381.0816 188.037245 
L 384.9984 186.736108 
L 387.8784 186.019217 
L 390.6432 185.565073 
L 393.5232 185.319031 
L 396.9792 185.254948 
L 403.0848 185.415787 
L 410.4576 185.533184 
L 422.208 185.648154 
L 427.968 185.996927 
L 437.8752 186.638128 
L 442.1376 186.649684 
L 446.4 186.434067 
L 452.5056 185.869624 
L 458.7264 185.357723 
L 460.8 185.27292 
L 460.8 185.27292 
" clip-path="url(#pc38b9cc72b)" style="fill: none; stroke: #1f77b4; stroke-width: 1.5; stroke-linecap: square"/>
   </g>
   <g id="patch_3">
    <path d="M 0 317.622857 
L 0 27.977143 
" style="fill: none; stroke: #000000; stroke-width: 0.8; stroke-linejoin: miter; stroke-linecap: square"/>
   </g>
   <g id="patch_4">
    <path d="M 460.8 317.622857 
L 460.8 27.977143 
" style="fill: none; stroke: #000000; stroke-width: 0.8; stroke-linejoin: miter; stroke-linecap: square"/>
   </g>
   <g id="patch_5">
    <path d="M 0 317.622857 
L 460.8 317.622857 
" style="fill: none; stroke: #000000; stroke-width: 0.8; stroke-linejoin: miter; stroke-linecap: square"/>
   </g>
   <g id="patch_6">
    <path d="M 0 27.977143 
L 460.8 27.977143 
" style="fill: none; stroke: #000000; stroke-width: 0.8; stroke-linejoin: miter; stroke-linecap: square"/>
   </g>
  </g>
 </g>
 <defs>
  <clipPath id="pc38b9cc72b">
   <rect x="0" y="27.977143" width="460.8" height="289.645714"/>
  </clipPath>
 </defs>
</svg>
