<?xml version="1.0" encoding="utf-8" standalone="no"?>
<!DOCTYPE svg PUBLIC "-//W3C//DTD SVG 1.1//EN"
  "http://www.w3.org/Graphics/SVG/1.1/DTD/svg11.dtd">
<svg xmlns:xlink="http://www.w3.org/1999/xlink" width="420.867187pt" height="299.34825pt" viewBox="0 0 420.867187 299.34825" xmlns="http://www.w3.org/2000/svg" version="1.1">
 <metadata>
  <rdf:RDF xmlns:dc="http://purl.org/dc/elements/1.1/" xmlns:cc="http://creativecommons.org/ns#" xmlns:rdf="http://www.w3.org/1999/02/22-rdf-syntax-ns#">
   <cc:Work>
    <dc:type rdf:resource="http://purl.org/dc/dcmitype/StillImage"/>
    <dc:date>2022-05-21T13:30:38.375769</dc:date>
    <dc:format>image/svg+xml</dc:format>
    <dc:creator>
     <cc:Agent>
      <dc:title>Matplotlib v3.5.1, https://matplotlib.org/</dc:title>
     </cc:Agent>
    </dc:creator>
   </cc:Work>
  </rdf:RDF>
 </metadata>
 <defs>
  <style type="text/css">*{stroke-linejoin: round; stroke-linecap: butt}</style>
 </defs>
 <g id="figure_1">
  <g id="patch_1">
   <path d="M 0 299.34825 
L 420.867187 299.34825 
L 420.867187 0 
L 0 0 
z
" style="fill: #ffffff"/>
  </g>
  <g id="axes_1">
   <g id="patch_2">
    <path d="M 59.125937 267.552 
L 416.245938 267.552 
L 416.245938 1.44 
L 59.125937 1.44 
z
" style="fill: #ffffff"/>
   </g>
   <g id="matplotlib.axis_1">
    <g id="xtick_1">
     <g id="line2d_1">
      <defs>
       <path id="m1eb7bd7dd7" d="M 0 0 
L 0 3.5 
" style="stroke: #000000; stroke-width: 0.8"/>
      </defs>
      <g>
       <use xlink:href="#m1eb7bd7dd7" x="59.125937" y="267.552" style="stroke: #000000; stroke-width: 0.8"/>
      </g>
     </g>
     <g id="text_1">
      <!-- −6 -->
      <g transform="translate(51.754844 282.150437)scale(0.1 -0.1)">
       <defs>
        <path id="DejaVuSans-2212" d="M 678 2272 
L 4684 2272 
L 4684 1741 
L 678 1741 
L 678 2272 
z
" transform="scale(0.015625)"/>
        <path id="DejaVuSans-36" d="M 2113 2584 
Q 1688 2584 1439 2293 
Q 1191 2003 1191 1497 
Q 1191 994 1439 701 
Q 1688 409 2113 409 
Q 2538 409 2786 701 
Q 3034 994 3034 1497 
Q 3034 2003 2786 2293 
Q 2538 2584 2113 2584 
z
M 3366 4563 
L 3366 3988 
Q 3128 4100 2886 4159 
Q 2644 4219 2406 4219 
Q 1781 4219 1451 3797 
Q 1122 3375 1075 2522 
Q 1259 2794 1537 2939 
Q 1816 3084 2150 3084 
Q 2853 3084 3261 2657 
Q 3669 2231 3669 1497 
Q 3669 778 3244 343 
Q 2819 -91 2113 -91 
Q 1303 -91 875 529 
Q 447 1150 447 2328 
Q 447 3434 972 4092 
Q 1497 4750 2381 4750 
Q 2619 4750 2861 4703 
Q 3103 4656 3366 4563 
z
" transform="scale(0.015625)"/>
       </defs>
       <use xlink:href="#DejaVuSans-2212"/>
       <use xlink:href="#DejaVuSans-36" x="83.789062"/>
      </g>
     </g>
    </g>
    <g id="xtick_2">
     <g id="line2d_2">
      <g>
       <use xlink:href="#m1eb7bd7dd7" x="118.645938" y="267.552" style="stroke: #000000; stroke-width: 0.8"/>
      </g>
     </g>
     <g id="text_2">
      <!-- −4 -->
      <g transform="translate(111.274844 282.150437)scale(0.1 -0.1)">
       <defs>
        <path id="DejaVuSans-34" d="M 2419 4116 
L 825 1625 
L 2419 1625 
L 2419 4116 
z
M 2253 4666 
L 3047 4666 
L 3047 1625 
L 3713 1625 
L 3713 1100 
L 3047 1100 
L 3047 0 
L 2419 0 
L 2419 1100 
L 313 1100 
L 313 1709 
L 2253 4666 
z
" transform="scale(0.015625)"/>
       </defs>
       <use xlink:href="#DejaVuSans-2212"/>
       <use xlink:href="#DejaVuSans-34" x="83.789062"/>
      </g>
     </g>
    </g>
    <g id="xtick_3">
     <g id="line2d_3">
      <g>
       <use xlink:href="#m1eb7bd7dd7" x="178.165937" y="267.552" style="stroke: #000000; stroke-width: 0.8"/>
      </g>
     </g>
     <g id="text_3">
      <!-- −2 -->
      <g transform="translate(170.794844 282.150437)scale(0.1 -0.1)">
       <defs>
        <path id="DejaVuSans-32" d="M 1228 531 
L 3431 531 
L 3431 0 
L 469 0 
L 469 531 
Q 828 903 1448 1529 
Q 2069 2156 2228 2338 
Q 2531 2678 2651 2914 
Q 2772 3150 2772 3378 
Q 2772 3750 2511 3984 
Q 2250 4219 1831 4219 
Q 1534 4219 1204 4116 
Q 875 4013 500 3803 
L 500 4441 
Q 881 4594 1212 4672 
Q 1544 4750 1819 4750 
Q 2544 4750 2975 4387 
Q 3406 4025 3406 3419 
Q 3406 3131 3298 2873 
Q 3191 2616 2906 2266 
Q 2828 2175 2409 1742 
Q 1991 1309 1228 531 
z
" transform="scale(0.015625)"/>
       </defs>
       <use xlink:href="#DejaVuSans-2212"/>
       <use xlink:href="#DejaVuSans-32" x="83.789062"/>
      </g>
     </g>
    </g>
    <g id="xtick_4">
     <g id="line2d_4">
      <g>
       <use xlink:href="#m1eb7bd7dd7" x="237.685937" y="267.552" style="stroke: #000000; stroke-width: 0.8"/>
      </g>
     </g>
     <g id="text_4">
      <!-- 0 -->
      <g transform="translate(234.504687 282.150437)scale(0.1 -0.1)">
       <defs>
        <path id="DejaVuSans-30" d="M 2034 4250 
Q 1547 4250 1301 3770 
Q 1056 3291 1056 2328 
Q 1056 1369 1301 889 
Q 1547 409 2034 409 
Q 2525 409 2770 889 
Q 3016 1369 3016 2328 
Q 3016 3291 2770 3770 
Q 2525 4250 2034 4250 
z
M 2034 4750 
Q 2819 4750 3233 4129 
Q 3647 3509 3647 2328 
Q 3647 1150 3233 529 
Q 2819 -91 2034 -91 
Q 1250 -91 836 529 
Q 422 1150 422 2328 
Q 422 3509 836 4129 
Q 1250 4750 2034 4750 
z
" transform="scale(0.015625)"/>
       </defs>
       <use xlink:href="#DejaVuSans-30"/>
      </g>
     </g>
    </g>
    <g id="xtick_5">
     <g id="line2d_5">
      <g>
       <use xlink:href="#m1eb7bd7dd7" x="297.205938" y="267.552" style="stroke: #000000; stroke-width: 0.8"/>
      </g>
     </g>
     <g id="text_5">
      <!-- 2 -->
      <g transform="translate(294.024688 282.150437)scale(0.1 -0.1)">
       <use xlink:href="#DejaVuSans-32"/>
      </g>
     </g>
    </g>
    <g id="xtick_6">
     <g id="line2d_6">
      <g>
       <use xlink:href="#m1eb7bd7dd7" x="356.725937" y="267.552" style="stroke: #000000; stroke-width: 0.8"/>
      </g>
     </g>
     <g id="text_6">
      <!-- 4 -->
      <g transform="translate(353.544688 282.150437)scale(0.1 -0.1)">
       <use xlink:href="#DejaVuSans-34"/>
      </g>
     </g>
    </g>
    <g id="xtick_7">
     <g id="line2d_7">
      <g>
       <use xlink:href="#m1eb7bd7dd7" x="416.245937" y="267.552" style="stroke: #000000; stroke-width: 0.8"/>
      </g>
     </g>
     <g id="text_7">
      <!-- 6 -->
      <g transform="translate(413.064687 282.150437)scale(0.1 -0.1)">
       <use xlink:href="#DejaVuSans-36"/>
      </g>
     </g>
    </g>
    <g id="text_8">
     <!-- $x$ -->
     <g transform="translate(234.685937 295.828562)scale(0.1 -0.1)">
      <defs>
       <path id="DejaVuSans-Oblique-78" d="M 3841 3500 
L 2234 1784 
L 3219 0 
L 2559 0 
L 1819 1388 
L 531 0 
L -166 0 
L 1556 1844 
L 641 3500 
L 1300 3500 
L 1972 2234 
L 3144 3500 
L 3841 3500 
z
" transform="scale(0.015625)"/>
      </defs>
      <use xlink:href="#DejaVuSans-Oblique-78" transform="translate(0 0.3125)"/>
     </g>
    </g>
   </g>
   <g id="matplotlib.axis_2">
    <g id="ytick_1">
     <g id="line2d_8">
      <defs>
       <path id="m667a7cc90e" d="M 0 0 
L -3.5 0 
" style="stroke: #000000; stroke-width: 0.8"/>
      </defs>
      <g>
       <use xlink:href="#m667a7cc90e" x="59.125937" y="229.826246" style="stroke: #000000; stroke-width: 0.8"/>
      </g>
     </g>
     <g id="text_9">
      <!-- −0.006 -->
      <g transform="translate(15.118125 233.625465)scale(0.1 -0.1)">
       <defs>
        <path id="DejaVuSans-2e" d="M 684 794 
L 1344 794 
L 1344 0 
L 684 0 
L 684 794 
z
" transform="scale(0.015625)"/>
       </defs>
       <use xlink:href="#DejaVuSans-2212"/>
       <use xlink:href="#DejaVuSans-30" x="83.789062"/>
       <use xlink:href="#DejaVuSans-2e" x="147.412109"/>
       <use xlink:href="#DejaVuSans-30" x="179.199219"/>
       <use xlink:href="#DejaVuSans-30" x="242.822266"/>
       <use xlink:href="#DejaVuSans-36" x="306.445312"/>
      </g>
     </g>
    </g>
    <g id="ytick_2">
     <g id="line2d_9">
      <g>
       <use xlink:href="#m667a7cc90e" x="59.125937" y="187.054698" style="stroke: #000000; stroke-width: 0.8"/>
      </g>
     </g>
     <g id="text_10">
      <!-- −0.004 -->
      <g transform="translate(15.118125 190.853917)scale(0.1 -0.1)">
       <use xlink:href="#DejaVuSans-2212"/>
       <use xlink:href="#DejaVuSans-30" x="83.789062"/>
       <use xlink:href="#DejaVuSans-2e" x="147.412109"/>
       <use xlink:href="#DejaVuSans-30" x="179.199219"/>
       <use xlink:href="#DejaVuSans-30" x="242.822266"/>
       <use xlink:href="#DejaVuSans-34" x="306.445312"/>
      </g>
     </g>
    </g>
    <g id="ytick_3">
     <g id="line2d_10">
      <g>
       <use xlink:href="#m667a7cc90e" x="59.125937" y="144.28315" style="stroke: #000000; stroke-width: 0.8"/>
      </g>
     </g>
     <g id="text_11">
      <!-- −0.002 -->
      <g transform="translate(15.118125 148.082369)scale(0.1 -0.1)">
       <use xlink:href="#DejaVuSans-2212"/>
       <use xlink:href="#DejaVuSans-30" x="83.789062"/>
       <use xlink:href="#DejaVuSans-2e" x="147.412109"/>
       <use xlink:href="#DejaVuSans-30" x="179.199219"/>
       <use xlink:href="#DejaVuSans-30" x="242.822266"/>
       <use xlink:href="#DejaVuSans-32" x="306.445312"/>
      </g>
     </g>
    </g>
    <g id="ytick_4">
     <g id="line2d_11">
      <g>
       <use xlink:href="#m667a7cc90e" x="59.125937" y="101.511602" style="stroke: #000000; stroke-width: 0.8"/>
      </g>
     </g>
     <g id="text_12">
      <!-- 0.000 -->
      <g transform="translate(23.497812 105.310821)scale(0.1 -0.1)">
       <use xlink:href="#DejaVuSans-30"/>
       <use xlink:href="#DejaVuSans-2e" x="63.623047"/>
       <use xlink:href="#DejaVuSans-30" x="95.410156"/>
       <use xlink:href="#DejaVuSans-30" x="159.033203"/>
       <use xlink:href="#DejaVuSans-30" x="222.65625"/>
      </g>
     </g>
    </g>
    <g id="ytick_5">
     <g id="line2d_12">
      <g>
       <use xlink:href="#m667a7cc90e" x="59.125937" y="58.740054" style="stroke: #000000; stroke-width: 0.8"/>
      </g>
     </g>
     <g id="text_13">
      <!-- 0.002 -->
      <g transform="translate(23.497812 62.539273)scale(0.1 -0.1)">
       <use xlink:href="#DejaVuSans-30"/>
       <use xlink:href="#DejaVuSans-2e" x="63.623047"/>
       <use xlink:href="#DejaVuSans-30" x="95.410156"/>
       <use xlink:href="#DejaVuSans-30" x="159.033203"/>
       <use xlink:href="#DejaVuSans-32" x="222.65625"/>
      </g>
     </g>
    </g>
    <g id="ytick_6">
     <g id="line2d_13">
      <g>
       <use xlink:href="#m667a7cc90e" x="59.125937" y="15.968506" style="stroke: #000000; stroke-width: 0.8"/>
      </g>
     </g>
     <g id="text_14">
      <!-- 0.004 -->
      <g transform="translate(23.497812 19.767725)scale(0.1 -0.1)">
       <use xlink:href="#DejaVuSans-30"/>
       <use xlink:href="#DejaVuSans-2e" x="63.623047"/>
       <use xlink:href="#DejaVuSans-30" x="95.410156"/>
       <use xlink:href="#DejaVuSans-30" x="159.033203"/>
       <use xlink:href="#DejaVuSans-34" x="222.65625"/>
      </g>
     </g>
    </g>
    <g id="text_15">
     <!-- $y$ -->
     <g transform="translate(9.018125 137.496)rotate(-90)scale(0.1 -0.1)">
      <defs>
       <path id="DejaVuSans-Oblique-79" d="M 1588 -325 
Q 1188 -997 936 -1164 
Q 684 -1331 294 -1331 
L -159 -1331 
L -63 -850 
L 269 -850 
Q 509 -850 678 -719 
Q 847 -588 1056 -206 
L 1234 128 
L 459 3500 
L 1069 3500 
L 1650 819 
L 3256 3500 
L 3859 3500 
L 1588 -325 
z
" transform="scale(0.015625)"/>
      </defs>
      <use xlink:href="#DejaVuSans-Oblique-79" transform="translate(0 0.3125)"/>
     </g>
    </g>
   </g>
   <g id="LineCollection_1">
    <path d="M 59.125937 101.511602 
L 59.125937 101.511602 
" clip-path="url(#pd5efeee0f9)" style="fill: none; stroke: #000000; stroke-width: 1.5"/>
    <path d="M 94.837938 101.511602 
L 94.837938 101.511602 
" clip-path="url(#pd5efeee0f9)" style="fill: none; stroke: #000000; stroke-width: 1.5"/>
    <path d="M 130.549937 101.511602 
L 130.549937 101.511602 
" clip-path="url(#pd5efeee0f9)" style="fill: none; stroke: #000000; stroke-width: 1.5"/>
    <path d="M 166.261937 101.511602 
L 166.261937 101.511602 
" clip-path="url(#pd5efeee0f9)" style="fill: none; stroke: #000000; stroke-width: 1.5"/>
    <path d="M 201.973937 101.511602 
L 201.973937 101.511602 
" clip-path="url(#pd5efeee0f9)" style="fill: none; stroke: #000000; stroke-width: 1.5"/>
    <path d="M 237.685937 101.511602 
L 237.685937 101.511602 
" clip-path="url(#pd5efeee0f9)" style="fill: none; stroke: #000000; stroke-width: 1.5"/>
    <path d="M 273.397937 101.511602 
L 273.397937 101.511602 
" clip-path="url(#pd5efeee0f9)" style="fill: none; stroke: #000000; stroke-width: 1.5"/>
    <path d="M 309.109938 101.511602 
L 309.109938 101.511602 
" clip-path="url(#pd5efeee0f9)" style="fill: none; stroke: #000000; stroke-width: 1.5"/>
    <path d="M 344.821937 101.511602 
L 344.821937 101.511602 
" clip-path="url(#pd5efeee0f9)" style="fill: none; stroke: #000000; stroke-width: 1.5"/>
    <path d="M 380.533937 101.511602 
L 380.533937 101.511602 
" clip-path="url(#pd5efeee0f9)" style="fill: none; stroke: #000000; stroke-width: 1.5"/>
    <path d="M 416.245937 101.511602 
L 416.245937 101.511602 
" clip-path="url(#pd5efeee0f9)" style="fill: none; stroke: #000000; stroke-width: 1.5"/>
   </g>
   <g id="line2d_14">
    <defs>
     <path id="mf7f5f986d7" d="M -0 4.242641 
L 4.242641 0 
L 0 -4.242641 
L -4.242641 -0 
z
" style="stroke: #000000; stroke-linejoin: miter"/>
    </defs>
    <g clip-path="url(#pd5efeee0f9)">
     <use xlink:href="#mf7f5f986d7" x="59.125937" y="101.511602" style="stroke: #000000; stroke-linejoin: miter"/>
     <use xlink:href="#mf7f5f986d7" x="94.837938" y="101.511602" style="stroke: #000000; stroke-linejoin: miter"/>
     <use xlink:href="#mf7f5f986d7" x="130.549937" y="101.511602" style="stroke: #000000; stroke-linejoin: miter"/>
     <use xlink:href="#mf7f5f986d7" x="166.261937" y="101.511602" style="stroke: #000000; stroke-linejoin: miter"/>
     <use xlink:href="#mf7f5f986d7" x="201.973937" y="101.511602" style="stroke: #000000; stroke-linejoin: miter"/>
     <use xlink:href="#mf7f5f986d7" x="237.685937" y="101.511602" style="stroke: #000000; stroke-linejoin: miter"/>
     <use xlink:href="#mf7f5f986d7" x="273.397937" y="101.511602" style="stroke: #000000; stroke-linejoin: miter"/>
     <use xlink:href="#mf7f5f986d7" x="309.109938" y="101.511602" style="stroke: #000000; stroke-linejoin: miter"/>
     <use xlink:href="#mf7f5f986d7" x="344.821937" y="101.511602" style="stroke: #000000; stroke-linejoin: miter"/>
     <use xlink:href="#mf7f5f986d7" x="380.533937" y="101.511602" style="stroke: #000000; stroke-linejoin: miter"/>
     <use xlink:href="#mf7f5f986d7" x="416.245937" y="101.511602" style="stroke: #000000; stroke-linejoin: miter"/>
    </g>
   </g>
   <g id="line2d_15">
    <path d="M 59.125937 101.511602 
L 416.245937 101.511602 
" clip-path="url(#pd5efeee0f9)" style="fill: none; stroke: #b2b2b2; stroke-width: 1.5; stroke-linecap: square"/>
   </g>
   <g id="line2d_16">
    <path d="M 59.125937 101.511602 
L 63.243531 101.079619 
L 67.811096 100.828565 
L 73.114328 100.766875 
L 79.963889 100.923881 
L 106.119358 101.734135 
L 119.436363 101.720835 
L 129.749989 101.547698 
L 141.795646 101.160696 
L 144.766885 101.430369 
L 147.738123 101.926209 
L 151.20933 102.743628 
L 157.233944 104.196936 
L 159.201675 104.409099 
L 160.787288 104.362136 
L 162.1622 104.102231 
L 163.408549 103.641525 
L 164.579902 102.969944 
L 165.708401 102.062849 
L 166.826187 100.872354 
L 168.097534 99.173153 
L 169.643864 96.713783 
L 171.708017 92.978224 
L 178.032613 81.252979 
L 179.743217 78.695281 
L 181.189554 76.914914 
L 182.460901 75.687998 
L 183.600113 74.885246 
L 184.642904 74.412928 
L 185.621413 74.208129 
L 186.567781 74.235953 
L 187.510578 74.488183 
L 188.478373 74.981532 
L 189.499736 75.758508 
L 190.599665 76.884563 
L 191.799589 78.443939 
L 193.124504 80.545252 
L 194.613694 83.34222 
L 196.331442 87.064098 
L 198.43845 92.192638 
L 201.870373 101.236241 
L 205.520139 110.629403 
L 207.848561 116.032025 
L 209.730584 119.862168 
L 211.337624 122.650368 
L 212.748248 124.671375 
L 214.00531 126.100071 
L 215.140952 127.06709 
L 216.180171 127.669703 
L 217.147966 127.980848 
L 218.076478 128.048884 
L 218.997848 127.89215 
L 219.940645 127.501953 
L 220.937009 126.84166 
L 222.011941 125.853511 
L 223.20115 124.445903 
L 224.543921 122.496087 
L 226.118821 119.796104 
L 228.157976 115.823325 
L 233.061233 106.092653 
L 234.425432 103.97111 
L 235.503934 102.679684 
L 236.393163 101.94133 
L 237.146686 101.58933 
L 237.810929 101.51586 
L 238.46803 101.671548 
L 239.200126 102.083673 
L 240.053643 102.834517 
L 241.08572 104.057286 
L 242.403493 105.987869 
L 244.356939 109.290596 
L 248.313829 116.026815 
L 250.003006 118.424377 
L 251.431486 120.082317 
L 252.702833 121.230279 
L 253.863473 121.989359 
L 254.95269 122.442641 
L 255.99548 122.639579 
L 257.023985 122.608771 
L 258.073918 122.35226 
L 259.170277 121.850942 
L 260.348773 121.060456 
L 261.637976 119.919171 
L 263.080741 118.333599 
L 264.730635 116.175898 
L 266.687653 113.232283 
L 269.194635 109.031988 
L 273.969329 100.486998 
L 277.09413 95.129737 
L 279.190424 91.964651 
L 280.958168 89.682679 
L 282.533067 88.000259 
L 283.972261 86.778444 
L 285.311461 85.925529 
L 286.579237 85.375754 
L 287.807729 85.082368 
L 289.021938 85.020358 
L 290.25043 85.181183 
L 291.52892 85.576042 
L 292.889547 86.233895 
L 294.378737 87.207976 
L 296.060773 88.583691 
L 298.067787 90.527053 
L 300.892606 93.605064 
L 305.363749 98.467489 
L 307.30291 100.23095 
L 308.863525 101.361887 
L 310.245579 102.094325 
L 311.7062 102.615826 
L 313.306098 102.94829 
L 315.127409 103.09425 
L 317.323697 103.038215 
L 320.323506 102.721517 
L 330.697841 101.461573 
L 334.726155 101.298682 
L 339.461566 101.342181 
L 353.60709 101.616083 
L 374.437899 101.598379 
L 387.983461 101.349364 
L 403.786021 101.077006 
L 410.632011 101.195292 
L 416.217368 101.509367 
L 416.245937 101.511602 
L 416.245937 101.511602 
" clip-path="url(#pd5efeee0f9)" style="fill: none; stroke-dasharray: 9.6,2.4,1.5,2.4; stroke-dashoffset: 0; stroke: #000000; stroke-width: 1.5"/>
   </g>
   <g id="line2d_17">
    <path d="M 59.125937 101.511602 
L 60.611557 96.024309 
L 62.036466 91.582681 
L 63.400664 88.03164 
L 64.707723 85.227991 
L 65.954072 83.061972 
L 67.143282 81.424553 
L 68.282494 80.221361 
L 69.378853 79.377036 
L 70.446641 78.82906 
L 71.503717 78.53351 
L 72.571506 78.46512 
L 73.682149 78.619114 
L 74.864216 79.012223 
L 76.149848 79.680339 
L 77.578328 80.681017 
L 79.203224 82.101094 
L 81.099531 84.06639 
L 83.431525 86.821262 
L 86.742027 91.111468 
L 93.47731 99.892916 
L 96.248561 103.095822 
L 98.616267 105.503018 
L 100.755416 107.36904 
L 102.741003 108.812381 
L 104.615883 109.905656 
L 106.415768 110.701931 
L 108.169227 111.237372 
L 109.90483 111.536101 
L 111.647576 111.610339 
L 113.426034 111.46219 
L 115.268773 111.083333 
L 117.211506 110.453729 
L 119.297086 109.539587 
L 121.575512 108.292498 
L 124.114635 106.642198 
L 126.978738 104.508149 
L 130.164248 101.851944 
L 136.274571 96.639092 
L 137.992318 95.55884 
L 139.477937 94.879768 
L 140.82428 94.503115 
L 142.092056 94.376482 
L 143.320549 94.476963 
L 144.54547 94.801857 
L 145.806104 95.370522 
L 147.138162 96.221911 
L 148.59164 97.424043 
L 150.248677 99.095605 
L 152.362827 101.56814 
L 157.001816 107.093527 
L 158.355301 108.302287 
L 159.42309 108.973458 
L 160.315889 109.284147 
L 161.101554 109.328287 
L 161.826507 109.146885 
L 162.533605 108.735708 
L 163.251416 108.051762 
L 164.001368 107.015916 
L 164.790603 105.529617 
L 165.626264 103.461304 
L 166.511921 100.649743 
L 167.529714 96.62247 
L 168.779633 90.710967 
L 170.383102 81.975465 
L 172.840088 67.193798 
L 176.71484 43.994277 
L 178.586149 34.176289 
L 180.111051 27.301529 
L 181.41811 22.380628 
L 182.557323 18.91096 
L 183.550117 16.557286 
L 184.414347 15.042587 
L 185.164299 14.145309 
L 185.817829 13.687195 
L 186.399934 13.537469 
L 186.95347 13.623707 
L 187.521291 13.945964 
L 188.139109 14.567598 
L 188.82835 15.596353 
L 189.603301 17.176974 
L 190.471102 19.480444 
L 191.438897 22.713166 
L 192.510257 27.104128 
L 193.692325 32.930433 
L 194.985099 40.466334 
L 196.395723 50.054194 
L 197.924197 62.022443 
L 199.574091 76.754841 
L 201.334693 94.531623 
L 203.248856 116.20623 
L 206.609355 157.385239 
L 209.552024 192.239377 
L 211.448331 212.155209 
L 212.998232 226.20856 
L 214.326718 236.33232 
L 215.480216 243.511272 
L 216.487294 248.462301 
L 217.358667 251.708023 
L 218.105048 253.699036 
L 218.733579 254.800463 
L 219.258545 255.313122 
L 219.697803 255.455729 
L 220.101349 255.356358 
L 220.533464 255.00544 
L 221.029861 254.291041 
L 221.611966 253.031726 
L 222.290494 250.99539 
L 223.076158 247.886268 
L 223.976101 243.361179 
L 225.001035 237.006094 
L 226.172389 228.273562 
L 227.518731 216.480813 
L 229.107915 200.494953 
L 231.11493 177.895879 
L 237.939493 99.011948 
L 239.453681 85.359001 
L 240.932158 73.980944 
L 242.360638 64.652786 
L 243.728408 57.133945 
L 245.024754 51.199333 
L 246.238961 46.635427 
L 247.367461 43.218151 
L 248.403109 40.755659 
L 249.345905 39.057586 
L 250.195851 37.959359 
L 250.960088 37.314134 
L 251.660043 37.001608 
L 252.317144 36.945698 
L 252.974245 37.115229 
L 253.663486 37.530202 
L 254.417009 38.255021 
L 255.256241 39.385948 
L 256.199038 41.048232 
L 257.263256 43.398512 
L 258.46675 46.621861 
L 259.841662 50.969764 
L 261.452273 56.837369 
L 263.473573 65.099453 
L 270.119576 92.989546 
L 271.426635 97.160682 
L 272.472997 99.806871 
L 273.322942 101.398131 
L 274.037182 102.296811 
L 274.694283 102.787033 
L 275.315672 102.983982 
L 275.937061 102.948462 
L 276.604875 102.679767 
L 277.361969 102.122951 
L 278.258341 101.17126 
L 279.361842 99.653548 
L 280.811749 97.250453 
L 283.368728 92.494194 
L 285.982846 87.805465 
L 287.629169 85.297122 
L 288.996939 83.599357 
L 290.200434 82.444917 
L 291.286078 81.700069 
L 292.289585 81.273254 
L 293.243096 81.105322 
L 294.17875 81.166008 
L 295.12869 81.452971 
L 296.128625 81.993152 
L 297.207128 82.836467 
L 298.40348 84.065451 
L 299.760536 85.792291 
L 301.367576 88.216128 
L 303.481726 91.841133 
L 308.542117 100.672636 
L 310.059877 102.7855 
L 311.531211 104.456891 
L 313.006117 105.802253 
L 314.495307 106.863935 
L 316.009496 107.672635 
L 317.559397 108.249879 
L 319.170008 108.612262 
L 320.862757 108.763494 
L 322.666213 108.698761 
L 324.62323 108.402402 
L 326.805233 107.841386 
L 329.344357 106.950493 
L 332.708427 105.515628 
L 339.200869 102.706573 
L 341.518577 101.980051 
L 343.414885 101.611747 
L 345.071921 101.511688 
L 346.725387 101.64183 
L 348.625266 102.021626 
L 350.978686 102.731038 
L 354.792728 104.150914 
L 359.110309 105.689317 
L 361.756568 106.394005 
L 364.052849 106.77912 
L 366.177713 106.912334 
L 368.216869 106.818237 
L 370.223883 106.502551 
L 372.241611 105.958543 
L 374.312907 105.167112 
L 376.484197 104.095661 
L 378.823333 102.687786 
L 381.441022 100.844317 
L 384.61939 98.318997 
L 394.91516 89.911942 
L 397.104306 88.545194 
L 398.961329 87.639476 
L 400.60051 87.080458 
L 402.086129 86.803464 
L 403.464613 86.769579 
L 404.768101 86.958637 
L 406.028734 87.367061 
L 407.267941 88.004773 
L 408.507147 88.896673 
L 409.760638 90.078184 
L 411.042699 91.599495 
L 412.360472 93.517349 
L 413.721099 95.901531 
L 415.124581 98.82125 
L 416.245937 101.511602 
L 416.245937 101.511602 
" clip-path="url(#pd5efeee0f9)" style="fill: none; stroke-dasharray: 9.6,2.4,1.5,2.4; stroke-dashoffset: 0; stroke: #666666; stroke-width: 1.5"/>
   </g>
   <g id="patch_3">
    <path d="M 59.125937 267.552 
L 59.125937 1.44 
" style="fill: none; stroke: #000000; stroke-width: 0.8; stroke-linejoin: miter; stroke-linecap: square"/>
   </g>
   <g id="patch_4">
    <path d="M 416.245938 267.552 
L 416.245938 1.44 
" style="fill: none; stroke: #000000; stroke-width: 0.8; stroke-linejoin: miter; stroke-linecap: square"/>
   </g>
   <g id="patch_5">
    <path d="M 59.125937 267.552 
L 416.245937 267.552 
" style="fill: none; stroke: #000000; stroke-width: 0.8; stroke-linejoin: miter; stroke-linecap: square"/>
   </g>
   <g id="patch_6">
    <path d="M 59.125937 1.44 
L 416.245937 1.44 
" style="fill: none; stroke: #000000; stroke-width: 0.8; stroke-linejoin: miter; stroke-linecap: square"/>
   </g>
   <g id="legend_1">
    <g id="patch_7">
     <path d="M 345.545938 38.79625 
L 409.245938 38.79625 
Q 411.245938 38.79625 411.245938 36.79625 
L 411.245938 8.44 
Q 411.245938 6.44 409.245938 6.44 
L 345.545938 6.44 
Q 343.545938 6.44 343.545938 8.44 
L 343.545938 36.79625 
Q 343.545938 38.79625 345.545938 38.79625 
z
" style="fill: #ffffff; opacity: 0.8; stroke: #cccccc; stroke-linejoin: miter"/>
    </g>
    <g id="line2d_18">
     <path d="M 347.545938 14.538437 
L 357.545938 14.538437 
L 367.545938 14.538437 
" style="fill: none; stroke-dasharray: 9.6,2.4,1.5,2.4; stroke-dashoffset: 0; stroke: #000000; stroke-width: 1.5"/>
    </g>
    <g id="text_16">
     <!-- $S_3$ - - S -->
     <g transform="translate(375.545938 18.038437)scale(0.1 -0.1)">
      <defs>
       <path id="DejaVuSans-Oblique-53" d="M 3859 4513 
L 3738 3897 
Q 3422 4066 3111 4152 
Q 2800 4238 2509 4238 
Q 1944 4238 1609 3991 
Q 1275 3744 1275 3334 
Q 1275 3109 1398 2989 
Q 1522 2869 2034 2731 
L 2413 2638 
Q 3053 2472 3303 2217 
Q 3553 1963 3553 1503 
Q 3553 797 2998 353 
Q 2444 -91 1538 -91 
Q 1166 -91 791 -17 
Q 416 56 38 206 
L 166 856 
Q 513 641 861 531 
Q 1209 422 1556 422 
Q 2147 422 2503 684 
Q 2859 947 2859 1369 
Q 2859 1650 2717 1795 
Q 2575 1941 2106 2059 
L 1728 2156 
Q 1081 2325 845 2545 
Q 609 2766 609 3163 
Q 609 3859 1145 4304 
Q 1681 4750 2541 4750 
Q 2875 4750 3203 4690 
Q 3531 4631 3859 4513 
z
" transform="scale(0.015625)"/>
       <path id="DejaVuSans-33" d="M 2597 2516 
Q 3050 2419 3304 2112 
Q 3559 1806 3559 1356 
Q 3559 666 3084 287 
Q 2609 -91 1734 -91 
Q 1441 -91 1130 -33 
Q 819 25 488 141 
L 488 750 
Q 750 597 1062 519 
Q 1375 441 1716 441 
Q 2309 441 2620 675 
Q 2931 909 2931 1356 
Q 2931 1769 2642 2001 
Q 2353 2234 1838 2234 
L 1294 2234 
L 1294 2753 
L 1863 2753 
Q 2328 2753 2575 2939 
Q 2822 3125 2822 3475 
Q 2822 3834 2567 4026 
Q 2313 4219 1838 4219 
Q 1578 4219 1281 4162 
Q 984 4106 628 3988 
L 628 4550 
Q 988 4650 1302 4700 
Q 1616 4750 1894 4750 
Q 2613 4750 3031 4423 
Q 3450 4097 3450 3541 
Q 3450 3153 3228 2886 
Q 3006 2619 2597 2516 
z
" transform="scale(0.015625)"/>
       <path id="DejaVuSans-20" transform="scale(0.015625)"/>
       <path id="DejaVuSans-2d" d="M 313 2009 
L 1997 2009 
L 1997 1497 
L 313 1497 
L 313 2009 
z
" transform="scale(0.015625)"/>
       <path id="DejaVuSans-53" d="M 3425 4513 
L 3425 3897 
Q 3066 4069 2747 4153 
Q 2428 4238 2131 4238 
Q 1616 4238 1336 4038 
Q 1056 3838 1056 3469 
Q 1056 3159 1242 3001 
Q 1428 2844 1947 2747 
L 2328 2669 
Q 3034 2534 3370 2195 
Q 3706 1856 3706 1288 
Q 3706 609 3251 259 
Q 2797 -91 1919 -91 
Q 1588 -91 1214 -16 
Q 841 59 441 206 
L 441 856 
Q 825 641 1194 531 
Q 1563 422 1919 422 
Q 2459 422 2753 634 
Q 3047 847 3047 1241 
Q 3047 1584 2836 1778 
Q 2625 1972 2144 2069 
L 1759 2144 
Q 1053 2284 737 2584 
Q 422 2884 422 3419 
Q 422 4038 858 4394 
Q 1294 4750 2059 4750 
Q 2388 4750 2728 4690 
Q 3069 4631 3425 4513 
z
" transform="scale(0.015625)"/>
      </defs>
      <use xlink:href="#DejaVuSans-Oblique-53" transform="translate(0 0.78125)"/>
      <use xlink:href="#DejaVuSans-33" transform="translate(63.476562 -15.625)scale(0.7)"/>
      <use xlink:href="#DejaVuSans-20" transform="translate(110.74707 0.78125)"/>
      <use xlink:href="#DejaVuSans-2d" transform="translate(142.53418 0.78125)"/>
      <use xlink:href="#DejaVuSans-2d" transform="translate(178.618164 0.78125)"/>
      <use xlink:href="#DejaVuSans-20" transform="translate(214.702148 0.78125)"/>
      <use xlink:href="#DejaVuSans-53" transform="translate(246.489258 0.78125)"/>
     </g>
    </g>
    <g id="line2d_19">
     <path d="M 347.545938 29.216562 
L 357.545938 29.216562 
L 367.545938 29.216562 
" style="fill: none; stroke-dasharray: 9.6,2.4,1.5,2.4; stroke-dashoffset: 0; stroke: #666666; stroke-width: 1.5"/>
    </g>
    <g id="text_17">
     <!-- $S_3$ - - C -->
     <g transform="translate(375.545938 32.716562)scale(0.1 -0.1)">
      <defs>
       <path id="DejaVuSans-43" d="M 4122 4306 
L 4122 3641 
Q 3803 3938 3442 4084 
Q 3081 4231 2675 4231 
Q 1875 4231 1450 3742 
Q 1025 3253 1025 2328 
Q 1025 1406 1450 917 
Q 1875 428 2675 428 
Q 3081 428 3442 575 
Q 3803 722 4122 1019 
L 4122 359 
Q 3791 134 3420 21 
Q 3050 -91 2638 -91 
Q 1578 -91 968 557 
Q 359 1206 359 2328 
Q 359 3453 968 4101 
Q 1578 4750 2638 4750 
Q 3056 4750 3426 4639 
Q 3797 4528 4122 4306 
z
" transform="scale(0.015625)"/>
      </defs>
      <use xlink:href="#DejaVuSans-Oblique-53" transform="translate(0 0.78125)"/>
      <use xlink:href="#DejaVuSans-33" transform="translate(63.476562 -15.625)scale(0.7)"/>
      <use xlink:href="#DejaVuSans-20" transform="translate(110.74707 0.78125)"/>
      <use xlink:href="#DejaVuSans-2d" transform="translate(142.53418 0.78125)"/>
      <use xlink:href="#DejaVuSans-2d" transform="translate(178.618164 0.78125)"/>
      <use xlink:href="#DejaVuSans-20" transform="translate(214.702148 0.78125)"/>
      <use xlink:href="#DejaVuSans-43" transform="translate(246.489258 0.78125)"/>
     </g>
    </g>
   </g>
  </g>
 </g>
 <defs>
  <clipPath id="pd5efeee0f9">
   <rect x="59.125937" y="1.44" width="357.12" height="266.112"/>
  </clipPath>
 </defs>
</svg>
