<?xml version="1.0" encoding="utf-8" standalone="no"?>
<!DOCTYPE svg PUBLIC "-//W3C//DTD SVG 1.1//EN"
  "http://www.w3.org/Graphics/SVG/1.1/DTD/svg11.dtd">
<svg xmlns:xlink="http://www.w3.org/1999/xlink" width="399.7625pt" height="299.34825pt" viewBox="0 0 399.7625 299.34825" xmlns="http://www.w3.org/2000/svg" version="1.1">
 <metadata>
  <rdf:RDF xmlns:dc="http://purl.org/dc/elements/1.1/" xmlns:cc="http://creativecommons.org/ns#" xmlns:rdf="http://www.w3.org/1999/02/22-rdf-syntax-ns#">
   <cc:Work>
    <dc:type rdf:resource="http://purl.org/dc/dcmitype/StillImage"/>
    <dc:date>2022-05-21T13:43:19.401495</dc:date>
    <dc:format>image/svg+xml</dc:format>
    <dc:creator>
     <cc:Agent>
      <dc:title>Matplotlib v3.5.1, https://matplotlib.org/</dc:title>
     </cc:Agent>
    </dc:creator>
   </cc:Work>
  </rdf:RDF>
 </metadata>
 <defs>
  <style type="text/css">*{stroke-linejoin: round; stroke-linecap: butt}</style>
 </defs>
 <g id="figure_1">
  <g id="patch_1">
   <path d="M 0 299.34825 
L 399.7625 299.34825 
L 399.7625 0 
L 0 0 
z
" style="fill: #ffffff"/>
  </g>
  <g id="axes_1">
   <g id="patch_2">
    <path d="M 38.02125 267.552 
L 395.14125 267.552 
L 395.14125 1.44 
L 38.02125 1.44 
z
" style="fill: #ffffff"/>
   </g>
   <g id="matplotlib.axis_1">
    <g id="xtick_1">
     <g id="line2d_1">
      <defs>
       <path id="me15e129865" d="M 0 0 
L 0 3.5 
" style="stroke: #000000; stroke-width: 0.8"/>
      </defs>
      <g>
       <use xlink:href="#me15e129865" x="38.02125" y="267.552" style="stroke: #000000; stroke-width: 0.8"/>
      </g>
     </g>
     <g id="text_1">
      <!-- −6 -->
      <g transform="translate(30.650156 282.150437)scale(0.1 -0.1)">
       <defs>
        <path id="DejaVuSans-2212" d="M 678 2272 
L 4684 2272 
L 4684 1741 
L 678 1741 
L 678 2272 
z
" transform="scale(0.015625)"/>
        <path id="DejaVuSans-36" d="M 2113 2584 
Q 1688 2584 1439 2293 
Q 1191 2003 1191 1497 
Q 1191 994 1439 701 
Q 1688 409 2113 409 
Q 2538 409 2786 701 
Q 3034 994 3034 1497 
Q 3034 2003 2786 2293 
Q 2538 2584 2113 2584 
z
M 3366 4563 
L 3366 3988 
Q 3128 4100 2886 4159 
Q 2644 4219 2406 4219 
Q 1781 4219 1451 3797 
Q 1122 3375 1075 2522 
Q 1259 2794 1537 2939 
Q 1816 3084 2150 3084 
Q 2853 3084 3261 2657 
Q 3669 2231 3669 1497 
Q 3669 778 3244 343 
Q 2819 -91 2113 -91 
Q 1303 -91 875 529 
Q 447 1150 447 2328 
Q 447 3434 972 4092 
Q 1497 4750 2381 4750 
Q 2619 4750 2861 4703 
Q 3103 4656 3366 4563 
z
" transform="scale(0.015625)"/>
       </defs>
       <use xlink:href="#DejaVuSans-2212"/>
       <use xlink:href="#DejaVuSans-36" x="83.789062"/>
      </g>
     </g>
    </g>
    <g id="xtick_2">
     <g id="line2d_2">
      <g>
       <use xlink:href="#me15e129865" x="97.54125" y="267.552" style="stroke: #000000; stroke-width: 0.8"/>
      </g>
     </g>
     <g id="text_2">
      <!-- −4 -->
      <g transform="translate(90.170156 282.150437)scale(0.1 -0.1)">
       <defs>
        <path id="DejaVuSans-34" d="M 2419 4116 
L 825 1625 
L 2419 1625 
L 2419 4116 
z
M 2253 4666 
L 3047 4666 
L 3047 1625 
L 3713 1625 
L 3713 1100 
L 3047 1100 
L 3047 0 
L 2419 0 
L 2419 1100 
L 313 1100 
L 313 1709 
L 2253 4666 
z
" transform="scale(0.015625)"/>
       </defs>
       <use xlink:href="#DejaVuSans-2212"/>
       <use xlink:href="#DejaVuSans-34" x="83.789062"/>
      </g>
     </g>
    </g>
    <g id="xtick_3">
     <g id="line2d_3">
      <g>
       <use xlink:href="#me15e129865" x="157.06125" y="267.552" style="stroke: #000000; stroke-width: 0.8"/>
      </g>
     </g>
     <g id="text_3">
      <!-- −2 -->
      <g transform="translate(149.690156 282.150437)scale(0.1 -0.1)">
       <defs>
        <path id="DejaVuSans-32" d="M 1228 531 
L 3431 531 
L 3431 0 
L 469 0 
L 469 531 
Q 828 903 1448 1529 
Q 2069 2156 2228 2338 
Q 2531 2678 2651 2914 
Q 2772 3150 2772 3378 
Q 2772 3750 2511 3984 
Q 2250 4219 1831 4219 
Q 1534 4219 1204 4116 
Q 875 4013 500 3803 
L 500 4441 
Q 881 4594 1212 4672 
Q 1544 4750 1819 4750 
Q 2544 4750 2975 4387 
Q 3406 4025 3406 3419 
Q 3406 3131 3298 2873 
Q 3191 2616 2906 2266 
Q 2828 2175 2409 1742 
Q 1991 1309 1228 531 
z
" transform="scale(0.015625)"/>
       </defs>
       <use xlink:href="#DejaVuSans-2212"/>
       <use xlink:href="#DejaVuSans-32" x="83.789062"/>
      </g>
     </g>
    </g>
    <g id="xtick_4">
     <g id="line2d_4">
      <g>
       <use xlink:href="#me15e129865" x="216.58125" y="267.552" style="stroke: #000000; stroke-width: 0.8"/>
      </g>
     </g>
     <g id="text_4">
      <!-- 0 -->
      <g transform="translate(213.4 282.150437)scale(0.1 -0.1)">
       <defs>
        <path id="DejaVuSans-30" d="M 2034 4250 
Q 1547 4250 1301 3770 
Q 1056 3291 1056 2328 
Q 1056 1369 1301 889 
Q 1547 409 2034 409 
Q 2525 409 2770 889 
Q 3016 1369 3016 2328 
Q 3016 3291 2770 3770 
Q 2525 4250 2034 4250 
z
M 2034 4750 
Q 2819 4750 3233 4129 
Q 3647 3509 3647 2328 
Q 3647 1150 3233 529 
Q 2819 -91 2034 -91 
Q 1250 -91 836 529 
Q 422 1150 422 2328 
Q 422 3509 836 4129 
Q 1250 4750 2034 4750 
z
" transform="scale(0.015625)"/>
       </defs>
       <use xlink:href="#DejaVuSans-30"/>
      </g>
     </g>
    </g>
    <g id="xtick_5">
     <g id="line2d_5">
      <g>
       <use xlink:href="#me15e129865" x="276.10125" y="267.552" style="stroke: #000000; stroke-width: 0.8"/>
      </g>
     </g>
     <g id="text_5">
      <!-- 2 -->
      <g transform="translate(272.92 282.150437)scale(0.1 -0.1)">
       <use xlink:href="#DejaVuSans-32"/>
      </g>
     </g>
    </g>
    <g id="xtick_6">
     <g id="line2d_6">
      <g>
       <use xlink:href="#me15e129865" x="335.62125" y="267.552" style="stroke: #000000; stroke-width: 0.8"/>
      </g>
     </g>
     <g id="text_6">
      <!-- 4 -->
      <g transform="translate(332.44 282.150437)scale(0.1 -0.1)">
       <use xlink:href="#DejaVuSans-34"/>
      </g>
     </g>
    </g>
    <g id="xtick_7">
     <g id="line2d_7">
      <g>
       <use xlink:href="#me15e129865" x="395.14125" y="267.552" style="stroke: #000000; stroke-width: 0.8"/>
      </g>
     </g>
     <g id="text_7">
      <!-- 6 -->
      <g transform="translate(391.96 282.150437)scale(0.1 -0.1)">
       <use xlink:href="#DejaVuSans-36"/>
      </g>
     </g>
    </g>
    <g id="text_8">
     <!-- $x$ -->
     <g transform="translate(213.58125 295.828562)scale(0.1 -0.1)">
      <defs>
       <path id="DejaVuSans-Oblique-78" d="M 3841 3500 
L 2234 1784 
L 3219 0 
L 2559 0 
L 1819 1388 
L 531 0 
L -166 0 
L 1556 1844 
L 641 3500 
L 1300 3500 
L 1972 2234 
L 3144 3500 
L 3841 3500 
z
" transform="scale(0.015625)"/>
      </defs>
      <use xlink:href="#DejaVuSans-Oblique-78" transform="translate(0 0.3125)"/>
     </g>
    </g>
   </g>
   <g id="matplotlib.axis_2">
    <g id="ytick_1">
     <g id="line2d_8">
      <defs>
       <path id="m08fb938ecf" d="M 0 0 
L -3.5 0 
" style="stroke: #000000; stroke-width: 0.8"/>
      </defs>
      <g>
       <use xlink:href="#m08fb938ecf" x="38.02125" y="255.456" style="stroke: #000000; stroke-width: 0.8"/>
      </g>
     </g>
     <g id="text_9">
      <!-- 0.0 -->
      <g transform="translate(15.118125 259.255219)scale(0.1 -0.1)">
       <defs>
        <path id="DejaVuSans-2e" d="M 684 794 
L 1344 794 
L 1344 0 
L 684 0 
L 684 794 
z
" transform="scale(0.015625)"/>
       </defs>
       <use xlink:href="#DejaVuSans-30"/>
       <use xlink:href="#DejaVuSans-2e" x="63.623047"/>
       <use xlink:href="#DejaVuSans-30" x="95.410156"/>
      </g>
     </g>
    </g>
    <g id="ytick_2">
     <g id="line2d_9">
      <g>
       <use xlink:href="#m08fb938ecf" x="38.02125" y="207.072" style="stroke: #000000; stroke-width: 0.8"/>
      </g>
     </g>
     <g id="text_10">
      <!-- 0.2 -->
      <g transform="translate(15.118125 210.871219)scale(0.1 -0.1)">
       <use xlink:href="#DejaVuSans-30"/>
       <use xlink:href="#DejaVuSans-2e" x="63.623047"/>
       <use xlink:href="#DejaVuSans-32" x="95.410156"/>
      </g>
     </g>
    </g>
    <g id="ytick_3">
     <g id="line2d_10">
      <g>
       <use xlink:href="#m08fb938ecf" x="38.02125" y="158.688" style="stroke: #000000; stroke-width: 0.8"/>
      </g>
     </g>
     <g id="text_11">
      <!-- 0.4 -->
      <g transform="translate(15.118125 162.487219)scale(0.1 -0.1)">
       <use xlink:href="#DejaVuSans-30"/>
       <use xlink:href="#DejaVuSans-2e" x="63.623047"/>
       <use xlink:href="#DejaVuSans-34" x="95.410156"/>
      </g>
     </g>
    </g>
    <g id="ytick_4">
     <g id="line2d_11">
      <g>
       <use xlink:href="#m08fb938ecf" x="38.02125" y="110.304" style="stroke: #000000; stroke-width: 0.8"/>
      </g>
     </g>
     <g id="text_12">
      <!-- 0.6 -->
      <g transform="translate(15.118125 114.103219)scale(0.1 -0.1)">
       <use xlink:href="#DejaVuSans-30"/>
       <use xlink:href="#DejaVuSans-2e" x="63.623047"/>
       <use xlink:href="#DejaVuSans-36" x="95.410156"/>
      </g>
     </g>
    </g>
    <g id="ytick_5">
     <g id="line2d_12">
      <g>
       <use xlink:href="#m08fb938ecf" x="38.02125" y="61.92" style="stroke: #000000; stroke-width: 0.8"/>
      </g>
     </g>
     <g id="text_13">
      <!-- 0.8 -->
      <g transform="translate(15.118125 65.719219)scale(0.1 -0.1)">
       <defs>
        <path id="DejaVuSans-38" d="M 2034 2216 
Q 1584 2216 1326 1975 
Q 1069 1734 1069 1313 
Q 1069 891 1326 650 
Q 1584 409 2034 409 
Q 2484 409 2743 651 
Q 3003 894 3003 1313 
Q 3003 1734 2745 1975 
Q 2488 2216 2034 2216 
z
M 1403 2484 
Q 997 2584 770 2862 
Q 544 3141 544 3541 
Q 544 4100 942 4425 
Q 1341 4750 2034 4750 
Q 2731 4750 3128 4425 
Q 3525 4100 3525 3541 
Q 3525 3141 3298 2862 
Q 3072 2584 2669 2484 
Q 3125 2378 3379 2068 
Q 3634 1759 3634 1313 
Q 3634 634 3220 271 
Q 2806 -91 2034 -91 
Q 1263 -91 848 271 
Q 434 634 434 1313 
Q 434 1759 690 2068 
Q 947 2378 1403 2484 
z
M 1172 3481 
Q 1172 3119 1398 2916 
Q 1625 2713 2034 2713 
Q 2441 2713 2670 2916 
Q 2900 3119 2900 3481 
Q 2900 3844 2670 4047 
Q 2441 4250 2034 4250 
Q 1625 4250 1398 4047 
Q 1172 3844 1172 3481 
z
" transform="scale(0.015625)"/>
       </defs>
       <use xlink:href="#DejaVuSans-30"/>
       <use xlink:href="#DejaVuSans-2e" x="63.623047"/>
       <use xlink:href="#DejaVuSans-38" x="95.410156"/>
      </g>
     </g>
    </g>
    <g id="ytick_6">
     <g id="line2d_13">
      <g>
       <use xlink:href="#m08fb938ecf" x="38.02125" y="13.536" style="stroke: #000000; stroke-width: 0.8"/>
      </g>
     </g>
     <g id="text_14">
      <!-- 1.0 -->
      <g transform="translate(15.118125 17.335219)scale(0.1 -0.1)">
       <defs>
        <path id="DejaVuSans-31" d="M 794 531 
L 1825 531 
L 1825 4091 
L 703 3866 
L 703 4441 
L 1819 4666 
L 2450 4666 
L 2450 531 
L 3481 531 
L 3481 0 
L 794 0 
L 794 531 
z
" transform="scale(0.015625)"/>
       </defs>
       <use xlink:href="#DejaVuSans-31"/>
       <use xlink:href="#DejaVuSans-2e" x="63.623047"/>
       <use xlink:href="#DejaVuSans-30" x="95.410156"/>
      </g>
     </g>
    </g>
    <g id="text_15">
     <!-- $y$ -->
     <g transform="translate(9.018125 137.496)rotate(-90)scale(0.1 -0.1)">
      <defs>
       <path id="DejaVuSans-Oblique-79" d="M 1588 -325 
Q 1188 -997 936 -1164 
Q 684 -1331 294 -1331 
L -159 -1331 
L -63 -850 
L 269 -850 
Q 509 -850 678 -719 
Q 847 -588 1056 -206 
L 1234 128 
L 459 3500 
L 1069 3500 
L 1650 819 
L 3256 3500 
L 3859 3500 
L 1588 -325 
z
" transform="scale(0.015625)"/>
      </defs>
      <use xlink:href="#DejaVuSans-Oblique-79" transform="translate(0 0.3125)"/>
     </g>
    </g>
   </g>
   <g id="line2d_14">
    <path d="M 38.02125 234.954305 
L 44.028008 232.944104 
L 49.674076 230.821971 
L 55.002306 228.583456 
L 60.055554 226.220668 
L 64.86596 223.727098 
L 69.462095 221.095212 
L 73.876098 218.311985 
L 78.125826 215.369965 
L 82.236277 212.254174 
L 86.228879 208.948386 
L 90.117916 205.43909 
L 93.921244 201.706795 
L 97.653148 197.732093 
L 101.331484 193.488232 
L 104.970536 188.948385 
L 108.584591 184.082079 
L 112.191503 178.849748 
L 115.809128 173.206626 
L 119.455324 167.103019 
L 123.158658 160.465252 
L 126.947701 153.21187 
L 130.87245 145.21142 
L 135.004328 136.274667 
L 139.4719 126.06943 
L 144.571573 113.845121 
L 151.510415 96.577539 
L 161.431208 71.933889 
L 165.955919 61.319862 
L 169.677109 53.139692 
L 172.955471 46.455167 
L 175.937423 40.867388 
L 178.705103 36.142531 
L 181.308508 32.128236 
L 183.78692 28.706956 
L 186.16534 25.795158 
L 188.472335 23.316316 
L 190.725762 21.216501 
L 192.947048 19.446491 
L 195.161192 17.963745 
L 197.389621 16.737058 
L 199.668047 15.736153 
L 202.032181 14.941137 
L 204.539164 14.334752 
L 207.274703 13.905356 
L 210.42093 13.643241 
L 214.531381 13.539953 
L 221.973762 13.607943 
L 225.487823 13.859812 
L 228.369781 14.285505 
L 230.944616 14.888313 
L 233.333749 15.67458 
L 235.612175 16.658346 
L 237.822748 17.855896 
L 240.00118 19.290977 
L 242.172469 20.990576 
L 244.358044 22.987101 
L 246.582901 25.325125 
L 248.864898 28.051063 
L 251.225461 31.223325 
L 253.689589 34.914449 
L 256.285852 39.212552 
L 259.04996 44.228293 
L 262.035484 50.117723 
L 265.32813 57.118861 
L 269.07789 65.633175 
L 273.627599 76.543845 
L 280.484303 93.640407 
L 289.994408 117.261251 
L 295.211932 129.6033 
L 299.743784 139.764278 
L 303.929231 148.612245 
L 307.907548 156.509994 
L 311.750159 163.650834 
L 315.507061 170.168956 
L 319.210396 176.153864 
L 322.88516 181.674412 
L 326.552783 186.786664 
L 330.231119 191.535437 
L 333.934453 195.95606 
L 337.680642 200.083678 
L 341.48397 203.944946 
L 345.358722 207.563069 
L 349.322754 210.961041 
L 353.390351 214.15537 
L 357.579368 217.162644 
L 361.911234 219.998767 
L 366.407375 222.676373 
L 371.092789 225.207222 
L 375.992476 227.600173 
L 381.138575 229.864757 
L 386.563228 232.007506 
L 392.305717 234.035047 
L 395.14125 234.954305 
L 395.14125 234.954305 
" clip-path="url(#pae9282419a)" style="fill: none; stroke: #000000; stroke-opacity: 0.2; stroke-width: 1.5; stroke-linecap: square"/>
   </g>
   <g id="LineCollection_1">
    <path d="M 38.02125 255.456 
L 38.02125 234.954305 
" clip-path="url(#pae9282419a)" style="fill: none; stroke: #000000; stroke-width: 1.5"/>
    <path d="M 97.54125 255.456 
L 97.54125 197.856 
" clip-path="url(#pae9282419a)" style="fill: none; stroke: #000000; stroke-width: 1.5"/>
    <path d="M 157.06125 255.456 
L 157.06125 82.656 
" clip-path="url(#pae9282419a)" style="fill: none; stroke: #000000; stroke-width: 1.5"/>
    <path d="M 216.58125 255.456 
L 216.58125 13.536 
" clip-path="url(#pae9282419a)" style="fill: none; stroke: #000000; stroke-width: 1.5"/>
    <path d="M 276.10125 255.456 
L 276.10125 82.656 
" clip-path="url(#pae9282419a)" style="fill: none; stroke: #000000; stroke-width: 1.5"/>
    <path d="M 335.62125 255.456 
L 335.62125 197.856 
" clip-path="url(#pae9282419a)" style="fill: none; stroke: #000000; stroke-width: 1.5"/>
    <path d="M 395.14125 255.456 
L 395.14125 234.954305 
" clip-path="url(#pae9282419a)" style="fill: none; stroke: #000000; stroke-width: 1.5"/>
   </g>
   <g id="line2d_15">
    <defs>
     <path id="m46dbd194b3" d="M -0 4.242641 
L 4.242641 0 
L 0 -4.242641 
L -4.242641 -0 
z
" style="stroke: #000000; stroke-linejoin: miter"/>
    </defs>
    <g clip-path="url(#pae9282419a)">
     <use xlink:href="#m46dbd194b3" x="38.02125" y="234.954305" style="stroke: #000000; stroke-linejoin: miter"/>
     <use xlink:href="#m46dbd194b3" x="97.54125" y="197.856" style="stroke: #000000; stroke-linejoin: miter"/>
     <use xlink:href="#m46dbd194b3" x="157.06125" y="82.656" style="stroke: #000000; stroke-linejoin: miter"/>
     <use xlink:href="#m46dbd194b3" x="216.58125" y="13.536" style="stroke: #000000; stroke-linejoin: miter"/>
     <use xlink:href="#m46dbd194b3" x="276.10125" y="82.656" style="stroke: #000000; stroke-linejoin: miter"/>
     <use xlink:href="#m46dbd194b3" x="335.62125" y="197.856" style="stroke: #000000; stroke-linejoin: miter"/>
     <use xlink:href="#m46dbd194b3" x="395.14125" y="234.954305" style="stroke: #000000; stroke-linejoin: miter"/>
    </g>
   </g>
   <g id="line2d_16">
    <path d="M 38.02125 255.456 
L 395.14125 255.456 
" clip-path="url(#pae9282419a)" style="fill: none; stroke: #b2b2b2; stroke-width: 1.5; stroke-linecap: square"/>
   </g>
   <g id="line2d_17">
    <path d="M 38.02125 234.954305 
L 97.638863 197.667072 
L 157.370754 82.296576 
L 216.58125 13.536 
L 216.652674 13.618944 
L 276.320284 83.079936 
L 335.802191 197.968779 
L 395.14125 234.954305 
L 395.14125 234.954305 
" clip-path="url(#pae9282419a)" style="fill: none; stroke-dasharray: 4.5,1.5,1.5,1.5,1.5,1.5; stroke-dashoffset: 0; stroke: #666666; stroke-width: 1.5"/>
   </g>
   <g id="line2d_18">
    <path d="M 38.02125 234.954305 
L 41.196047 234.947348 
L 44.370844 234.718179 
L 47.556354 234.2649 
L 50.756149 233.584367 
L 53.977372 232.67128 
L 57.230735 231.516889 
L 60.51981 230.112625 
L 63.85174 228.446886 
L 67.233666 226.505864 
L 70.66916 224.275922 
L 74.165365 221.739432 
L 77.725852 218.879347 
L 81.357762 215.673941 
L 85.061096 212.106056 
L 88.839426 208.154316 
L 92.699893 203.791604 
L 96.642498 198.996948 
L 100.66724 193.748931 
L 104.781263 188.015409 
L 108.984565 181.772092 
L 113.277148 174.994158 
L 117.662581 167.650108 
L 122.144437 159.706505 
L 126.722716 151.134766 
L 131.397416 141.905696 
L 136.16854 131.989481 
L 141.039656 121.347702 
L 146.010767 109.948144 
L 151.081871 97.757931 
L 156.25654 84.734333 
L 158.206415 80.021849 
L 161.97046 71.724185 
L 165.63094 64.185079 
L 169.191426 57.353548 
L 172.651919 51.187915 
L 176.012418 45.64767 
L 179.276495 40.688278 
L 182.44772 36.268138 
L 185.526095 32.352779 
L 188.51876 28.900919 
L 191.425717 25.88253 
L 194.250536 23.265333 
L 197.00036 21.016708 
L 199.67876 19.110158 
L 202.289308 17.521294 
L 204.842716 16.224473 
L 207.346127 15.200038 
L 209.806684 14.431449 
L 212.2351 13.904542 
L 214.638517 13.609638 
L 217.02765 13.539888 
L 219.413212 13.692478 
L 221.805916 14.068592 
L 224.216476 14.673422 
L 226.655605 15.516215 
L 229.130447 16.608626 
L 231.648143 17.9652 
L 234.219407 19.605938 
L 236.84781 21.54979 
L 239.544066 23.823934 
L 242.308175 26.449788 
L 245.147279 29.457267 
L 248.06852 32.880073 
L 251.0719 36.746294 
L 254.160988 41.090045 
L 257.339356 45.948003 
L 260.610575 51.359519 
L 263.974645 57.360153 
L 267.435138 63.993556 
L 270.992053 71.29879 
L 274.648962 79.324095 
L 276.838108 84.55964 
L 282.116341 97.84576 
L 287.287439 110.266572 
L 292.354972 121.866695 
L 297.322511 132.688423 
L 302.186485 142.757409 
L 306.950466 152.113794 
L 311.614453 160.789086 
L 316.178447 168.814129 
L 320.646018 176.224855 
L 325.017167 183.049755 
L 329.291893 189.316704 
L 333.473768 195.057703 
L 337.566364 200.302849 
L 341.569679 205.076306 
L 345.487285 209.405508 
L 349.322754 213.316151 
L 353.076085 216.829072 
L 356.754421 219.970471 
L 360.357762 222.758594 
L 363.89325 225.216 
L 367.364456 227.360625 
L 370.778524 229.210829 
L 374.139023 230.781051 
L 377.453096 232.085749 
L 380.724316 233.136116 
L 383.963394 233.943714 
L 387.173903 234.51594 
L 390.366556 234.859636 
L 393.544924 234.978583 
L 395.14125 234.954305 
L 395.14125 234.954305 
" clip-path="url(#pae9282419a)" style="fill: none; stroke-dasharray: 5.55,2.4; stroke-dashoffset: 0; stroke: #999999; stroke-width: 1.5"/>
   </g>
   <g id="line2d_19">
    <path d="M 38.02125 234.954305 
L 40.235394 236.380832 
L 42.413826 237.522589 
L 44.563688 238.400604 
L 46.695695 239.032875 
L 48.820559 239.432265 
L 50.952565 239.606966 
L 53.098856 239.559733 
L 55.277288 239.288665 
L 57.498575 238.78688 
L 59.777 238.042254 
L 62.123279 237.03915 
L 64.551695 235.75619 
L 67.072962 234.169413 
L 69.701365 232.248634 
L 72.447618 229.962105 
L 75.326005 227.27154 
L 78.350812 224.134498 
L 81.536322 220.504843 
L 84.900392 216.328747 
L 88.46445 211.543735 
L 92.257064 206.072755 
L 96.310376 199.828056 
L 100.674383 192.687973 
L 105.413365 184.498905 
L 110.638031 175.015909 
L 116.537653 163.833524 
L 123.530063 150.083442 
L 133.100879 130.728425 
L 150.878312 94.723167 
L 158.006428 80.84797 
L 163.881052 69.883726 
L 168.987868 60.811357 
L 173.57686 53.101971 
L 177.77302 46.478007 
L 181.651343 40.76243 
L 185.265397 35.824032 
L 188.650895 31.566645 
L 191.836405 27.910744 
L 194.843356 24.791448 
L 197.693173 22.149673 
L 200.396572 19.941174 
L 202.971407 18.119663 
L 205.431964 16.646979 
L 207.788956 15.491449 
L 210.056668 14.623839 
L 212.249384 14.020215 
L 214.381391 13.662052 
L 216.4634 13.536365 
L 218.527554 13.634779 
L 220.623848 13.958244 
L 222.77014 14.516245 
L 224.977141 15.322286 
L 227.255567 16.393735 
L 229.623272 17.756182 
L 232.090972 19.436592 
L 234.672949 21.468353 
L 237.379919 23.886166 
L 240.226165 26.73133 
L 243.229544 30.053165 
L 246.407912 33.905739 
L 249.786268 38.356726 
L 253.386037 43.474052 
L 257.246504 49.355896 
L 261.417666 56.124902 
L 265.970946 63.947661 
L 271.024194 73.083047 
L 276.795253 83.990351 
L 283.684098 97.504497 
L 292.929935 116.172365 
L 312.13942 155.064074 
L 319.156828 168.687409 
L 325.042165 179.640341 
L 330.248975 188.87168 
L 334.970101 196.79918 
L 339.316252 203.671356 
L 343.355279 209.649905 
L 347.130037 214.847896 
L 350.67981 219.364758 
L 354.026024 223.269674 
L 357.193679 226.630909 
L 360.200629 229.503111 
L 363.06116 231.933124 
L 365.789557 233.963763 
L 368.396533 235.631303 
L 370.896373 236.970496 
L 373.303362 238.011146 
L 375.628213 238.776988 
L 377.885212 239.288665 
L 380.085071 239.561292 
L 382.245647 239.605874 
L 384.374082 239.427912 
L 386.488232 239.027683 
L 388.59524 238.40186 
L 390.709391 237.540831 
L 392.841397 236.430621 
L 395.001973 235.05206 
L 395.14125 234.954305 
L 395.14125 234.954305 
" clip-path="url(#pae9282419a)" style="fill: none; stroke-dasharray: 9.6,2.4,1.5,2.4; stroke-dashoffset: 0; stroke: #b2b2b2; stroke-width: 1.5"/>
   </g>
   <g id="patch_3">
    <path d="M 38.02125 267.552 
L 38.02125 1.44 
" style="fill: none; stroke: #000000; stroke-width: 0.8; stroke-linejoin: miter; stroke-linecap: square"/>
   </g>
   <g id="patch_4">
    <path d="M 395.14125 267.552 
L 395.14125 1.44 
" style="fill: none; stroke: #000000; stroke-width: 0.8; stroke-linejoin: miter; stroke-linecap: square"/>
   </g>
   <g id="patch_5">
    <path d="M 38.02125 267.552 
L 395.14125 267.552 
" style="fill: none; stroke: #000000; stroke-width: 0.8; stroke-linejoin: miter; stroke-linecap: square"/>
   </g>
   <g id="patch_6">
    <path d="M 38.02125 1.44 
L 395.14125 1.44 
" style="fill: none; stroke: #000000; stroke-width: 0.8; stroke-linejoin: miter; stroke-linecap: square"/>
   </g>
   <g id="legend_1">
    <g id="patch_7">
     <path d="M 343.84125 68.1525 
L 388.14125 68.1525 
Q 390.14125 68.1525 390.14125 66.1525 
L 390.14125 8.44 
Q 390.14125 6.44 388.14125 6.44 
L 343.84125 6.44 
Q 341.84125 6.44 341.84125 8.44 
L 341.84125 66.1525 
Q 341.84125 68.1525 343.84125 68.1525 
z
" style="fill: #ffffff; opacity: 0.8; stroke: #cccccc; stroke-linejoin: miter"/>
    </g>
    <g id="line2d_20">
     <path d="M 345.84125 14.538437 
L 355.84125 14.538437 
L 365.84125 14.538437 
" style="fill: none; stroke: #000000; stroke-opacity: 0.2; stroke-width: 1.5; stroke-linecap: square"/>
    </g>
    <g id="text_16">
     <!-- $h_1$ -->
     <g transform="translate(373.84125 18.038437)scale(0.1 -0.1)">
      <defs>
       <path id="DejaVuSans-Oblique-68" d="M 3566 2113 
L 3156 0 
L 2578 0 
L 2988 2091 
Q 3016 2238 3031 2350 
Q 3047 2463 3047 2528 
Q 3047 2791 2881 2937 
Q 2716 3084 2419 3084 
Q 1956 3084 1617 2771 
Q 1278 2459 1178 1941 
L 800 0 
L 225 0 
L 1172 4863 
L 1747 4863 
L 1375 2950 
Q 1594 3244 1934 3414 
Q 2275 3584 2650 3584 
Q 3113 3584 3367 3334 
Q 3622 3084 3622 2631 
Q 3622 2519 3608 2391 
Q 3594 2263 3566 2113 
z
" transform="scale(0.015625)"/>
      </defs>
      <use xlink:href="#DejaVuSans-Oblique-68" transform="translate(0 0.015625)"/>
      <use xlink:href="#DejaVuSans-31" transform="translate(63.378906 -16.390625)scale(0.7)"/>
     </g>
    </g>
    <g id="line2d_21">
     <path d="M 345.84125 29.216562 
L 355.84125 29.216562 
L 365.84125 29.216562 
" style="fill: none; stroke-dasharray: 4.5,1.5,1.5,1.5,1.5,1.5; stroke-dashoffset: 0; stroke: #666666; stroke-width: 1.5"/>
    </g>
    <g id="text_17">
     <!-- $N_1$ -->
     <g transform="translate(373.84125 32.716562)scale(0.1 -0.1)">
      <defs>
       <path id="DejaVuSans-Oblique-4e" d="M 1081 4666 
L 1931 4666 
L 3219 666 
L 4000 4666 
L 4616 4666 
L 3706 0 
L 2853 0 
L 1569 4025 
L 788 0 
L 172 0 
L 1081 4666 
z
" transform="scale(0.015625)"/>
      </defs>
      <use xlink:href="#DejaVuSans-Oblique-4e" transform="translate(0 0.09375)"/>
      <use xlink:href="#DejaVuSans-31" transform="translate(74.804688 -16.3125)scale(0.7)"/>
     </g>
    </g>
    <g id="line2d_22">
     <path d="M 345.84125 43.894687 
L 355.84125 43.894687 
L 365.84125 43.894687 
" style="fill: none; stroke-dasharray: 5.55,2.4; stroke-dashoffset: 0; stroke: #999999; stroke-width: 1.5"/>
    </g>
    <g id="text_18">
     <!-- $N_2$ -->
     <g transform="translate(373.84125 47.394687)scale(0.1 -0.1)">
      <use xlink:href="#DejaVuSans-Oblique-4e" transform="translate(0 0.09375)"/>
      <use xlink:href="#DejaVuSans-32" transform="translate(74.804688 -16.3125)scale(0.7)"/>
     </g>
    </g>
    <g id="line2d_23">
     <path d="M 345.84125 58.572812 
L 355.84125 58.572812 
L 365.84125 58.572812 
" style="fill: none; stroke-dasharray: 9.6,2.4,1.5,2.4; stroke-dashoffset: 0; stroke: #b2b2b2; stroke-width: 1.5"/>
    </g>
    <g id="text_19">
     <!-- $S_3$ -->
     <g transform="translate(373.84125 62.072812)scale(0.1 -0.1)">
      <defs>
       <path id="DejaVuSans-Oblique-53" d="M 3859 4513 
L 3738 3897 
Q 3422 4066 3111 4152 
Q 2800 4238 2509 4238 
Q 1944 4238 1609 3991 
Q 1275 3744 1275 3334 
Q 1275 3109 1398 2989 
Q 1522 2869 2034 2731 
L 2413 2638 
Q 3053 2472 3303 2217 
Q 3553 1963 3553 1503 
Q 3553 797 2998 353 
Q 2444 -91 1538 -91 
Q 1166 -91 791 -17 
Q 416 56 38 206 
L 166 856 
Q 513 641 861 531 
Q 1209 422 1556 422 
Q 2147 422 2503 684 
Q 2859 947 2859 1369 
Q 2859 1650 2717 1795 
Q 2575 1941 2106 2059 
L 1728 2156 
Q 1081 2325 845 2545 
Q 609 2766 609 3163 
Q 609 3859 1145 4304 
Q 1681 4750 2541 4750 
Q 2875 4750 3203 4690 
Q 3531 4631 3859 4513 
z
" transform="scale(0.015625)"/>
       <path id="DejaVuSans-33" d="M 2597 2516 
Q 3050 2419 3304 2112 
Q 3559 1806 3559 1356 
Q 3559 666 3084 287 
Q 2609 -91 1734 -91 
Q 1441 -91 1130 -33 
Q 819 25 488 141 
L 488 750 
Q 750 597 1062 519 
Q 1375 441 1716 441 
Q 2309 441 2620 675 
Q 2931 909 2931 1356 
Q 2931 1769 2642 2001 
Q 2353 2234 1838 2234 
L 1294 2234 
L 1294 2753 
L 1863 2753 
Q 2328 2753 2575 2939 
Q 2822 3125 2822 3475 
Q 2822 3834 2567 4026 
Q 2313 4219 1838 4219 
Q 1578 4219 1281 4162 
Q 984 4106 628 3988 
L 628 4550 
Q 988 4650 1302 4700 
Q 1616 4750 1894 4750 
Q 2613 4750 3031 4423 
Q 3450 4097 3450 3541 
Q 3450 3153 3228 2886 
Q 3006 2619 2597 2516 
z
" transform="scale(0.015625)"/>
      </defs>
      <use xlink:href="#DejaVuSans-Oblique-53" transform="translate(0 0.78125)"/>
      <use xlink:href="#DejaVuSans-33" transform="translate(63.476562 -15.625)scale(0.7)"/>
     </g>
    </g>
   </g>
  </g>
 </g>
 <defs>
  <clipPath id="pae9282419a">
   <rect x="38.02125" y="1.44" width="357.12" height="266.112"/>
  </clipPath>
 </defs>
</svg>
