<?xml version="1.0" encoding="utf-8" standalone="no"?>
<!DOCTYPE svg PUBLIC "-//W3C//DTD SVG 1.1//EN"
  "http://www.w3.org/Graphics/SVG/1.1/DTD/svg11.dtd">
<svg xmlns:xlink="http://www.w3.org/1999/xlink" width="420.867187pt" height="299.34825pt" viewBox="0 0 420.867187 299.34825" xmlns="http://www.w3.org/2000/svg" version="1.1">
 <metadata>
  <rdf:RDF xmlns:dc="http://purl.org/dc/elements/1.1/" xmlns:cc="http://creativecommons.org/ns#" xmlns:rdf="http://www.w3.org/1999/02/22-rdf-syntax-ns#">
   <cc:Work>
    <dc:type rdf:resource="http://purl.org/dc/dcmitype/StillImage"/>
    <dc:date>2022-05-21T13:30:20.194236</dc:date>
    <dc:format>image/svg+xml</dc:format>
    <dc:creator>
     <cc:Agent>
      <dc:title>Matplotlib v3.5.1, https://matplotlib.org/</dc:title>
     </cc:Agent>
    </dc:creator>
   </cc:Work>
  </rdf:RDF>
 </metadata>
 <defs>
  <style type="text/css">*{stroke-linejoin: round; stroke-linecap: butt}</style>
 </defs>
 <g id="figure_1">
  <g id="patch_1">
   <path d="M 0 299.34825 
L 420.867187 299.34825 
L 420.867187 0 
L 0 0 
z
" style="fill: #ffffff"/>
  </g>
  <g id="axes_1">
   <g id="patch_2">
    <path d="M 59.125937 267.552 
L 416.245938 267.552 
L 416.245938 1.44 
L 59.125937 1.44 
z
" style="fill: #ffffff"/>
   </g>
   <g id="matplotlib.axis_1">
    <g id="xtick_1">
     <g id="line2d_1">
      <defs>
       <path id="m545f74204c" d="M 0 0 
L 0 3.5 
" style="stroke: #000000; stroke-width: 0.8"/>
      </defs>
      <g>
       <use xlink:href="#m545f74204c" x="59.125937" y="267.552" style="stroke: #000000; stroke-width: 0.8"/>
      </g>
     </g>
     <g id="text_1">
      <!-- −6 -->
      <g transform="translate(51.754844 282.150437)scale(0.1 -0.1)">
       <defs>
        <path id="DejaVuSans-2212" d="M 678 2272 
L 4684 2272 
L 4684 1741 
L 678 1741 
L 678 2272 
z
" transform="scale(0.015625)"/>
        <path id="DejaVuSans-36" d="M 2113 2584 
Q 1688 2584 1439 2293 
Q 1191 2003 1191 1497 
Q 1191 994 1439 701 
Q 1688 409 2113 409 
Q 2538 409 2786 701 
Q 3034 994 3034 1497 
Q 3034 2003 2786 2293 
Q 2538 2584 2113 2584 
z
M 3366 4563 
L 3366 3988 
Q 3128 4100 2886 4159 
Q 2644 4219 2406 4219 
Q 1781 4219 1451 3797 
Q 1122 3375 1075 2522 
Q 1259 2794 1537 2939 
Q 1816 3084 2150 3084 
Q 2853 3084 3261 2657 
Q 3669 2231 3669 1497 
Q 3669 778 3244 343 
Q 2819 -91 2113 -91 
Q 1303 -91 875 529 
Q 447 1150 447 2328 
Q 447 3434 972 4092 
Q 1497 4750 2381 4750 
Q 2619 4750 2861 4703 
Q 3103 4656 3366 4563 
z
" transform="scale(0.015625)"/>
       </defs>
       <use xlink:href="#DejaVuSans-2212"/>
       <use xlink:href="#DejaVuSans-36" x="83.789062"/>
      </g>
     </g>
    </g>
    <g id="xtick_2">
     <g id="line2d_2">
      <g>
       <use xlink:href="#m545f74204c" x="118.645938" y="267.552" style="stroke: #000000; stroke-width: 0.8"/>
      </g>
     </g>
     <g id="text_2">
      <!-- −4 -->
      <g transform="translate(111.274844 282.150437)scale(0.1 -0.1)">
       <defs>
        <path id="DejaVuSans-34" d="M 2419 4116 
L 825 1625 
L 2419 1625 
L 2419 4116 
z
M 2253 4666 
L 3047 4666 
L 3047 1625 
L 3713 1625 
L 3713 1100 
L 3047 1100 
L 3047 0 
L 2419 0 
L 2419 1100 
L 313 1100 
L 313 1709 
L 2253 4666 
z
" transform="scale(0.015625)"/>
       </defs>
       <use xlink:href="#DejaVuSans-2212"/>
       <use xlink:href="#DejaVuSans-34" x="83.789062"/>
      </g>
     </g>
    </g>
    <g id="xtick_3">
     <g id="line2d_3">
      <g>
       <use xlink:href="#m545f74204c" x="178.165937" y="267.552" style="stroke: #000000; stroke-width: 0.8"/>
      </g>
     </g>
     <g id="text_3">
      <!-- −2 -->
      <g transform="translate(170.794844 282.150437)scale(0.1 -0.1)">
       <defs>
        <path id="DejaVuSans-32" d="M 1228 531 
L 3431 531 
L 3431 0 
L 469 0 
L 469 531 
Q 828 903 1448 1529 
Q 2069 2156 2228 2338 
Q 2531 2678 2651 2914 
Q 2772 3150 2772 3378 
Q 2772 3750 2511 3984 
Q 2250 4219 1831 4219 
Q 1534 4219 1204 4116 
Q 875 4013 500 3803 
L 500 4441 
Q 881 4594 1212 4672 
Q 1544 4750 1819 4750 
Q 2544 4750 2975 4387 
Q 3406 4025 3406 3419 
Q 3406 3131 3298 2873 
Q 3191 2616 2906 2266 
Q 2828 2175 2409 1742 
Q 1991 1309 1228 531 
z
" transform="scale(0.015625)"/>
       </defs>
       <use xlink:href="#DejaVuSans-2212"/>
       <use xlink:href="#DejaVuSans-32" x="83.789062"/>
      </g>
     </g>
    </g>
    <g id="xtick_4">
     <g id="line2d_4">
      <g>
       <use xlink:href="#m545f74204c" x="237.685937" y="267.552" style="stroke: #000000; stroke-width: 0.8"/>
      </g>
     </g>
     <g id="text_4">
      <!-- 0 -->
      <g transform="translate(234.504687 282.150437)scale(0.1 -0.1)">
       <defs>
        <path id="DejaVuSans-30" d="M 2034 4250 
Q 1547 4250 1301 3770 
Q 1056 3291 1056 2328 
Q 1056 1369 1301 889 
Q 1547 409 2034 409 
Q 2525 409 2770 889 
Q 3016 1369 3016 2328 
Q 3016 3291 2770 3770 
Q 2525 4250 2034 4250 
z
M 2034 4750 
Q 2819 4750 3233 4129 
Q 3647 3509 3647 2328 
Q 3647 1150 3233 529 
Q 2819 -91 2034 -91 
Q 1250 -91 836 529 
Q 422 1150 422 2328 
Q 422 3509 836 4129 
Q 1250 4750 2034 4750 
z
" transform="scale(0.015625)"/>
       </defs>
       <use xlink:href="#DejaVuSans-30"/>
      </g>
     </g>
    </g>
    <g id="xtick_5">
     <g id="line2d_5">
      <g>
       <use xlink:href="#m545f74204c" x="297.205938" y="267.552" style="stroke: #000000; stroke-width: 0.8"/>
      </g>
     </g>
     <g id="text_5">
      <!-- 2 -->
      <g transform="translate(294.024688 282.150437)scale(0.1 -0.1)">
       <use xlink:href="#DejaVuSans-32"/>
      </g>
     </g>
    </g>
    <g id="xtick_6">
     <g id="line2d_6">
      <g>
       <use xlink:href="#m545f74204c" x="356.725937" y="267.552" style="stroke: #000000; stroke-width: 0.8"/>
      </g>
     </g>
     <g id="text_6">
      <!-- 4 -->
      <g transform="translate(353.544688 282.150437)scale(0.1 -0.1)">
       <use xlink:href="#DejaVuSans-34"/>
      </g>
     </g>
    </g>
    <g id="xtick_7">
     <g id="line2d_7">
      <g>
       <use xlink:href="#m545f74204c" x="416.245937" y="267.552" style="stroke: #000000; stroke-width: 0.8"/>
      </g>
     </g>
     <g id="text_7">
      <!-- 6 -->
      <g transform="translate(413.064687 282.150437)scale(0.1 -0.1)">
       <use xlink:href="#DejaVuSans-36"/>
      </g>
     </g>
    </g>
    <g id="text_8">
     <!-- $x$ -->
     <g transform="translate(234.685937 295.828562)scale(0.1 -0.1)">
      <defs>
       <path id="DejaVuSans-Oblique-78" d="M 3841 3500 
L 2234 1784 
L 3219 0 
L 2559 0 
L 1819 1388 
L 531 0 
L -166 0 
L 1556 1844 
L 641 3500 
L 1300 3500 
L 1972 2234 
L 3144 3500 
L 3841 3500 
z
" transform="scale(0.015625)"/>
      </defs>
      <use xlink:href="#DejaVuSans-Oblique-78" transform="translate(0 0.3125)"/>
     </g>
    </g>
   </g>
   <g id="matplotlib.axis_2">
    <g id="ytick_1">
     <g id="line2d_8">
      <defs>
       <path id="m0095cfc8f8" d="M 0 0 
L -3.5 0 
" style="stroke: #000000; stroke-width: 0.8"/>
      </defs>
      <g>
       <use xlink:href="#m0095cfc8f8" x="59.125937" y="245.079273" style="stroke: #000000; stroke-width: 0.8"/>
      </g>
     </g>
     <g id="text_9">
      <!-- −0.010 -->
      <g transform="translate(15.118125 248.878491)scale(0.1 -0.1)">
       <defs>
        <path id="DejaVuSans-2e" d="M 684 794 
L 1344 794 
L 1344 0 
L 684 0 
L 684 794 
z
" transform="scale(0.015625)"/>
        <path id="DejaVuSans-31" d="M 794 531 
L 1825 531 
L 1825 4091 
L 703 3866 
L 703 4441 
L 1819 4666 
L 2450 4666 
L 2450 531 
L 3481 531 
L 3481 0 
L 794 0 
L 794 531 
z
" transform="scale(0.015625)"/>
       </defs>
       <use xlink:href="#DejaVuSans-2212"/>
       <use xlink:href="#DejaVuSans-30" x="83.789062"/>
       <use xlink:href="#DejaVuSans-2e" x="147.412109"/>
       <use xlink:href="#DejaVuSans-30" x="179.199219"/>
       <use xlink:href="#DejaVuSans-31" x="242.822266"/>
       <use xlink:href="#DejaVuSans-30" x="306.445312"/>
      </g>
     </g>
    </g>
    <g id="ytick_2">
     <g id="line2d_9">
      <g>
       <use xlink:href="#m0095cfc8f8" x="59.125937" y="190.316037" style="stroke: #000000; stroke-width: 0.8"/>
      </g>
     </g>
     <g id="text_10">
      <!-- −0.005 -->
      <g transform="translate(15.118125 194.115256)scale(0.1 -0.1)">
       <defs>
        <path id="DejaVuSans-35" d="M 691 4666 
L 3169 4666 
L 3169 4134 
L 1269 4134 
L 1269 2991 
Q 1406 3038 1543 3061 
Q 1681 3084 1819 3084 
Q 2600 3084 3056 2656 
Q 3513 2228 3513 1497 
Q 3513 744 3044 326 
Q 2575 -91 1722 -91 
Q 1428 -91 1123 -41 
Q 819 9 494 109 
L 494 744 
Q 775 591 1075 516 
Q 1375 441 1709 441 
Q 2250 441 2565 725 
Q 2881 1009 2881 1497 
Q 2881 1984 2565 2268 
Q 2250 2553 1709 2553 
Q 1456 2553 1204 2497 
Q 953 2441 691 2322 
L 691 4666 
z
" transform="scale(0.015625)"/>
       </defs>
       <use xlink:href="#DejaVuSans-2212"/>
       <use xlink:href="#DejaVuSans-30" x="83.789062"/>
       <use xlink:href="#DejaVuSans-2e" x="147.412109"/>
       <use xlink:href="#DejaVuSans-30" x="179.199219"/>
       <use xlink:href="#DejaVuSans-30" x="242.822266"/>
       <use xlink:href="#DejaVuSans-35" x="306.445312"/>
      </g>
     </g>
    </g>
    <g id="ytick_3">
     <g id="line2d_10">
      <g>
       <use xlink:href="#m0095cfc8f8" x="59.125937" y="135.552801" style="stroke: #000000; stroke-width: 0.8"/>
      </g>
     </g>
     <g id="text_11">
      <!-- 0.000 -->
      <g transform="translate(23.497812 139.35202)scale(0.1 -0.1)">
       <use xlink:href="#DejaVuSans-30"/>
       <use xlink:href="#DejaVuSans-2e" x="63.623047"/>
       <use xlink:href="#DejaVuSans-30" x="95.410156"/>
       <use xlink:href="#DejaVuSans-30" x="159.033203"/>
       <use xlink:href="#DejaVuSans-30" x="222.65625"/>
      </g>
     </g>
    </g>
    <g id="ytick_4">
     <g id="line2d_11">
      <g>
       <use xlink:href="#m0095cfc8f8" x="59.125937" y="80.789565" style="stroke: #000000; stroke-width: 0.8"/>
      </g>
     </g>
     <g id="text_12">
      <!-- 0.005 -->
      <g transform="translate(23.497812 84.588784)scale(0.1 -0.1)">
       <use xlink:href="#DejaVuSans-30"/>
       <use xlink:href="#DejaVuSans-2e" x="63.623047"/>
       <use xlink:href="#DejaVuSans-30" x="95.410156"/>
       <use xlink:href="#DejaVuSans-30" x="159.033203"/>
       <use xlink:href="#DejaVuSans-35" x="222.65625"/>
      </g>
     </g>
    </g>
    <g id="ytick_5">
     <g id="line2d_12">
      <g>
       <use xlink:href="#m0095cfc8f8" x="59.125937" y="26.026329" style="stroke: #000000; stroke-width: 0.8"/>
      </g>
     </g>
     <g id="text_13">
      <!-- 0.010 -->
      <g transform="translate(23.497812 29.825548)scale(0.1 -0.1)">
       <use xlink:href="#DejaVuSans-30"/>
       <use xlink:href="#DejaVuSans-2e" x="63.623047"/>
       <use xlink:href="#DejaVuSans-30" x="95.410156"/>
       <use xlink:href="#DejaVuSans-31" x="159.033203"/>
       <use xlink:href="#DejaVuSans-30" x="222.65625"/>
      </g>
     </g>
    </g>
    <g id="text_14">
     <!-- $y$ -->
     <g transform="translate(9.018125 137.496)rotate(-90)scale(0.1 -0.1)">
      <defs>
       <path id="DejaVuSans-Oblique-79" d="M 1588 -325 
Q 1188 -997 936 -1164 
Q 684 -1331 294 -1331 
L -159 -1331 
L -63 -850 
L 269 -850 
Q 509 -850 678 -719 
Q 847 -588 1056 -206 
L 1234 128 
L 459 3500 
L 1069 3500 
L 1650 819 
L 3256 3500 
L 3859 3500 
L 1588 -325 
z
" transform="scale(0.015625)"/>
      </defs>
      <use xlink:href="#DejaVuSans-Oblique-79" transform="translate(0 0.3125)"/>
     </g>
    </g>
   </g>
   <g id="LineCollection_1">
    <path d="M 59.125937 135.552801 
L 59.125937 135.552801 
" clip-path="url(#pa35df7e7cc)" style="fill: none; stroke: #000000; stroke-width: 1.5"/>
    <path d="M 103.765938 135.552801 
L 103.765938 135.552801 
" clip-path="url(#pa35df7e7cc)" style="fill: none; stroke: #000000; stroke-width: 1.5"/>
    <path d="M 148.405937 135.552801 
L 148.405937 135.552801 
" clip-path="url(#pa35df7e7cc)" style="fill: none; stroke: #000000; stroke-width: 1.5"/>
    <path d="M 193.045937 135.552801 
L 193.045937 135.552801 
" clip-path="url(#pa35df7e7cc)" style="fill: none; stroke: #000000; stroke-width: 1.5"/>
    <path d="M 237.685937 135.552801 
L 237.685937 135.552801 
" clip-path="url(#pa35df7e7cc)" style="fill: none; stroke: #000000; stroke-width: 1.5"/>
    <path d="M 282.325938 135.552801 
L 282.325938 135.552801 
" clip-path="url(#pa35df7e7cc)" style="fill: none; stroke: #000000; stroke-width: 1.5"/>
    <path d="M 326.965937 135.552801 
L 326.965937 135.552801 
" clip-path="url(#pa35df7e7cc)" style="fill: none; stroke: #000000; stroke-width: 1.5"/>
    <path d="M 371.605937 135.552801 
L 371.605937 135.552801 
" clip-path="url(#pa35df7e7cc)" style="fill: none; stroke: #000000; stroke-width: 1.5"/>
    <path d="M 416.245937 135.552801 
L 416.245937 135.552801 
" clip-path="url(#pa35df7e7cc)" style="fill: none; stroke: #000000; stroke-width: 1.5"/>
   </g>
   <g id="line2d_13">
    <defs>
     <path id="me788b00cf6" d="M -0 4.242641 
L 4.242641 0 
L 0 -4.242641 
L -4.242641 -0 
z
" style="stroke: #000000; stroke-linejoin: miter"/>
    </defs>
    <g clip-path="url(#pa35df7e7cc)">
     <use xlink:href="#me788b00cf6" x="59.125937" y="135.552801" style="stroke: #000000; stroke-linejoin: miter"/>
     <use xlink:href="#me788b00cf6" x="103.765938" y="135.552801" style="stroke: #000000; stroke-linejoin: miter"/>
     <use xlink:href="#me788b00cf6" x="148.405937" y="135.552801" style="stroke: #000000; stroke-linejoin: miter"/>
     <use xlink:href="#me788b00cf6" x="193.045937" y="135.552801" style="stroke: #000000; stroke-linejoin: miter"/>
     <use xlink:href="#me788b00cf6" x="237.685937" y="135.552801" style="stroke: #000000; stroke-linejoin: miter"/>
     <use xlink:href="#me788b00cf6" x="282.325938" y="135.552801" style="stroke: #000000; stroke-linejoin: miter"/>
     <use xlink:href="#me788b00cf6" x="326.965937" y="135.552801" style="stroke: #000000; stroke-linejoin: miter"/>
     <use xlink:href="#me788b00cf6" x="371.605937" y="135.552801" style="stroke: #000000; stroke-linejoin: miter"/>
     <use xlink:href="#me788b00cf6" x="416.245937" y="135.552801" style="stroke: #000000; stroke-linejoin: miter"/>
    </g>
   </g>
   <g id="line2d_14">
    <path d="M 59.125937 135.552801 
L 416.245937 135.552801 
" clip-path="url(#pa35df7e7cc)" style="fill: none; stroke: #b2b2b2; stroke-width: 1.5; stroke-linecap: square"/>
   </g>
   <g id="line2d_15">
    <path d="M 59.125937 135.552801 
L 60.565131 122.413977 
L 61.943614 111.801673 
L 63.257816 103.344975 
L 64.507736 96.690978 
L 65.693374 91.534557 
L 66.807589 87.635302 
L 67.85395 84.744823 
L 68.828888 82.673336 
L 69.732402 81.249442 
L 70.568062 80.326468 
L 71.346584 79.783372 
L 72.085822 79.531073 
L 72.814347 79.516244 
L 73.56787 79.727788 
L 74.382104 80.195836 
L 75.289189 80.984753 
L 76.324837 82.195 
L 77.521189 83.952879 
L 78.92467 86.430267 
L 80.62099 89.900732 
L 82.79228 94.883816 
L 86.306341 103.593068 
L 90.788197 114.563937 
L 93.366603 120.284282 
L 95.552177 124.61095 
L 97.516337 128.021542 
L 99.323365 130.727393 
L 101.016114 132.873085 
L 102.619582 134.555926 
L 104.155198 135.852862 
L 105.644389 136.825307 
L 107.108581 137.519778 
L 108.572773 137.970159 
L 110.065534 138.196915 
L 111.622578 138.207026 
L 113.290328 137.992312 
L 115.14021 137.524556 
L 117.304357 136.739038 
L 120.175601 135.441615 
L 127.07516 132.238902 
L 129.471435 131.427363 
L 131.574872 130.94518 
L 133.535461 130.721066 
L 135.435339 130.72691 
L 137.335217 130.956055 
L 139.302949 131.420438 
L 141.431384 132.156957 
L 143.927653 133.266969 
L 153.266341 137.673771 
L 156.012594 138.562958 
L 158.68028 139.194318 
L 161.333682 139.594039 
L 164.029938 139.774781 
L 166.833329 139.73824 
L 169.833138 139.473514 
L 173.190066 138.948122 
L 177.382654 138.05303 
L 186.978469 135.921291 
L 189.803288 135.578259 
L 192.153137 135.511734 
L 194.249432 135.672502 
L 196.592139 136.08564 
L 199.595518 136.855944 
L 208.752075 139.353582 
L 211.441189 139.765415 
L 213.908888 139.920332 
L 216.305163 139.847955 
L 218.73715 139.550338 
L 221.347698 139.002154 
L 224.458213 138.109962 
L 232.429131 135.703813 
L 234.457573 135.40159 
L 236.168177 135.366265 
L 237.69308 135.554235 
L 239.196555 135.969934 
L 240.96787 136.700114 
L 243.249867 137.897662 
L 251.927883 142.691612 
L 254.077745 143.490085 
L 256.045477 143.987577 
L 257.923928 144.235107 
L 259.770238 144.254473 
L 261.634405 144.050573 
L 263.569995 143.612589 
L 265.652005 142.908524 
L 268.005426 141.870016 
L 271.033803 140.272483 
L 277.204837 136.960553 
L 279.272561 136.144517 
L 280.968882 135.706632 
L 282.447358 135.548853 
L 283.893694 135.622982 
L 285.51859 135.934957 
L 287.429182 136.537168 
L 289.886168 137.55975 
L 299.667685 141.879714 
L 302.042533 142.544233 
L 304.231678 142.929027 
L 306.331544 143.074052 
L 308.40284 142.994544 
L 310.499134 142.690564 
L 312.681137 142.146872 
L 315.038129 141.325268 
L 317.745099 140.136953 
L 321.580568 138.181995 
L 326.165989 135.893127 
L 328.533694 134.968109 
L 331.072817 134.22242 
L 333.986917 133.603935 
L 337.486693 133.096459 
L 341.922123 132.688502 
L 347.47891 132.406612 
L 352.853566 132.346934 
L 357.221144 132.513024 
L 360.917336 132.87151 
L 364.231409 133.413736 
L 367.32764 134.144439 
L 370.320305 135.079179 
L 373.305829 136.245964 
L 376.394917 137.695266 
L 379.76613 139.529351 
L 383.940862 142.070596 
L 392.122482 147.107224 
L 394.790168 148.444554 
L 396.9686 149.295717 
L 398.861336 149.802356 
L 400.561227 150.031584 
L 402.128984 150.021399 
L 403.60389 149.791101 
L 405.021656 149.344826 
L 406.410853 148.672438 
L 407.789336 147.754959 
L 409.178533 146.558145 
L 410.589157 145.04313 
L 412.035493 143.155535 
L 413.524683 140.837241 
L 415.067441 138.012857 
L 416.245937 135.552801 
L 416.245937 135.552801 
" clip-path="url(#pa35df7e7cc)" style="fill: none; stroke-dasharray: 9.6,2.4,1.5,2.4; stroke-dashoffset: 0; stroke: #000000; stroke-width: 1.5"/>
   </g>
   <g id="line2d_16">
    <path d="M 59.125937 135.552801 
L 60.350859 140.971964 
L 61.868619 148.759277 
L 63.893489 160.406131 
L 71.578712 205.78125 
L 73.375025 214.471472 
L 74.921355 220.903985 
L 76.281982 225.65848 
L 77.492619 229.120128 
L 78.56755 231.556758 
L 79.524632 233.206068 
L 80.371006 234.248418 
L 81.12453 234.84409 
L 81.806629 235.11194 
L 82.445874 235.128605 
L 83.081547 234.920731 
L 83.752933 234.459277 
L 84.4886 233.670533 
L 85.306405 232.450401 
L 86.220632 230.6659 
L 87.241995 228.160096 
L 88.381208 224.748975 
L 89.652555 220.210212 
L 91.077464 214.26269 
L 92.680933 206.574301 
L 94.509387 196.671314 
L 96.655678 183.762752 
L 99.348363 166.123276 
L 104.319474 131.717475 
L 107.972811 107.241599 
L 110.44051 92.160413 
L 112.476094 81.036783 
L 114.240267 72.577939 
L 115.800882 66.137087 
L 117.19365 61.291521 
L 118.439998 57.722895 
L 119.554213 55.173025 
L 120.547006 53.4252 
L 121.432664 52.290635 
L 122.221899 51.62066 
L 122.936139 51.292836 
L 123.603954 51.22588 
L 124.261054 51.385381 
L 124.946725 51.788765 
L 125.689534 52.496184 
L 126.51091 53.601003 
L 127.428709 55.227517 
L 128.457214 57.526196 
L 129.610712 60.675241 
L 130.910629 64.899554 
L 132.396248 70.518223 
L 134.138993 78.022647 
L 136.349566 88.59396 
L 143.009854 121.143369 
L 144.491902 126.924113 
L 145.677541 130.711013 
L 146.652478 133.131059 
L 147.455998 134.575512 
L 148.11667 135.344651 
L 148.666635 135.670432 
L 149.166603 135.716024 
L 149.673714 135.533202 
L 150.234392 135.080484 
L 150.88435 134.251497 
L 151.65573 132.883043 
L 152.577099 130.764971 
L 153.684171 127.628328 
L 155.051941 123.041596 
L 156.844683 116.190548 
L 160.098046 102.684877 
L 163.065714 90.772424 
L 164.994161 83.92129 
L 166.586917 79.043416 
L 167.968971 75.492722 
L 169.18675 72.946642 
L 170.268824 71.173444 
L 171.233048 69.998111 
L 172.097278 69.277815 
L 172.882942 68.900953 
L 173.615038 68.790338 
L 174.329278 68.907007 
L 175.061374 69.256763 
L 175.843467 69.88671 
L 176.696984 70.873559 
L 177.63621 72.315113 
L 178.679 74.342097 
L 179.836069 77.099026 
L 181.125272 80.770596 
L 182.568037 85.580469 
L 184.192933 91.803784 
L 186.06067 99.876645 
L 188.285528 110.53035 
L 191.235339 125.832652 
L 198.888421 166.02631 
L 201.270411 177.089209 
L 203.255998 185.299227 
L 204.977317 191.512017 
L 206.502219 196.219401 
L 207.862846 199.730419 
L 209.080625 202.286801 
L 210.173413 204.088898 
L 211.151922 205.295894 
L 212.034008 206.048211 
L 212.837528 206.45314 
L 213.58748 206.588419 
L 214.316005 206.495141 
L 215.062386 206.170508 
L 215.855192 205.573478 
L 216.715851 204.634758 
L 217.66579 203.254105 
L 218.719294 201.312188 
L 219.894219 198.658401 
L 221.211992 195.107481 
L 222.708325 190.406473 
L 224.45107 184.161235 
L 226.62236 175.497774 
L 234.050456 145.0931 
L 235.478936 140.568014 
L 236.636005 137.593579 
L 237.593086 135.705169 
L 238.40732 134.560344 
L 239.160843 133.863795 
L 239.871512 133.497222 
L 240.560754 133.38633 
L 241.267851 133.49928 
L 242.032088 133.853185 
L 242.896318 134.509575 
L 243.903397 135.568958 
L 245.106891 137.175967 
L 246.610366 139.57837 
L 248.699518 143.37565 
L 254.709848 154.526814 
L 256.624011 157.489932 
L 258.273905 159.649502 
L 259.752382 161.231484 
L 261.105867 162.364402 
L 262.359358 163.132578 
L 263.541426 163.602729 
L 264.677067 163.818398 
L 265.78771 163.803802 
L 266.898353 163.565383 
L 268.030424 163.091737 
L 269.205349 162.353774 
L 270.433842 161.313221 
L 271.730187 159.915288 
L 273.094385 158.107322 
L 274.522865 155.835155 
L 276.012056 153.037762 
L 277.547672 149.668879 
L 279.119 145.673213 
L 280.711755 141.001265 
L 282.311653 135.60443 
L 284.054398 128.892547 
L 286.522097 118.413472 
L 292.261016 93.791644 
L 294.375166 85.849594 
L 296.160766 79.969983 
L 297.732094 75.529037 
L 299.139147 72.18944 
L 300.410494 69.718231 
L 301.563992 67.939373 
L 302.613925 66.710195 
L 303.574578 65.913716 
L 304.460235 65.457641 
L 305.295896 65.271294 
L 306.11013 65.316132 
L 306.935077 65.587393 
L 307.799307 66.112545 
L 308.724248 66.943848 
L 309.731326 68.160094 
L 310.831256 69.851549 
L 312.03475 72.126553 
L 313.348952 75.104626 
L 314.777432 78.911745 
L 316.323761 83.687588 
L 317.980798 89.550048 
L 319.734258 96.592664 
L 321.566283 104.892303 
L 323.451877 114.48908 
L 325.358898 125.37058 
L 327.265918 137.56401 
L 329.490776 153.367375 
L 337.840242 214.107573 
L 339.76869 225.7747 
L 341.429298 234.518433 
L 342.893489 241.090136 
L 344.196978 245.966063 
L 345.357618 249.49153 
L 346.389694 251.956621 
L 347.303922 253.600734 
L 348.111013 254.624512 
L 348.825253 255.193005 
L 349.464497 255.431828 
L 350.064459 255.423627 
L 350.667992 255.188564 
L 351.310808 254.688758 
L 352.021477 253.838339 
L 352.814283 252.523709 
L 353.703512 250.595947 
L 354.699877 247.87718 
L 355.81052 244.16869 
L 357.046155 239.232934 
L 358.421067 232.786525 
L 359.956683 224.475776 
L 361.681573 213.866685 
L 363.649304 200.320175 
L 365.967013 182.741878 
L 368.920395 158.52246 
L 378.830475 75.814678 
L 381.119614 59.355323 
L 383.06949 46.882339 
L 384.776523 37.341013 
L 386.294283 30.066183 
L 387.647768 24.617383 
L 388.854834 20.632489 
L 389.933336 17.798648 
L 390.886846 15.881324 
L 391.729649 14.655602 
L 392.468888 13.947806 
L 393.125989 13.609387 
L 393.729522 13.540909 
L 394.318769 13.698524 
L 394.936587 14.102062 
L 395.615115 14.825798 
L 396.372209 15.978373 
L 397.218584 17.693981 
L 398.168523 20.148986 
L 399.22917 23.537455 
L 400.411237 28.092665 
L 401.732581 34.110671 
L 403.214629 41.944023 
L 404.900235 52.104146 
L 406.875109 65.434508 
L 409.403518 84.132384 
L 416.220939 135.384996 
L 416.245937 135.552801 
L 416.245937 135.552801 
" clip-path="url(#pa35df7e7cc)" style="fill: none; stroke-dasharray: 9.6,2.4,1.5,2.4; stroke-dashoffset: 0; stroke: #666666; stroke-width: 1.5"/>
   </g>
   <g id="patch_3">
    <path d="M 59.125937 267.552 
L 59.125937 1.44 
" style="fill: none; stroke: #000000; stroke-width: 0.8; stroke-linejoin: miter; stroke-linecap: square"/>
   </g>
   <g id="patch_4">
    <path d="M 416.245938 267.552 
L 416.245938 1.44 
" style="fill: none; stroke: #000000; stroke-width: 0.8; stroke-linejoin: miter; stroke-linecap: square"/>
   </g>
   <g id="patch_5">
    <path d="M 59.125937 267.552 
L 416.245937 267.552 
" style="fill: none; stroke: #000000; stroke-width: 0.8; stroke-linejoin: miter; stroke-linecap: square"/>
   </g>
   <g id="patch_6">
    <path d="M 59.125937 1.44 
L 416.245937 1.44 
" style="fill: none; stroke: #000000; stroke-width: 0.8; stroke-linejoin: miter; stroke-linecap: square"/>
   </g>
   <g id="legend_1">
    <g id="patch_7">
     <path d="M 66.125937 38.79625 
L 129.825938 38.79625 
Q 131.825938 38.79625 131.825938 36.79625 
L 131.825938 8.44 
Q 131.825938 6.44 129.825938 6.44 
L 66.125937 6.44 
Q 64.125937 6.44 64.125937 8.44 
L 64.125937 36.79625 
Q 64.125937 38.79625 66.125937 38.79625 
z
" style="fill: #ffffff; opacity: 0.8; stroke: #cccccc; stroke-linejoin: miter"/>
    </g>
    <g id="line2d_17">
     <path d="M 68.125937 14.538437 
L 78.125937 14.538437 
L 88.125937 14.538437 
" style="fill: none; stroke-dasharray: 9.6,2.4,1.5,2.4; stroke-dashoffset: 0; stroke: #000000; stroke-width: 1.5"/>
    </g>
    <g id="text_15">
     <!-- $S_3$ - - S -->
     <g transform="translate(96.125937 18.038437)scale(0.1 -0.1)">
      <defs>
       <path id="DejaVuSans-Oblique-53" d="M 3859 4513 
L 3738 3897 
Q 3422 4066 3111 4152 
Q 2800 4238 2509 4238 
Q 1944 4238 1609 3991 
Q 1275 3744 1275 3334 
Q 1275 3109 1398 2989 
Q 1522 2869 2034 2731 
L 2413 2638 
Q 3053 2472 3303 2217 
Q 3553 1963 3553 1503 
Q 3553 797 2998 353 
Q 2444 -91 1538 -91 
Q 1166 -91 791 -17 
Q 416 56 38 206 
L 166 856 
Q 513 641 861 531 
Q 1209 422 1556 422 
Q 2147 422 2503 684 
Q 2859 947 2859 1369 
Q 2859 1650 2717 1795 
Q 2575 1941 2106 2059 
L 1728 2156 
Q 1081 2325 845 2545 
Q 609 2766 609 3163 
Q 609 3859 1145 4304 
Q 1681 4750 2541 4750 
Q 2875 4750 3203 4690 
Q 3531 4631 3859 4513 
z
" transform="scale(0.015625)"/>
       <path id="DejaVuSans-33" d="M 2597 2516 
Q 3050 2419 3304 2112 
Q 3559 1806 3559 1356 
Q 3559 666 3084 287 
Q 2609 -91 1734 -91 
Q 1441 -91 1130 -33 
Q 819 25 488 141 
L 488 750 
Q 750 597 1062 519 
Q 1375 441 1716 441 
Q 2309 441 2620 675 
Q 2931 909 2931 1356 
Q 2931 1769 2642 2001 
Q 2353 2234 1838 2234 
L 1294 2234 
L 1294 2753 
L 1863 2753 
Q 2328 2753 2575 2939 
Q 2822 3125 2822 3475 
Q 2822 3834 2567 4026 
Q 2313 4219 1838 4219 
Q 1578 4219 1281 4162 
Q 984 4106 628 3988 
L 628 4550 
Q 988 4650 1302 4700 
Q 1616 4750 1894 4750 
Q 2613 4750 3031 4423 
Q 3450 4097 3450 3541 
Q 3450 3153 3228 2886 
Q 3006 2619 2597 2516 
z
" transform="scale(0.015625)"/>
       <path id="DejaVuSans-20" transform="scale(0.015625)"/>
       <path id="DejaVuSans-2d" d="M 313 2009 
L 1997 2009 
L 1997 1497 
L 313 1497 
L 313 2009 
z
" transform="scale(0.015625)"/>
       <path id="DejaVuSans-53" d="M 3425 4513 
L 3425 3897 
Q 3066 4069 2747 4153 
Q 2428 4238 2131 4238 
Q 1616 4238 1336 4038 
Q 1056 3838 1056 3469 
Q 1056 3159 1242 3001 
Q 1428 2844 1947 2747 
L 2328 2669 
Q 3034 2534 3370 2195 
Q 3706 1856 3706 1288 
Q 3706 609 3251 259 
Q 2797 -91 1919 -91 
Q 1588 -91 1214 -16 
Q 841 59 441 206 
L 441 856 
Q 825 641 1194 531 
Q 1563 422 1919 422 
Q 2459 422 2753 634 
Q 3047 847 3047 1241 
Q 3047 1584 2836 1778 
Q 2625 1972 2144 2069 
L 1759 2144 
Q 1053 2284 737 2584 
Q 422 2884 422 3419 
Q 422 4038 858 4394 
Q 1294 4750 2059 4750 
Q 2388 4750 2728 4690 
Q 3069 4631 3425 4513 
z
" transform="scale(0.015625)"/>
      </defs>
      <use xlink:href="#DejaVuSans-Oblique-53" transform="translate(0 0.78125)"/>
      <use xlink:href="#DejaVuSans-33" transform="translate(63.476562 -15.625)scale(0.7)"/>
      <use xlink:href="#DejaVuSans-20" transform="translate(110.74707 0.78125)"/>
      <use xlink:href="#DejaVuSans-2d" transform="translate(142.53418 0.78125)"/>
      <use xlink:href="#DejaVuSans-2d" transform="translate(178.618164 0.78125)"/>
      <use xlink:href="#DejaVuSans-20" transform="translate(214.702148 0.78125)"/>
      <use xlink:href="#DejaVuSans-53" transform="translate(246.489258 0.78125)"/>
     </g>
    </g>
    <g id="line2d_18">
     <path d="M 68.125937 29.216562 
L 78.125937 29.216562 
L 88.125937 29.216562 
" style="fill: none; stroke-dasharray: 9.6,2.4,1.5,2.4; stroke-dashoffset: 0; stroke: #666666; stroke-width: 1.5"/>
    </g>
    <g id="text_16">
     <!-- $S_3$ - - C -->
     <g transform="translate(96.125937 32.716562)scale(0.1 -0.1)">
      <defs>
       <path id="DejaVuSans-43" d="M 4122 4306 
L 4122 3641 
Q 3803 3938 3442 4084 
Q 3081 4231 2675 4231 
Q 1875 4231 1450 3742 
Q 1025 3253 1025 2328 
Q 1025 1406 1450 917 
Q 1875 428 2675 428 
Q 3081 428 3442 575 
Q 3803 722 4122 1019 
L 4122 359 
Q 3791 134 3420 21 
Q 3050 -91 2638 -91 
Q 1578 -91 968 557 
Q 359 1206 359 2328 
Q 359 3453 968 4101 
Q 1578 4750 2638 4750 
Q 3056 4750 3426 4639 
Q 3797 4528 4122 4306 
z
" transform="scale(0.015625)"/>
      </defs>
      <use xlink:href="#DejaVuSans-Oblique-53" transform="translate(0 0.78125)"/>
      <use xlink:href="#DejaVuSans-33" transform="translate(63.476562 -15.625)scale(0.7)"/>
      <use xlink:href="#DejaVuSans-20" transform="translate(110.74707 0.78125)"/>
      <use xlink:href="#DejaVuSans-2d" transform="translate(142.53418 0.78125)"/>
      <use xlink:href="#DejaVuSans-2d" transform="translate(178.618164 0.78125)"/>
      <use xlink:href="#DejaVuSans-20" transform="translate(214.702148 0.78125)"/>
      <use xlink:href="#DejaVuSans-43" transform="translate(246.489258 0.78125)"/>
     </g>
    </g>
   </g>
  </g>
 </g>
 <defs>
  <clipPath id="pa35df7e7cc">
   <rect x="59.125937" y="1.44" width="357.12" height="266.112"/>
  </clipPath>
 </defs>
</svg>
