<?xml version="1.0" encoding="utf-8" standalone="no"?>
<!DOCTYPE svg PUBLIC "-//W3C//DTD SVG 1.1//EN"
  "http://www.w3.org/Graphics/SVG/1.1/DTD/svg11.dtd">
<svg xmlns:xlink="http://www.w3.org/1999/xlink" width="408.142187pt" height="302.710397pt" viewBox="0 0 408.142187 302.710397" xmlns="http://www.w3.org/2000/svg" version="1.1">
 <metadata>
  <rdf:RDF xmlns:dc="http://purl.org/dc/elements/1.1/" xmlns:cc="http://creativecommons.org/ns#" xmlns:rdf="http://www.w3.org/1999/02/22-rdf-syntax-ns#">
   <cc:Work>
    <dc:type rdf:resource="http://purl.org/dc/dcmitype/StillImage"/>
    <dc:date>2022-05-21T13:43:32.659851</dc:date>
    <dc:format>image/svg+xml</dc:format>
    <dc:creator>
     <cc:Agent>
      <dc:title>Matplotlib v3.5.1, https://matplotlib.org/</dc:title>
     </cc:Agent>
    </dc:creator>
   </cc:Work>
  </rdf:RDF>
 </metadata>
 <defs>
  <style type="text/css">*{stroke-linejoin: round; stroke-linecap: butt}</style>
 </defs>
 <g id="figure_1">
  <g id="patch_1">
   <path d="M -0 302.710397 
L 408.142187 302.710397 
L 408.142187 0 
L -0 0 
z
" style="fill: #ffffff"/>
  </g>
  <g id="axes_1">
   <g id="patch_2">
    <path d="M 46.400937 270.914147 
L 403.520937 270.914147 
L 403.520937 4.802147 
L 46.400937 4.802147 
z
" style="fill: #ffffff"/>
   </g>
   <g id="matplotlib.axis_1">
    <g id="xtick_1">
     <g id="line2d_1">
      <defs>
       <path id="mbde029c753" d="M 0 0 
L 0 3.5 
" style="stroke: #000000; stroke-width: 0.8"/>
      </defs>
      <g>
       <use xlink:href="#mbde029c753" x="46.400937" y="270.914147" style="stroke: #000000; stroke-width: 0.8"/>
      </g>
     </g>
     <g id="text_1">
      <!-- −6 -->
      <g transform="translate(39.029844 285.512585)scale(0.1 -0.1)">
       <defs>
        <path id="DejaVuSans-2212" d="M 678 2272 
L 4684 2272 
L 4684 1741 
L 678 1741 
L 678 2272 
z
" transform="scale(0.015625)"/>
        <path id="DejaVuSans-36" d="M 2113 2584 
Q 1688 2584 1439 2293 
Q 1191 2003 1191 1497 
Q 1191 994 1439 701 
Q 1688 409 2113 409 
Q 2538 409 2786 701 
Q 3034 994 3034 1497 
Q 3034 2003 2786 2293 
Q 2538 2584 2113 2584 
z
M 3366 4563 
L 3366 3988 
Q 3128 4100 2886 4159 
Q 2644 4219 2406 4219 
Q 1781 4219 1451 3797 
Q 1122 3375 1075 2522 
Q 1259 2794 1537 2939 
Q 1816 3084 2150 3084 
Q 2853 3084 3261 2657 
Q 3669 2231 3669 1497 
Q 3669 778 3244 343 
Q 2819 -91 2113 -91 
Q 1303 -91 875 529 
Q 447 1150 447 2328 
Q 447 3434 972 4092 
Q 1497 4750 2381 4750 
Q 2619 4750 2861 4703 
Q 3103 4656 3366 4563 
z
" transform="scale(0.015625)"/>
       </defs>
       <use xlink:href="#DejaVuSans-2212"/>
       <use xlink:href="#DejaVuSans-36" x="83.789062"/>
      </g>
     </g>
    </g>
    <g id="xtick_2">
     <g id="line2d_2">
      <g>
       <use xlink:href="#mbde029c753" x="105.920937" y="270.914147" style="stroke: #000000; stroke-width: 0.8"/>
      </g>
     </g>
     <g id="text_2">
      <!-- −4 -->
      <g transform="translate(98.549844 285.512585)scale(0.1 -0.1)">
       <defs>
        <path id="DejaVuSans-34" d="M 2419 4116 
L 825 1625 
L 2419 1625 
L 2419 4116 
z
M 2253 4666 
L 3047 4666 
L 3047 1625 
L 3713 1625 
L 3713 1100 
L 3047 1100 
L 3047 0 
L 2419 0 
L 2419 1100 
L 313 1100 
L 313 1709 
L 2253 4666 
z
" transform="scale(0.015625)"/>
       </defs>
       <use xlink:href="#DejaVuSans-2212"/>
       <use xlink:href="#DejaVuSans-34" x="83.789062"/>
      </g>
     </g>
    </g>
    <g id="xtick_3">
     <g id="line2d_3">
      <g>
       <use xlink:href="#mbde029c753" x="165.440937" y="270.914147" style="stroke: #000000; stroke-width: 0.8"/>
      </g>
     </g>
     <g id="text_3">
      <!-- −2 -->
      <g transform="translate(158.069844 285.512585)scale(0.1 -0.1)">
       <defs>
        <path id="DejaVuSans-32" d="M 1228 531 
L 3431 531 
L 3431 0 
L 469 0 
L 469 531 
Q 828 903 1448 1529 
Q 2069 2156 2228 2338 
Q 2531 2678 2651 2914 
Q 2772 3150 2772 3378 
Q 2772 3750 2511 3984 
Q 2250 4219 1831 4219 
Q 1534 4219 1204 4116 
Q 875 4013 500 3803 
L 500 4441 
Q 881 4594 1212 4672 
Q 1544 4750 1819 4750 
Q 2544 4750 2975 4387 
Q 3406 4025 3406 3419 
Q 3406 3131 3298 2873 
Q 3191 2616 2906 2266 
Q 2828 2175 2409 1742 
Q 1991 1309 1228 531 
z
" transform="scale(0.015625)"/>
       </defs>
       <use xlink:href="#DejaVuSans-2212"/>
       <use xlink:href="#DejaVuSans-32" x="83.789062"/>
      </g>
     </g>
    </g>
    <g id="xtick_4">
     <g id="line2d_4">
      <g>
       <use xlink:href="#mbde029c753" x="224.960937" y="270.914147" style="stroke: #000000; stroke-width: 0.8"/>
      </g>
     </g>
     <g id="text_4">
      <!-- 0 -->
      <g transform="translate(221.779687 285.512585)scale(0.1 -0.1)">
       <defs>
        <path id="DejaVuSans-30" d="M 2034 4250 
Q 1547 4250 1301 3770 
Q 1056 3291 1056 2328 
Q 1056 1369 1301 889 
Q 1547 409 2034 409 
Q 2525 409 2770 889 
Q 3016 1369 3016 2328 
Q 3016 3291 2770 3770 
Q 2525 4250 2034 4250 
z
M 2034 4750 
Q 2819 4750 3233 4129 
Q 3647 3509 3647 2328 
Q 3647 1150 3233 529 
Q 2819 -91 2034 -91 
Q 1250 -91 836 529 
Q 422 1150 422 2328 
Q 422 3509 836 4129 
Q 1250 4750 2034 4750 
z
" transform="scale(0.015625)"/>
       </defs>
       <use xlink:href="#DejaVuSans-30"/>
      </g>
     </g>
    </g>
    <g id="xtick_5">
     <g id="line2d_5">
      <g>
       <use xlink:href="#mbde029c753" x="284.480937" y="270.914147" style="stroke: #000000; stroke-width: 0.8"/>
      </g>
     </g>
     <g id="text_5">
      <!-- 2 -->
      <g transform="translate(281.299688 285.512585)scale(0.1 -0.1)">
       <use xlink:href="#DejaVuSans-32"/>
      </g>
     </g>
    </g>
    <g id="xtick_6">
     <g id="line2d_6">
      <g>
       <use xlink:href="#mbde029c753" x="344.000937" y="270.914147" style="stroke: #000000; stroke-width: 0.8"/>
      </g>
     </g>
     <g id="text_6">
      <!-- 4 -->
      <g transform="translate(340.819687 285.512585)scale(0.1 -0.1)">
       <use xlink:href="#DejaVuSans-34"/>
      </g>
     </g>
    </g>
    <g id="xtick_7">
     <g id="line2d_7">
      <g>
       <use xlink:href="#mbde029c753" x="403.520937" y="270.914147" style="stroke: #000000; stroke-width: 0.8"/>
      </g>
     </g>
     <g id="text_7">
      <!-- 6 -->
      <g transform="translate(400.339687 285.512585)scale(0.1 -0.1)">
       <use xlink:href="#DejaVuSans-36"/>
      </g>
     </g>
    </g>
    <g id="text_8">
     <!-- $x$ -->
     <g transform="translate(221.960937 299.19071)scale(0.1 -0.1)">
      <defs>
       <path id="DejaVuSans-Oblique-78" d="M 3841 3500 
L 2234 1784 
L 3219 0 
L 2559 0 
L 1819 1388 
L 531 0 
L -166 0 
L 1556 1844 
L 641 3500 
L 1300 3500 
L 1972 2234 
L 3144 3500 
L 3841 3500 
z
" transform="scale(0.015625)"/>
      </defs>
      <use xlink:href="#DejaVuSans-Oblique-78" transform="translate(0 0.3125)"/>
     </g>
    </g>
   </g>
   <g id="matplotlib.axis_2">
    <g id="ytick_1">
     <g id="line2d_8">
      <defs>
       <path id="mc2b07dfecb" d="M 0 0 
L -3.5 0 
" style="stroke: #000000; stroke-width: 0.8"/>
      </defs>
      <g>
       <use xlink:href="#mc2b07dfecb" x="46.400937" y="239.021548" style="stroke: #000000; stroke-width: 0.8"/>
      </g>
     </g>
     <g id="text_9">
      <!-- −0.6 -->
      <g transform="translate(15.118125 242.820767)scale(0.1 -0.1)">
       <defs>
        <path id="DejaVuSans-2e" d="M 684 794 
L 1344 794 
L 1344 0 
L 684 0 
L 684 794 
z
" transform="scale(0.015625)"/>
       </defs>
       <use xlink:href="#DejaVuSans-2212"/>
       <use xlink:href="#DejaVuSans-30" x="83.789062"/>
       <use xlink:href="#DejaVuSans-2e" x="147.412109"/>
       <use xlink:href="#DejaVuSans-36" x="179.199219"/>
      </g>
     </g>
    </g>
    <g id="ytick_2">
     <g id="line2d_9">
      <g>
       <use xlink:href="#mc2b07dfecb" x="46.400937" y="205.624073" style="stroke: #000000; stroke-width: 0.8"/>
      </g>
     </g>
     <g id="text_10">
      <!-- −0.4 -->
      <g transform="translate(15.118125 209.423292)scale(0.1 -0.1)">
       <use xlink:href="#DejaVuSans-2212"/>
       <use xlink:href="#DejaVuSans-30" x="83.789062"/>
       <use xlink:href="#DejaVuSans-2e" x="147.412109"/>
       <use xlink:href="#DejaVuSans-34" x="179.199219"/>
      </g>
     </g>
    </g>
    <g id="ytick_3">
     <g id="line2d_10">
      <g>
       <use xlink:href="#mc2b07dfecb" x="46.400937" y="172.226597" style="stroke: #000000; stroke-width: 0.8"/>
      </g>
     </g>
     <g id="text_11">
      <!-- −0.2 -->
      <g transform="translate(15.118125 176.025816)scale(0.1 -0.1)">
       <use xlink:href="#DejaVuSans-2212"/>
       <use xlink:href="#DejaVuSans-30" x="83.789062"/>
       <use xlink:href="#DejaVuSans-2e" x="147.412109"/>
       <use xlink:href="#DejaVuSans-32" x="179.199219"/>
      </g>
     </g>
    </g>
    <g id="ytick_4">
     <g id="line2d_11">
      <g>
       <use xlink:href="#mc2b07dfecb" x="46.400937" y="138.829121" style="stroke: #000000; stroke-width: 0.8"/>
      </g>
     </g>
     <g id="text_12">
      <!-- 0.0 -->
      <g transform="translate(23.497812 142.62834)scale(0.1 -0.1)">
       <use xlink:href="#DejaVuSans-30"/>
       <use xlink:href="#DejaVuSans-2e" x="63.623047"/>
       <use xlink:href="#DejaVuSans-30" x="95.410156"/>
      </g>
     </g>
    </g>
    <g id="ytick_5">
     <g id="line2d_12">
      <g>
       <use xlink:href="#mc2b07dfecb" x="46.400937" y="105.431646" style="stroke: #000000; stroke-width: 0.8"/>
      </g>
     </g>
     <g id="text_13">
      <!-- 0.2 -->
      <g transform="translate(23.497812 109.230865)scale(0.1 -0.1)">
       <use xlink:href="#DejaVuSans-30"/>
       <use xlink:href="#DejaVuSans-2e" x="63.623047"/>
       <use xlink:href="#DejaVuSans-32" x="95.410156"/>
      </g>
     </g>
    </g>
    <g id="ytick_6">
     <g id="line2d_13">
      <g>
       <use xlink:href="#mc2b07dfecb" x="46.400937" y="72.03417" style="stroke: #000000; stroke-width: 0.8"/>
      </g>
     </g>
     <g id="text_14">
      <!-- 0.4 -->
      <g transform="translate(23.497812 75.833389)scale(0.1 -0.1)">
       <use xlink:href="#DejaVuSans-30"/>
       <use xlink:href="#DejaVuSans-2e" x="63.623047"/>
       <use xlink:href="#DejaVuSans-34" x="95.410156"/>
      </g>
     </g>
    </g>
    <g id="ytick_7">
     <g id="line2d_14">
      <g>
       <use xlink:href="#mc2b07dfecb" x="46.400937" y="38.636694" style="stroke: #000000; stroke-width: 0.8"/>
      </g>
     </g>
     <g id="text_15">
      <!-- 0.6 -->
      <g transform="translate(23.497812 42.435913)scale(0.1 -0.1)">
       <use xlink:href="#DejaVuSans-30"/>
       <use xlink:href="#DejaVuSans-2e" x="63.623047"/>
       <use xlink:href="#DejaVuSans-36" x="95.410156"/>
      </g>
     </g>
    </g>
    <g id="ytick_8">
     <g id="line2d_15">
      <g>
       <use xlink:href="#mc2b07dfecb" x="46.400937" y="5.239219" style="stroke: #000000; stroke-width: 0.8"/>
      </g>
     </g>
     <g id="text_16">
      <!-- 0.8 -->
      <g transform="translate(23.497812 9.038437)scale(0.1 -0.1)">
       <defs>
        <path id="DejaVuSans-38" d="M 2034 2216 
Q 1584 2216 1326 1975 
Q 1069 1734 1069 1313 
Q 1069 891 1326 650 
Q 1584 409 2034 409 
Q 2484 409 2743 651 
Q 3003 894 3003 1313 
Q 3003 1734 2745 1975 
Q 2488 2216 2034 2216 
z
M 1403 2484 
Q 997 2584 770 2862 
Q 544 3141 544 3541 
Q 544 4100 942 4425 
Q 1341 4750 2034 4750 
Q 2731 4750 3128 4425 
Q 3525 4100 3525 3541 
Q 3525 3141 3298 2862 
Q 3072 2584 2669 2484 
Q 3125 2378 3379 2068 
Q 3634 1759 3634 1313 
Q 3634 634 3220 271 
Q 2806 -91 2034 -91 
Q 1263 -91 848 271 
Q 434 634 434 1313 
Q 434 1759 690 2068 
Q 947 2378 1403 2484 
z
M 1172 3481 
Q 1172 3119 1398 2916 
Q 1625 2713 2034 2713 
Q 2441 2713 2670 2916 
Q 2900 3119 2900 3481 
Q 2900 3844 2670 4047 
Q 2441 4250 2034 4250 
Q 1625 4250 1398 4047 
Q 1172 3844 1172 3481 
z
" transform="scale(0.015625)"/>
       </defs>
       <use xlink:href="#DejaVuSans-30"/>
       <use xlink:href="#DejaVuSans-2e" x="63.623047"/>
       <use xlink:href="#DejaVuSans-38" x="95.410156"/>
      </g>
     </g>
    </g>
    <g id="text_17">
     <!-- $y$ -->
     <g transform="translate(9.018125 140.858147)rotate(-90)scale(0.1 -0.1)">
      <defs>
       <path id="DejaVuSans-Oblique-79" d="M 1588 -325 
Q 1188 -997 936 -1164 
Q 684 -1331 294 -1331 
L -159 -1331 
L -63 -850 
L 269 -850 
Q 509 -850 678 -719 
Q 847 -588 1056 -206 
L 1234 128 
L 459 3500 
L 1069 3500 
L 1650 819 
L 3256 3500 
L 3859 3500 
L 1588 -325 
z
" transform="scale(0.015625)"/>
      </defs>
      <use xlink:href="#DejaVuSans-Oblique-79" transform="translate(0 0.3125)"/>
     </g>
    </g>
   </g>
   <g id="line2d_16">
    <path d="M 46.400937 16.898147 
L 48.022262 17.428886 
L 49.68287 18.209406 
L 51.400618 19.266319 
L 53.189789 20.633095 
L 55.064669 22.351084 
L 57.035971 24.465416 
L 59.121552 27.035979 
L 61.332125 30.121572 
L 63.689117 33.80243 
L 66.210384 38.161654 
L 68.928067 43.31502 
L 71.885021 49.411019 
L 75.145526 56.656969 
L 78.820291 65.383369 
L 83.145014 76.250732 
L 88.87679 91.303181 
L 102.125942 126.294648 
L 106.597085 137.345989 
L 110.382557 146.127095 
L 113.750198 153.392305 
L 116.817859 159.494854 
L 119.649821 164.645702 
L 122.288938 168.995634 
L 124.763779 172.65671 
L 127.099344 175.723775 
L 129.309917 178.267695 
L 131.409782 180.352509 
L 133.413225 182.034642 
L 135.33096 183.360365 
L 137.180841 184.373378 
L 138.973584 185.105051 
L 140.723472 185.581783 
L 142.448361 185.822823 
L 144.162537 185.838643 
L 145.887427 185.631547 
L 147.637315 185.195741 
L 149.430057 184.51732 
L 151.279939 183.576134 
L 153.204816 182.343174 
L 155.218973 180.784381 
L 157.343837 178.852907 
L 159.593693 176.500735 
L 161.989968 173.66668 
L 164.561232 170.273093 
L 167.339626 166.229007 
L 170.378717 161.402488 
L 173.757072 155.607904 
L 177.628253 148.510871 
L 182.342237 139.380592 
L 189.6132 124.743601 
L 198.205507 107.568512 
L 203.048054 98.390901 
L 207.101366 91.172176 
L 210.711849 85.184708 
L 214.022352 80.115489 
L 217.107869 75.788936 
L 220.014825 72.088046 
L 222.778934 68.922434 
L 225.421622 66.227922 
L 227.964317 63.94738 
L 230.424873 62.034245 
L 232.821149 60.448714 
L 235.167427 59.159663 
L 237.477993 58.141275 
L 239.770704 57.371919 
L 242.059843 56.837046 
L 244.366838 56.526141 
L 246.705974 56.435667 
L 249.098678 56.566664 
L 251.566377 56.926199 
L 254.130499 57.526761 
L 256.816041 58.386909 
L 259.648003 59.530503 
L 262.658525 60.989742 
L 265.872605 62.798844 
L 269.315241 64.996071 
L 272.993577 67.611552 
L 276.889757 70.658146 
L 280.94664 74.115297 
L 285.067805 77.920906 
L 289.1604 82.003579 
L 293.163715 86.311869 
L 297.056323 90.828177 
L 300.852509 95.574033 
L 304.580841 100.592559 
L 308.277033 105.943141 
L 311.980368 111.698919 
L 315.730128 117.942253 
L 319.579881 124.789949 
L 323.586768 132.378087 
L 327.843638 140.925063 
L 332.504054 150.794036 
L 337.903709 162.770179 
L 345.417513 180.033361 
L 356.052547 204.416485 
L 361.023658 215.232778 
L 365.094825 223.575117 
L 368.648169 230.363605 
L 371.840822 235.996271 
L 374.758493 240.704422 
L 377.454749 244.643496 
L 379.965302 247.926826 
L 382.315152 250.642446 
L 384.525725 252.865182 
L 386.614877 254.657692 
L 388.600464 256.074409 
L 390.496771 257.159225 
L 392.318083 257.949045 
L 394.082256 258.474504 
L 395.803574 258.756923 
L 397.499894 258.810531 
L 399.185501 258.641369 
L 400.881821 258.246462 
L 402.603139 257.615183 
L 403.520937 257.183819 
L 403.520937 257.183819 
" clip-path="url(#p4e62a1a4d5)" style="fill: none; stroke: #000000; stroke-opacity: 0.2; stroke-width: 1.5; stroke-linecap: square"/>
   </g>
   <g id="LineCollection_1">
    <path d="M 46.400937 138.829121 
L 46.400937 16.898147 
" clip-path="url(#p4e62a1a4d5)" style="fill: none; stroke: #000000; stroke-width: 1.5"/>
    <path d="M 91.040937 138.829121 
L 91.040937 97.085279 
" clip-path="url(#p4e62a1a4d5)" style="fill: none; stroke: #000000; stroke-width: 1.5"/>
    <path d="M 135.680937 138.829121 
L 135.680937 183.572082 
" clip-path="url(#p4e62a1a4d5)" style="fill: none; stroke: #000000; stroke-width: 1.5"/>
    <path d="M 180.320937 138.829121 
L 180.320937 143.34838 
" clip-path="url(#p4e62a1a4d5)" style="fill: none; stroke: #000000; stroke-width: 1.5"/>
    <path d="M 224.960937 138.829121 
L 224.960937 66.673974 
" clip-path="url(#p4e62a1a4d5)" style="fill: none; stroke: #000000; stroke-width: 1.5"/>
    <path d="M 269.600937 138.829121 
L 269.600937 65.189643 
" clip-path="url(#p4e62a1a4d5)" style="fill: none; stroke: #000000; stroke-width: 1.5"/>
    <path d="M 314.240937 138.829121 
L 314.240937 115.412291 
" clip-path="url(#p4e62a1a4d5)" style="fill: none; stroke: #000000; stroke-width: 1.5"/>
    <path d="M 358.880937 138.829121 
L 358.880937 210.642906 
" clip-path="url(#p4e62a1a4d5)" style="fill: none; stroke: #000000; stroke-width: 1.5"/>
    <path d="M 403.520937 138.829121 
L 403.520937 257.183819 
" clip-path="url(#p4e62a1a4d5)" style="fill: none; stroke: #000000; stroke-width: 1.5"/>
   </g>
   <g id="line2d_17">
    <defs>
     <path id="me3a8412205" d="M -0 4.242641 
L 4.242641 0 
L 0 -4.242641 
L -4.242641 -0 
z
" style="stroke: #000000; stroke-linejoin: miter"/>
    </defs>
    <g clip-path="url(#p4e62a1a4d5)">
     <use xlink:href="#me3a8412205" x="46.400937" y="16.898147" style="stroke: #000000; stroke-linejoin: miter"/>
     <use xlink:href="#me3a8412205" x="91.040937" y="97.085279" style="stroke: #000000; stroke-linejoin: miter"/>
     <use xlink:href="#me3a8412205" x="135.680937" y="183.572082" style="stroke: #000000; stroke-linejoin: miter"/>
     <use xlink:href="#me3a8412205" x="180.320937" y="143.34838" style="stroke: #000000; stroke-linejoin: miter"/>
     <use xlink:href="#me3a8412205" x="224.960937" y="66.673974" style="stroke: #000000; stroke-linejoin: miter"/>
     <use xlink:href="#me3a8412205" x="269.600937" y="65.189643" style="stroke: #000000; stroke-linejoin: miter"/>
     <use xlink:href="#me3a8412205" x="314.240937" y="115.412291" style="stroke: #000000; stroke-linejoin: miter"/>
     <use xlink:href="#me3a8412205" x="358.880937" y="210.642906" style="stroke: #000000; stroke-linejoin: miter"/>
     <use xlink:href="#me3a8412205" x="403.520937" y="257.183819" style="stroke: #000000; stroke-linejoin: miter"/>
    </g>
   </g>
   <g id="line2d_18">
    <path d="M 46.400937 138.829121 
L 403.520937 138.829121 
" clip-path="url(#p4e62a1a4d5)" style="fill: none; stroke: #b2b2b2; stroke-width: 1.5; stroke-linecap: square"/>
   </g>
   <g id="line2d_19">
    <path d="M 46.400937 16.898147 
L 92.658691 100.219561 
L 135.680937 183.572082 
L 135.763075 183.49807 
L 180.503069 143.035549 
L 225.089501 66.669699 
L 269.693789 65.294106 
L 314.405213 115.762739 
L 359.120208 210.892365 
L 403.520937 257.183819 
L 403.520937 257.183819 
" clip-path="url(#p4e62a1a4d5)" style="fill: none; stroke-dasharray: 4.5,1.5,1.5,1.5,1.5,1.5; stroke-dashoffset: 0; stroke: #666666; stroke-width: 1.5"/>
   </g>
   <g id="line2d_20">
    <path d="M 46.400937 16.898147 
L 58.243037 37.556266 
L 70.181558 58.831349 
L 82.216502 80.734315 
L 94.347869 103.276167 
L 106.575658 126.468001 
L 118.899869 150.320999 
L 131.324073 174.853551 
L 135.791645 183.517414 
L 139.473552 181.571548 
L 143.205456 179.346213 
L 146.994499 176.826173 
L 150.844253 173.996796 
L 154.761859 170.839245 
L 158.747318 167.338934 
L 162.804201 163.47749 
L 166.93608 159.235212 
L 171.150096 154.586942 
L 175.442678 149.518044 
L 179.820969 144.000724 
L 184.284969 138.014389 
L 188.838249 131.532813 
L 193.480809 124.533688 
L 198.216221 116.988422 
L 203.044483 108.872889 
L 207.965597 100.162487 
L 212.983133 90.825332 
L 218.097091 80.834875 
L 223.311043 70.156572 
L 225.150211 66.558526 
L 228.314294 64.766248 
L 231.424809 63.257529 
L 234.485328 62.018092 
L 237.506563 61.032951 
L 240.492086 60.292121 
L 243.44904 59.786352 
L 246.388137 59.508464 
L 249.316521 59.454509 
L 252.244905 59.623068 
L 255.176861 60.014753 
L 258.123101 60.633037 
L 261.094339 61.484677 
L 264.094147 62.576894 
L 267.133238 63.921521 
L 270.215184 65.529857 
L 273.350697 67.419074 
L 276.54335 69.604839 
L 279.796713 72.104246 
L 283.117929 74.939074 
L 286.510569 78.130383 
L 289.978205 81.700871 
L 293.524406 85.674949 
L 297.152745 90.078808 
L 300.866793 94.940493 
L 304.66655 100.284784 
L 308.555587 106.142592 
L 312.537475 112.546873 
L 314.412355 115.871101 
L 319.508457 129.183218 
L 324.500995 141.609464 
L 329.386397 153.179496 
L 334.168233 163.939508 
L 338.850077 173.933219 
L 343.428355 183.187925 
L 347.90664 191.745012 
L 352.284931 199.637303 
L 356.5668 206.902764 
L 360.752246 213.571656 
L 364.84127 219.673563 
L 368.837443 225.242187 
L 372.740765 230.304727 
L 376.554806 234.891877 
L 380.283139 239.032403 
L 383.929334 242.753212 
L 387.493392 246.076257 
L 390.982454 249.028736 
L 394.396521 251.629831 
L 397.742736 253.902869 
L 401.02824 255.868481 
L 403.520937 257.183819 
L 403.520937 257.183819 
" clip-path="url(#p4e62a1a4d5)" style="fill: none; stroke-dasharray: 5.55,2.4; stroke-dashoffset: 0; stroke: #999999; stroke-width: 1.5"/>
   </g>
   <g id="line2d_21">
    <path d="M 46.400937 16.898147 
L 47.954409 17.509033 
L 49.575734 18.389603 
L 51.282768 19.575147 
L 53.086224 21.104146 
L 55.003958 23.028005 
L 57.050256 25.403014 
L 59.242973 28.296926 
L 61.599965 31.785268 
L 64.142659 35.95595 
L 66.899625 40.916494 
L 69.910147 46.803272 
L 73.231363 53.799332 
L 76.963267 62.194972 
L 81.291562 72.500472 
L 86.705501 85.998834 
L 106.393526 135.646107 
L 110.596829 145.319962 
L 114.239453 153.162077 
L 117.492816 159.653257 
L 120.446198 165.063069 
L 123.153168 169.569686 
L 125.649437 173.305091 
L 127.963574 176.378069 
L 130.113437 178.873186 
L 132.120451 180.870735 
L 133.998902 182.434518 
L 135.763075 183.621089 
L 137.452253 184.493649 
L 139.116432 185.106156 
L 140.766326 185.47866 
L 142.419792 185.624822 
L 144.091114 185.548954 
L 145.798147 185.247252 
L 147.555177 184.70854 
L 149.380061 183.913331 
L 151.290653 182.834044 
L 153.301238 181.437981 
L 155.429673 179.683658 
L 157.690243 177.526287 
L 160.104374 174.908578 
L 162.697065 171.761848 
L 165.493315 168.01054 
L 168.535978 163.54769 
L 171.882192 158.234313 
L 175.621238 151.867555 
L 179.924534 144.085452 
L 185.23848 133.990931 
L 195.294979 114.28286 
L 202.090973 101.240723 
L 206.826384 92.620946 
L 210.790416 85.8532 
L 214.275907 80.329947 
L 217.418563 75.755834 
L 220.286237 71.96447 
L 222.928925 68.82968 
L 225.382339 66.256111 
L 227.732189 64.109798 
L 230.053469 62.286989 
L 232.34975 60.76308 
L 234.631747 59.512541 
L 236.910173 58.515258 
L 239.195741 57.755957 
L 241.502736 57.223037 
L 243.845443 56.910108 
L 246.238147 56.815422 
L 248.698704 56.941658 
L 251.248541 57.296895 
L 253.909085 57.894425 
L 256.705334 58.75303 
L 259.673001 59.900227 
L 262.854941 61.372779 
L 266.311862 63.222531 
L 270.14376 65.531377 
L 274.150646 68.202629 
L 278.011113 71.043648 
L 281.760873 74.079879 
L 285.424925 77.333616 
L 289.028265 80.832179 
L 292.585181 84.597381 
L 296.109955 88.654553 
L 299.613302 93.028639 
L 303.102365 97.743053 
L 306.587856 102.829088 
L 310.076918 108.316722 
L 313.576694 114.239304 
L 317.147894 120.727439 
L 321.09407 128.371259 
L 325.565213 137.531991 
L 330.872016 148.933349 
L 338.08584 165.004839 
L 352.359926 196.894005 
L 357.784579 208.393762 
L 362.302147 217.464467 
L 366.26975 224.945709 
L 369.848093 231.230181 
L 373.119312 236.536463 
L 376.136976 241.017467 
L 378.936797 244.786225 
L 381.547344 247.936184 
L 383.993616 250.547132 
L 386.289897 252.679877 
L 388.454045 254.392854 
L 390.500342 255.734752 
L 392.443075 256.748088 
L 394.300099 257.470068 
L 396.085699 257.928713 
L 397.81416 258.145326 
L 399.503337 258.134136 
L 401.171088 257.900509 
L 402.828125 257.443107 
L 403.520937 257.183819 
L 403.520937 257.183819 
" clip-path="url(#p4e62a1a4d5)" style="fill: none; stroke-dasharray: 9.6,2.4,1.5,2.4; stroke-dashoffset: 0; stroke: #b2b2b2; stroke-width: 1.5"/>
   </g>
   <g id="patch_3">
    <path d="M 46.400937 270.914147 
L 46.400937 4.802147 
" style="fill: none; stroke: #000000; stroke-width: 0.8; stroke-linejoin: miter; stroke-linecap: square"/>
   </g>
   <g id="patch_4">
    <path d="M 403.520937 270.914147 
L 403.520937 4.802147 
" style="fill: none; stroke: #000000; stroke-width: 0.8; stroke-linejoin: miter; stroke-linecap: square"/>
   </g>
   <g id="patch_5">
    <path d="M 46.400937 270.914147 
L 403.520937 270.914147 
" style="fill: none; stroke: #000000; stroke-width: 0.8; stroke-linejoin: miter; stroke-linecap: square"/>
   </g>
   <g id="patch_6">
    <path d="M 46.400937 4.802147 
L 403.520937 4.802147 
" style="fill: none; stroke: #000000; stroke-width: 0.8; stroke-linejoin: miter; stroke-linecap: square"/>
   </g>
   <g id="legend_1">
    <g id="patch_7">
     <path d="M 352.220937 71.514647 
L 396.520937 71.514647 
Q 398.520937 71.514647 398.520937 69.514647 
L 398.520937 11.802147 
Q 398.520937 9.802147 396.520937 9.802147 
L 352.220937 9.802147 
Q 350.220937 9.802147 350.220937 11.802147 
L 350.220937 69.514647 
Q 350.220937 71.514647 352.220937 71.514647 
z
" style="fill: #ffffff; opacity: 0.8; stroke: #cccccc; stroke-linejoin: miter"/>
    </g>
    <g id="line2d_22">
     <path d="M 354.220937 17.900585 
L 364.220937 17.900585 
L 374.220937 17.900585 
" style="fill: none; stroke: #000000; stroke-opacity: 0.2; stroke-width: 1.5; stroke-linecap: square"/>
    </g>
    <g id="text_18">
     <!-- $h_2$ -->
     <g transform="translate(382.220937 21.400585)scale(0.1 -0.1)">
      <defs>
       <path id="DejaVuSans-Oblique-68" d="M 3566 2113 
L 3156 0 
L 2578 0 
L 2988 2091 
Q 3016 2238 3031 2350 
Q 3047 2463 3047 2528 
Q 3047 2791 2881 2937 
Q 2716 3084 2419 3084 
Q 1956 3084 1617 2771 
Q 1278 2459 1178 1941 
L 800 0 
L 225 0 
L 1172 4863 
L 1747 4863 
L 1375 2950 
Q 1594 3244 1934 3414 
Q 2275 3584 2650 3584 
Q 3113 3584 3367 3334 
Q 3622 3084 3622 2631 
Q 3622 2519 3608 2391 
Q 3594 2263 3566 2113 
z
" transform="scale(0.015625)"/>
      </defs>
      <use xlink:href="#DejaVuSans-Oblique-68" transform="translate(0 0.015625)"/>
      <use xlink:href="#DejaVuSans-32" transform="translate(63.378906 -16.390625)scale(0.7)"/>
     </g>
    </g>
    <g id="line2d_23">
     <path d="M 354.220937 32.57871 
L 364.220937 32.57871 
L 374.220937 32.57871 
" style="fill: none; stroke-dasharray: 4.5,1.5,1.5,1.5,1.5,1.5; stroke-dashoffset: 0; stroke: #666666; stroke-width: 1.5"/>
    </g>
    <g id="text_19">
     <!-- $N_1$ -->
     <g transform="translate(382.220937 36.07871)scale(0.1 -0.1)">
      <defs>
       <path id="DejaVuSans-Oblique-4e" d="M 1081 4666 
L 1931 4666 
L 3219 666 
L 4000 4666 
L 4616 4666 
L 3706 0 
L 2853 0 
L 1569 4025 
L 788 0 
L 172 0 
L 1081 4666 
z
" transform="scale(0.015625)"/>
       <path id="DejaVuSans-31" d="M 794 531 
L 1825 531 
L 1825 4091 
L 703 3866 
L 703 4441 
L 1819 4666 
L 2450 4666 
L 2450 531 
L 3481 531 
L 3481 0 
L 794 0 
L 794 531 
z
" transform="scale(0.015625)"/>
      </defs>
      <use xlink:href="#DejaVuSans-Oblique-4e" transform="translate(0 0.09375)"/>
      <use xlink:href="#DejaVuSans-31" transform="translate(74.804688 -16.3125)scale(0.7)"/>
     </g>
    </g>
    <g id="line2d_24">
     <path d="M 354.220937 47.256835 
L 364.220937 47.256835 
L 374.220937 47.256835 
" style="fill: none; stroke-dasharray: 5.55,2.4; stroke-dashoffset: 0; stroke: #999999; stroke-width: 1.5"/>
    </g>
    <g id="text_20">
     <!-- $N_2$ -->
     <g transform="translate(382.220937 50.756835)scale(0.1 -0.1)">
      <use xlink:href="#DejaVuSans-Oblique-4e" transform="translate(0 0.09375)"/>
      <use xlink:href="#DejaVuSans-32" transform="translate(74.804688 -16.3125)scale(0.7)"/>
     </g>
    </g>
    <g id="line2d_25">
     <path d="M 354.220937 61.93496 
L 364.220937 61.93496 
L 374.220937 61.93496 
" style="fill: none; stroke-dasharray: 9.6,2.4,1.5,2.4; stroke-dashoffset: 0; stroke: #b2b2b2; stroke-width: 1.5"/>
    </g>
    <g id="text_21">
     <!-- $S_3$ -->
     <g transform="translate(382.220937 65.43496)scale(0.1 -0.1)">
      <defs>
       <path id="DejaVuSans-Oblique-53" d="M 3859 4513 
L 3738 3897 
Q 3422 4066 3111 4152 
Q 2800 4238 2509 4238 
Q 1944 4238 1609 3991 
Q 1275 3744 1275 3334 
Q 1275 3109 1398 2989 
Q 1522 2869 2034 2731 
L 2413 2638 
Q 3053 2472 3303 2217 
Q 3553 1963 3553 1503 
Q 3553 797 2998 353 
Q 2444 -91 1538 -91 
Q 1166 -91 791 -17 
Q 416 56 38 206 
L 166 856 
Q 513 641 861 531 
Q 1209 422 1556 422 
Q 2147 422 2503 684 
Q 2859 947 2859 1369 
Q 2859 1650 2717 1795 
Q 2575 1941 2106 2059 
L 1728 2156 
Q 1081 2325 845 2545 
Q 609 2766 609 3163 
Q 609 3859 1145 4304 
Q 1681 4750 2541 4750 
Q 2875 4750 3203 4690 
Q 3531 4631 3859 4513 
z
" transform="scale(0.015625)"/>
       <path id="DejaVuSans-33" d="M 2597 2516 
Q 3050 2419 3304 2112 
Q 3559 1806 3559 1356 
Q 3559 666 3084 287 
Q 2609 -91 1734 -91 
Q 1441 -91 1130 -33 
Q 819 25 488 141 
L 488 750 
Q 750 597 1062 519 
Q 1375 441 1716 441 
Q 2309 441 2620 675 
Q 2931 909 2931 1356 
Q 2931 1769 2642 2001 
Q 2353 2234 1838 2234 
L 1294 2234 
L 1294 2753 
L 1863 2753 
Q 2328 2753 2575 2939 
Q 2822 3125 2822 3475 
Q 2822 3834 2567 4026 
Q 2313 4219 1838 4219 
Q 1578 4219 1281 4162 
Q 984 4106 628 3988 
L 628 4550 
Q 988 4650 1302 4700 
Q 1616 4750 1894 4750 
Q 2613 4750 3031 4423 
Q 3450 4097 3450 3541 
Q 3450 3153 3228 2886 
Q 3006 2619 2597 2516 
z
" transform="scale(0.015625)"/>
      </defs>
      <use xlink:href="#DejaVuSans-Oblique-53" transform="translate(0 0.78125)"/>
      <use xlink:href="#DejaVuSans-33" transform="translate(63.476562 -15.625)scale(0.7)"/>
     </g>
    </g>
   </g>
  </g>
 </g>
 <defs>
  <clipPath id="p4e62a1a4d5">
   <rect x="46.400937" y="4.802147" width="357.12" height="266.112"/>
  </clipPath>
 </defs>
</svg>
