<?xml version="1.0" encoding="utf-8" standalone="no"?>
<!DOCTYPE svg PUBLIC "-//W3C//DTD SVG 1.1//EN"
  "http://www.w3.org/Graphics/SVG/1.1/DTD/svg11.dtd">
<svg xmlns:xlink="http://www.w3.org/1999/xlink" width="390.338125pt" height="281.230125pt" viewBox="0 0 390.338125 281.230125" xmlns="http://www.w3.org/2000/svg" version="1.1">
 <metadata>
  <rdf:RDF xmlns:dc="http://purl.org/dc/elements/1.1/" xmlns:cc="http://creativecommons.org/ns#" xmlns:rdf="http://www.w3.org/1999/02/22-rdf-syntax-ns#">
   <cc:Work>
    <dc:type rdf:resource="http://purl.org/dc/dcmitype/StillImage"/>
    <dc:date>2022-04-22T12:02:09.691271</dc:date>
    <dc:format>image/svg+xml</dc:format>
    <dc:creator>
     <cc:Agent>
      <dc:title>Matplotlib v3.5.1, https://matplotlib.org/</dc:title>
     </cc:Agent>
    </dc:creator>
   </cc:Work>
  </rdf:RDF>
 </metadata>
 <defs>
  <style type="text/css">*{stroke-linejoin: round; stroke-linecap: butt}</style>
 </defs>
 <g id="figure_1">
  <g id="patch_1">
   <path d="M 0 281.230125 
L 390.338125 281.230125 
L 390.338125 0 
L 0 0 
z
" style="fill: #ffffff"/>
  </g>
  <g id="axes_1">
   <g id="patch_2">
    <path d="M 32.498125 266.832 
L 389.618125 266.832 
L 389.618125 0.72 
L 32.498125 0.72 
z
" style="fill: #ffffff"/>
   </g>
   <g id="matplotlib.axis_1">
    <g id="text_1">
     <!-- Position -->
     <g transform="translate(191.594063 278.430437)scale(0.1 -0.1)">
      <defs>
       <path id="DejaVuSans-50" d="M 1259 4147 
L 1259 2394 
L 2053 2394 
Q 2494 2394 2734 2622 
Q 2975 2850 2975 3272 
Q 2975 3691 2734 3919 
Q 2494 4147 2053 4147 
L 1259 4147 
z
M 628 4666 
L 2053 4666 
Q 2838 4666 3239 4311 
Q 3641 3956 3641 3272 
Q 3641 2581 3239 2228 
Q 2838 1875 2053 1875 
L 1259 1875 
L 1259 0 
L 628 0 
L 628 4666 
z
" transform="scale(0.015625)"/>
       <path id="DejaVuSans-6f" d="M 1959 3097 
Q 1497 3097 1228 2736 
Q 959 2375 959 1747 
Q 959 1119 1226 758 
Q 1494 397 1959 397 
Q 2419 397 2687 759 
Q 2956 1122 2956 1747 
Q 2956 2369 2687 2733 
Q 2419 3097 1959 3097 
z
M 1959 3584 
Q 2709 3584 3137 3096 
Q 3566 2609 3566 1747 
Q 3566 888 3137 398 
Q 2709 -91 1959 -91 
Q 1206 -91 779 398 
Q 353 888 353 1747 
Q 353 2609 779 3096 
Q 1206 3584 1959 3584 
z
" transform="scale(0.015625)"/>
       <path id="DejaVuSans-73" d="M 2834 3397 
L 2834 2853 
Q 2591 2978 2328 3040 
Q 2066 3103 1784 3103 
Q 1356 3103 1142 2972 
Q 928 2841 928 2578 
Q 928 2378 1081 2264 
Q 1234 2150 1697 2047 
L 1894 2003 
Q 2506 1872 2764 1633 
Q 3022 1394 3022 966 
Q 3022 478 2636 193 
Q 2250 -91 1575 -91 
Q 1294 -91 989 -36 
Q 684 19 347 128 
L 347 722 
Q 666 556 975 473 
Q 1284 391 1588 391 
Q 1994 391 2212 530 
Q 2431 669 2431 922 
Q 2431 1156 2273 1281 
Q 2116 1406 1581 1522 
L 1381 1569 
Q 847 1681 609 1914 
Q 372 2147 372 2553 
Q 372 3047 722 3315 
Q 1072 3584 1716 3584 
Q 2034 3584 2315 3537 
Q 2597 3491 2834 3397 
z
" transform="scale(0.015625)"/>
       <path id="DejaVuSans-69" d="M 603 3500 
L 1178 3500 
L 1178 0 
L 603 0 
L 603 3500 
z
M 603 4863 
L 1178 4863 
L 1178 4134 
L 603 4134 
L 603 4863 
z
" transform="scale(0.015625)"/>
       <path id="DejaVuSans-74" d="M 1172 4494 
L 1172 3500 
L 2356 3500 
L 2356 3053 
L 1172 3053 
L 1172 1153 
Q 1172 725 1289 603 
Q 1406 481 1766 481 
L 2356 481 
L 2356 0 
L 1766 0 
Q 1100 0 847 248 
Q 594 497 594 1153 
L 594 3053 
L 172 3053 
L 172 3500 
L 594 3500 
L 594 4494 
L 1172 4494 
z
" transform="scale(0.015625)"/>
       <path id="DejaVuSans-6e" d="M 3513 2113 
L 3513 0 
L 2938 0 
L 2938 2094 
Q 2938 2591 2744 2837 
Q 2550 3084 2163 3084 
Q 1697 3084 1428 2787 
Q 1159 2491 1159 1978 
L 1159 0 
L 581 0 
L 581 3500 
L 1159 3500 
L 1159 2956 
Q 1366 3272 1645 3428 
Q 1925 3584 2291 3584 
Q 2894 3584 3203 3211 
Q 3513 2838 3513 2113 
z
" transform="scale(0.015625)"/>
      </defs>
      <use xlink:href="#DejaVuSans-50"/>
      <use xlink:href="#DejaVuSans-6f" x="56.677734"/>
      <use xlink:href="#DejaVuSans-73" x="117.859375"/>
      <use xlink:href="#DejaVuSans-69" x="169.958984"/>
      <use xlink:href="#DejaVuSans-74" x="197.742188"/>
      <use xlink:href="#DejaVuSans-69" x="236.951172"/>
      <use xlink:href="#DejaVuSans-6f" x="264.734375"/>
      <use xlink:href="#DejaVuSans-6e" x="325.916016"/>
     </g>
    </g>
   </g>
   <g id="matplotlib.axis_2">
    <g id="ytick_1">
     <g id="line2d_1">
      <defs>
       <path id="me7d524e7b5" d="M 0 0 
L -3.5 0 
" style="stroke: #000000; stroke-width: 0.8"/>
      </defs>
      <g>
       <use xlink:href="#me7d524e7b5" x="32.498125" y="133.776" style="stroke: #000000; stroke-width: 0.8"/>
      </g>
     </g>
     <g id="text_2">
      <!-- $p_0$ -->
      <g transform="translate(14.398125 137.565062)scale(0.1 -0.1)">
       <defs>
        <path id="DejaVuSans-Oblique-70" d="M 3175 2156 
Q 3175 2616 2975 2859 
Q 2775 3103 2400 3103 
Q 2144 3103 1911 2972 
Q 1678 2841 1497 2591 
Q 1319 2344 1212 1994 
Q 1106 1644 1106 1300 
Q 1106 863 1306 627 
Q 1506 391 1875 391 
Q 2147 391 2380 519 
Q 2613 647 2778 891 
Q 2956 1147 3065 1494 
Q 3175 1841 3175 2156 
z
M 1394 2969 
Q 1625 3272 1939 3428 
Q 2253 3584 2638 3584 
Q 3175 3584 3472 3232 
Q 3769 2881 3769 2247 
Q 3769 1728 3584 1258 
Q 3400 788 3053 416 
Q 2822 169 2531 39 
Q 2241 -91 1919 -91 
Q 1547 -91 1294 64 
Q 1041 219 916 525 
L 556 -1331 
L -19 -1331 
L 922 3500 
L 1497 3500 
L 1394 2969 
z
" transform="scale(0.015625)"/>
        <path id="DejaVuSans-30" d="M 2034 4250 
Q 1547 4250 1301 3770 
Q 1056 3291 1056 2328 
Q 1056 1369 1301 889 
Q 1547 409 2034 409 
Q 2525 409 2770 889 
Q 3016 1369 3016 2328 
Q 3016 3291 2770 3770 
Q 2525 4250 2034 4250 
z
M 2034 4750 
Q 2819 4750 3233 4129 
Q 3647 3509 3647 2328 
Q 3647 1150 3233 529 
Q 2819 -91 2034 -91 
Q 1250 -91 836 529 
Q 422 1150 422 2328 
Q 422 3509 836 4129 
Q 1250 4750 2034 4750 
z
" transform="scale(0.015625)"/>
       </defs>
       <use xlink:href="#DejaVuSans-Oblique-70"/>
       <use xlink:href="#DejaVuSans-30" transform="translate(63.476562 -16.40625)scale(0.7)"/>
      </g>
     </g>
    </g>
    <g id="text_3">
     <!-- Pressure -->
     <g transform="translate(8.318437 155.120531)rotate(-90)scale(0.1 -0.1)">
      <defs>
       <path id="DejaVuSans-72" d="M 2631 2963 
Q 2534 3019 2420 3045 
Q 2306 3072 2169 3072 
Q 1681 3072 1420 2755 
Q 1159 2438 1159 1844 
L 1159 0 
L 581 0 
L 581 3500 
L 1159 3500 
L 1159 2956 
Q 1341 3275 1631 3429 
Q 1922 3584 2338 3584 
Q 2397 3584 2469 3576 
Q 2541 3569 2628 3553 
L 2631 2963 
z
" transform="scale(0.015625)"/>
       <path id="DejaVuSans-65" d="M 3597 1894 
L 3597 1613 
L 953 1613 
Q 991 1019 1311 708 
Q 1631 397 2203 397 
Q 2534 397 2845 478 
Q 3156 559 3463 722 
L 3463 178 
Q 3153 47 2828 -22 
Q 2503 -91 2169 -91 
Q 1331 -91 842 396 
Q 353 884 353 1716 
Q 353 2575 817 3079 
Q 1281 3584 2069 3584 
Q 2775 3584 3186 3129 
Q 3597 2675 3597 1894 
z
M 3022 2063 
Q 3016 2534 2758 2815 
Q 2500 3097 2075 3097 
Q 1594 3097 1305 2825 
Q 1016 2553 972 2059 
L 3022 2063 
z
" transform="scale(0.015625)"/>
       <path id="DejaVuSans-75" d="M 544 1381 
L 544 3500 
L 1119 3500 
L 1119 1403 
Q 1119 906 1312 657 
Q 1506 409 1894 409 
Q 2359 409 2629 706 
Q 2900 1003 2900 1516 
L 2900 3500 
L 3475 3500 
L 3475 0 
L 2900 0 
L 2900 538 
Q 2691 219 2414 64 
Q 2138 -91 1772 -91 
Q 1169 -91 856 284 
Q 544 659 544 1381 
z
M 1991 3584 
L 1991 3584 
z
" transform="scale(0.015625)"/>
      </defs>
      <use xlink:href="#DejaVuSans-50"/>
      <use xlink:href="#DejaVuSans-72" x="58.552734"/>
      <use xlink:href="#DejaVuSans-65" x="97.416016"/>
      <use xlink:href="#DejaVuSans-73" x="158.939453"/>
      <use xlink:href="#DejaVuSans-73" x="211.039062"/>
      <use xlink:href="#DejaVuSans-75" x="263.138672"/>
      <use xlink:href="#DejaVuSans-72" x="326.517578"/>
      <use xlink:href="#DejaVuSans-65" x="365.380859"/>
     </g>
    </g>
   </g>
   <g id="line2d_2">
    <path d="M 32.444552 45.736394 
L 33.158863 47.954162 
L 34.016037 51.391326 
L 35.087504 56.663396 
L 36.587558 65.268456 
L 40.087684 85.743356 
L 41.302013 91.378759 
L 42.302049 95.011807 
L 43.087792 97.138714 
L 43.802103 98.484806 
L 44.373553 99.152882 
L 44.873571 99.441995 
L 45.373589 99.46207 
L 45.873607 99.223319 
L 46.445056 98.65126 
L 47.087936 97.657263 
L 47.873679 96.001462 
L 48.873715 93.335601 
L 50.4452 88.394387 
L 52.659565 81.498953 
L 53.731032 78.860003 
L 54.588206 77.30654 
L 55.231086 76.531395 
L 55.802535 76.151465 
L 56.302553 76.070683 
L 56.802571 76.231895 
L 57.302589 76.638185 
L 57.874039 77.401764 
L 58.516919 78.634029 
L 59.302661 80.649717 
L 60.231266 83.684847 
L 61.374165 88.218274 
L 63.088512 96.057383 
L 65.731464 108.118454 
L 66.945794 112.617812 
L 67.874399 115.28636 
L 68.660141 116.918672 
L 69.303021 117.786968 
L 69.874471 118.189174 
L 70.374489 118.250465 
L 70.803075 118.086962 
L 71.303093 117.647484 
L 71.874543 116.826639 
L 72.588854 115.348862 
L 73.446028 112.978013 
L 74.517495 109.261288 
L 76.08898 102.85238 
L 78.517639 92.986438 
L 79.589106 89.594006 
L 80.374849 87.779996 
L 81.017729 86.817651 
L 81.517747 86.435095 
L 81.946334 86.382363 
L 82.374921 86.597509 
L 82.803508 87.091534 
L 83.303526 88.032012 
L 83.874975 89.598947 
L 84.589286 92.306386 
L 85.375029 96.242222 
L 86.303634 102.146282 
L 87.375101 110.518603 
L 88.660861 122.445553 
L 90.375209 140.595387 
L 94.375353 183.72271 
L 95.661113 194.926472 
L 96.73258 202.4092 
L 97.589754 206.969356 
L 98.304066 209.713848 
L 98.875515 211.187231 
L 99.375533 211.938792 
L 99.732688 212.166357 
L 100.089844 212.136546 
L 100.447 211.851046 
L 100.875587 211.175139 
L 101.375605 209.936594 
L 102.018485 207.657324 
L 102.732796 204.269605 
L 103.58997 199.121945 
L 104.661437 191.261884 
L 106.09006 178.921704 
L 108.804444 152.91821 
L 110.804516 134.848007 
L 112.161707 124.428922 
L 113.304606 117.239082 
L 114.304642 112.281335 
L 115.161815 109.057999 
L 115.947558 106.925725 
L 116.590438 105.742439 
L 117.161887 105.089433 
L 117.661905 104.804216 
L 118.161923 104.764115 
L 118.661941 104.945537 
L 119.233391 105.391019 
L 119.947702 106.244415 
L 120.947738 107.839455 
L 124.519295 113.959077 
L 125.305038 114.75265 
L 125.947918 115.13074 
L 126.519367 115.239355 
L 127.090816 115.121586 
L 127.662265 114.771713 
L 128.305146 114.101241 
L 129.019457 113.024084 
L 129.876631 111.307183 
L 130.948098 108.615909 
L 132.519583 103.964621 
L 134.876811 97.002324 
L 135.948278 94.532546 
L 136.734021 93.220588 
L 137.376901 92.534442 
L 137.876919 92.271981 
L 138.376937 92.265818 
L 138.805524 92.475311 
L 139.305542 92.980094 
L 139.876991 93.909657 
L 140.519871 95.411692 
L 141.305614 97.900616 
L 142.162787 101.407423 
L 143.162823 106.459762 
L 144.377153 113.770558 
L 146.0915 125.576245 
L 149.305902 147.927849 
L 150.520231 154.81394 
L 151.520267 159.295332 
L 152.30601 161.908884 
L 152.94889 163.389236 
L 153.520339 164.178527 
L 153.948926 164.434973 
L 154.306082 164.425596 
L 154.663238 164.212282 
L 155.091824 163.687402 
L 155.591842 162.707669 
L 156.234723 160.879851 
L 156.949034 158.131863 
L 157.806208 153.914657 
L 158.877675 147.419648 
L 160.234867 137.710035 
L 165.235047 100.394392 
L 166.306514 94.743799 
L 167.163688 91.348906 
L 167.877999 89.373849 
L 168.449448 88.386218 
L 168.878035 88.000997 
L 169.235191 87.915444 
L 169.592346 88.044441 
L 170.020933 88.481178 
L 170.520951 89.374391 
L 171.0924 90.888118 
L 171.806712 93.485408 
L 172.663886 97.554328 
L 173.663922 103.439456 
L 175.021113 112.921222 
L 177.94979 135.652755 
L 179.521275 146.750914 
L 180.664174 153.404222 
L 181.592778 157.626474 
L 182.378521 160.241925 
L 183.021401 161.676966 
L 183.521419 162.336882 
L 183.950006 162.579115 
L 184.307162 162.551722 
L 184.664318 162.316361 
L 185.092904 161.761772 
L 185.592922 160.745993 
L 186.235803 158.875219 
L 187.021545 155.774546 
L 187.95015 151.065846 
L 189.093048 143.965988 
L 190.593102 133.081293 
L 195.307558 97.684059 
L 196.593319 90.21952 
L 197.664786 85.250945 
L 198.593391 81.94004 
L 199.379133 79.868175 
L 200.093445 78.548343 
L 200.736325 77.794265 
L 201.307774 77.443253 
L 201.879223 77.364851 
L 202.450672 77.527976 
L 203.093553 77.957022 
L 203.879295 78.758907 
L 205.093625 80.369345 
L 207.236559 83.239861 
L 208.165164 84.091886 
L 208.879475 84.465486 
L 209.522355 84.552793 
L 210.093805 84.413659 
L 210.736685 84.001125 
L 211.379565 83.31342 
L 212.165308 82.107366 
L 213.022481 80.366378 
L 214.093949 77.666249 
L 215.736865 72.819437 
L 217.879799 66.60755 
L 218.879835 64.363636 
L 219.665578 63.122753 
L 220.237027 62.580698 
L 220.737045 62.391259 
L 221.165632 62.460021 
L 221.594219 62.756771 
L 222.094237 63.407309 
L 222.665686 64.571822 
L 223.308566 66.440678 
L 224.022877 69.230213 
L 224.880051 73.576499 
L 225.808656 79.489418 
L 226.880123 87.769557 
L 228.165884 99.493528 
L 229.880231 117.328408 
L 234.1661 162.946449 
L 235.45186 173.907074 
L 236.523328 181.211405 
L 237.380501 185.654776 
L 238.094813 188.324526 
L 238.666262 189.755327 
L 239.16628 190.483597 
L 239.523436 190.703147 
L 239.880591 190.67296 
L 240.237747 190.395128 
L 240.666334 189.739627 
L 241.166352 188.541276 
L 241.809232 186.341522 
L 242.594975 182.711765 
L 243.52358 177.229771 
L 244.666478 169.021338 
L 246.237963 155.940581 
L 250.023814 123.749526 
L 251.238143 115.47819 
L 252.238179 110.019904 
L 253.095353 106.458957 
L 253.809664 104.333873 
L 254.452544 103.093853 
L 254.952562 102.570962 
L 255.381149 102.426639 
L 255.738305 102.516495 
L 256.166892 102.8698 
L 256.66691 103.607935 
L 257.238359 104.85772 
L 257.95267 106.97851 
L 258.809844 110.237448 
L 259.952742 115.533431 
L 261.738521 125.051104 
L 264.095749 137.414183 
L 265.310078 142.65181 
L 266.310114 146.02558 
L 267.095857 147.976981 
L 267.810168 149.174778 
L 268.381617 149.725966 
L 268.881635 149.910344 
L 269.310222 149.8498 
L 269.81024 149.53052 
L 270.381689 148.851013 
L 271.02457 147.711337 
L 271.810312 145.834118 
L 272.810348 142.805117 
L 274.16754 137.905663 
L 277.453373 125.723284 
L 278.52484 122.690946 
L 279.382013 120.87843 
L 280.096325 119.851946 
L 280.667774 119.372631 
L 281.167792 119.211988 
L 281.66781 119.29637 
L 282.167828 119.625389 
L 282.739277 120.29567 
L 283.382157 121.410549 
L 284.1679 123.255158 
L 285.096505 126.033956 
L 286.310834 130.424486 
L 288.810924 140.599577 
L 290.382409 146.425446 
L 291.453877 149.583427 
L 292.31105 151.446646 
L 293.025362 152.473861 
L 293.596811 152.922342 
L 294.096829 153.030607 
L 294.525416 152.908117 
L 295.025434 152.51277 
L 295.596883 151.731084 
L 296.239763 150.443038 
L 297.025506 148.315679 
L 297.954111 145.102194 
L 299.16844 139.991683 
L 301.239943 130.050331 
L 303.025722 121.898578 
L 304.097189 117.945305 
L 304.954363 115.57816 
L 305.597243 114.369908 
L 306.097261 113.807356 
L 306.525848 113.60708 
L 306.883003 113.648372 
L 307.31159 113.956588 
L 307.740177 114.554619 
L 308.240195 115.62631 
L 308.883075 117.603267 
L 309.597387 120.589147 
L 310.454561 125.242004 
L 311.454597 132.055627 
L 312.597495 141.451979 
L 314.097549 155.793312 
L 319.454885 209.133451 
L 320.597783 217.388147 
L 321.526388 222.547179 
L 322.31213 225.694431 
L 322.955011 227.385116 
L 323.455029 228.132103 
L 323.812184 228.357334 
L 324.16934 228.324743 
L 324.526496 228.034943 
L 324.955083 227.35038 
L 325.455101 226.094652 
L 326.097981 223.777855 
L 326.812292 220.321863 
L 327.669466 215.046003 
L 328.740933 206.940112 
L 330.098125 194.784955 
L 332.241059 173.185205 
L 334.955443 146.236166 
L 336.455497 133.546548 
L 337.669826 125.06956 
L 338.741293 119.11077 
L 339.669898 115.143388 
L 340.455641 112.641087 
L 341.169952 111.01345 
L 341.812832 110.038547 
L 342.384282 109.527535 
L 342.955731 109.316146 
L 343.52718 109.366733 
L 344.17006 109.685937 
L 344.955803 110.366365 
L 346.098701 111.699073 
L 348.098773 114.038579 
L 348.955947 114.694656 
L 349.670258 114.964363 
L 350.241707 114.963857 
L 350.813157 114.750989 
L 351.456037 114.242267 
L 352.098917 113.440082 
L 352.88466 112.062784 
L 353.741833 110.086562 
L 354.813301 107.004837 
L 356.241923 102.116146 
L 359.813481 89.541118 
L 360.813517 86.944302 
L 361.599259 85.453017 
L 362.242139 84.656945 
L 362.742157 84.328151 
L 363.242175 84.269266 
L 363.670762 84.442029 
L 364.17078 84.910886 
L 364.742229 85.804262 
L 365.38511 87.265364 
L 366.170852 89.69295 
L 367.028026 93.102956 
L 368.099493 98.361162 
L 369.456685 106.2745 
L 372.028206 123.017891 
L 373.813985 133.840945 
L 374.956883 139.515567 
L 375.885488 143.080543 
L 376.599799 145.065739 
L 377.242679 146.231581 
L 377.742697 146.7082 
L 378.171284 146.807142 
L 378.52844 146.667475 
L 378.957027 146.231041 
L 379.457045 145.350883 
L 380.028494 143.860381 
L 380.742805 141.289357 
L 381.528548 137.599375 
L 382.528584 131.720535 
L 383.742913 123.099897 
L 385.457261 109.084504 
L 388.814525 81.302885 
L 389.671698 75.346456 
L 389.671698 75.346456 
" clip-path="url(#peb298c733b)" style="fill: none; stroke: #000000; stroke-width: 1.5; stroke-linecap: square"/>
   </g>
   <g id="line2d_3">
    <path d="M 32.498125 133.776 
L 389.618125 133.776 
" clip-path="url(#peb298c733b)" style="fill: none; stroke-dasharray: 5.55,2.4; stroke-dashoffset: 0; stroke: #808080; stroke-width: 1.5"/>
   </g>
   <g id="patch_3">
    <path d="M 32.498125 266.832 
L 32.498125 0.72 
" style="fill: none; stroke: #000000; stroke-width: 0.8; stroke-linejoin: miter; stroke-linecap: square"/>
   </g>
   <g id="patch_4">
    <path d="M 389.618125 266.832 
L 389.618125 0.72 
" style="fill: none; stroke: #000000; stroke-width: 0.8; stroke-linejoin: miter; stroke-linecap: square"/>
   </g>
   <g id="patch_5">
    <path d="M 32.498125 266.832 
L 389.618125 266.832 
" style="fill: none; stroke: #000000; stroke-width: 0.8; stroke-linejoin: miter; stroke-linecap: square"/>
   </g>
   <g id="patch_6">
    <path d="M 32.498125 0.72 
L 389.618125 0.72 
" style="fill: none; stroke: #000000; stroke-width: 0.8; stroke-linejoin: miter; stroke-linecap: square"/>
   </g>
  </g>
 </g>
 <defs>
  <clipPath id="peb298c733b">
   <rect x="32.498125" y="0.72" width="357.12" height="266.112"/>
  </clipPath>
 </defs>
</svg>
