<?xml version="1.0" encoding="utf-8" standalone="no"?>
<!DOCTYPE svg PUBLIC "-//W3C//DTD SVG 1.1//EN"
  "http://www.w3.org/Graphics/SVG/1.1/DTD/svg11.dtd">
<svg xmlns:xlink="http://www.w3.org/1999/xlink" width="460.8pt" height="345.6pt" viewBox="0 0 460.8 345.6" xmlns="http://www.w3.org/2000/svg" version="1.1">
 <metadata>
  <rdf:RDF xmlns:dc="http://purl.org/dc/elements/1.1/" xmlns:cc="http://creativecommons.org/ns#" xmlns:rdf="http://www.w3.org/1999/02/22-rdf-syntax-ns#">
   <cc:Work>
    <dc:type rdf:resource="http://purl.org/dc/dcmitype/StillImage"/>
    <dc:date>2022-05-24T14:14:05.864650</dc:date>
    <dc:format>image/svg+xml</dc:format>
    <dc:creator>
     <cc:Agent>
      <dc:title>Matplotlib v3.5.1, https://matplotlib.org/</dc:title>
     </cc:Agent>
    </dc:creator>
   </cc:Work>
  </rdf:RDF>
 </metadata>
 <defs>
  <style type="text/css">*{stroke-linejoin: round; stroke-linecap: butt}</style>
 </defs>
 <g id="figure_1">
  <g id="patch_1">
   <path d="M 0 345.6 
L 460.8 345.6 
L 460.8 0 
L 0 0 
z
" style="fill: #ffffff"/>
  </g>
  <g id="axes_1">
   <g id="patch_2">
    <path d="M 0 317.622857 
L 460.8 317.622857 
L 460.8 27.977143 
L 0 27.977143 
z
" style="fill: #ffffff"/>
   </g>
   <g id="matplotlib.axis_1">
    <g id="xtick_1">
     <g id="line2d_1">
      <defs>
       <path id="m2da916620f" d="M 0 0 
L 0 3.5 
" style="stroke: #000000; stroke-width: 0.8"/>
      </defs>
      <g>
       <use xlink:href="#m2da916620f" x="32.914286" y="317.622857" style="stroke: #000000; stroke-width: 0.8"/>
      </g>
     </g>
     <g id="text_1">
      <!-- −30 -->
      <g transform="translate(22.361942 332.221295)scale(0.1 -0.1)">
       <defs>
        <path id="DejaVuSans-2212" d="M 678 2272 
L 4684 2272 
L 4684 1741 
L 678 1741 
L 678 2272 
z
" transform="scale(0.015625)"/>
        <path id="DejaVuSans-33" d="M 2597 2516 
Q 3050 2419 3304 2112 
Q 3559 1806 3559 1356 
Q 3559 666 3084 287 
Q 2609 -91 1734 -91 
Q 1441 -91 1130 -33 
Q 819 25 488 141 
L 488 750 
Q 750 597 1062 519 
Q 1375 441 1716 441 
Q 2309 441 2620 675 
Q 2931 909 2931 1356 
Q 2931 1769 2642 2001 
Q 2353 2234 1838 2234 
L 1294 2234 
L 1294 2753 
L 1863 2753 
Q 2328 2753 2575 2939 
Q 2822 3125 2822 3475 
Q 2822 3834 2567 4026 
Q 2313 4219 1838 4219 
Q 1578 4219 1281 4162 
Q 984 4106 628 3988 
L 628 4550 
Q 988 4650 1302 4700 
Q 1616 4750 1894 4750 
Q 2613 4750 3031 4423 
Q 3450 4097 3450 3541 
Q 3450 3153 3228 2886 
Q 3006 2619 2597 2516 
z
" transform="scale(0.015625)"/>
        <path id="DejaVuSans-30" d="M 2034 4250 
Q 1547 4250 1301 3770 
Q 1056 3291 1056 2328 
Q 1056 1369 1301 889 
Q 1547 409 2034 409 
Q 2525 409 2770 889 
Q 3016 1369 3016 2328 
Q 3016 3291 2770 3770 
Q 2525 4250 2034 4250 
z
M 2034 4750 
Q 2819 4750 3233 4129 
Q 3647 3509 3647 2328 
Q 3647 1150 3233 529 
Q 2819 -91 2034 -91 
Q 1250 -91 836 529 
Q 422 1150 422 2328 
Q 422 3509 836 4129 
Q 1250 4750 2034 4750 
z
" transform="scale(0.015625)"/>
       </defs>
       <use xlink:href="#DejaVuSans-2212"/>
       <use xlink:href="#DejaVuSans-33" x="83.789062"/>
       <use xlink:href="#DejaVuSans-30" x="147.412109"/>
      </g>
     </g>
    </g>
    <g id="xtick_2">
     <g id="line2d_2">
      <g>
       <use xlink:href="#m2da916620f" x="98.742857" y="317.622857" style="stroke: #000000; stroke-width: 0.8"/>
      </g>
     </g>
     <g id="text_2">
      <!-- −20 -->
      <g transform="translate(88.190513 332.221295)scale(0.1 -0.1)">
       <defs>
        <path id="DejaVuSans-32" d="M 1228 531 
L 3431 531 
L 3431 0 
L 469 0 
L 469 531 
Q 828 903 1448 1529 
Q 2069 2156 2228 2338 
Q 2531 2678 2651 2914 
Q 2772 3150 2772 3378 
Q 2772 3750 2511 3984 
Q 2250 4219 1831 4219 
Q 1534 4219 1204 4116 
Q 875 4013 500 3803 
L 500 4441 
Q 881 4594 1212 4672 
Q 1544 4750 1819 4750 
Q 2544 4750 2975 4387 
Q 3406 4025 3406 3419 
Q 3406 3131 3298 2873 
Q 3191 2616 2906 2266 
Q 2828 2175 2409 1742 
Q 1991 1309 1228 531 
z
" transform="scale(0.015625)"/>
       </defs>
       <use xlink:href="#DejaVuSans-2212"/>
       <use xlink:href="#DejaVuSans-32" x="83.789062"/>
       <use xlink:href="#DejaVuSans-30" x="147.412109"/>
      </g>
     </g>
    </g>
    <g id="xtick_3">
     <g id="line2d_3">
      <g>
       <use xlink:href="#m2da916620f" x="164.571429" y="317.622857" style="stroke: #000000; stroke-width: 0.8"/>
      </g>
     </g>
     <g id="text_3">
      <!-- −10 -->
      <g transform="translate(154.019085 332.221295)scale(0.1 -0.1)">
       <defs>
        <path id="DejaVuSans-31" d="M 794 531 
L 1825 531 
L 1825 4091 
L 703 3866 
L 703 4441 
L 1819 4666 
L 2450 4666 
L 2450 531 
L 3481 531 
L 3481 0 
L 794 0 
L 794 531 
z
" transform="scale(0.015625)"/>
       </defs>
       <use xlink:href="#DejaVuSans-2212"/>
       <use xlink:href="#DejaVuSans-31" x="83.789062"/>
       <use xlink:href="#DejaVuSans-30" x="147.412109"/>
      </g>
     </g>
    </g>
    <g id="xtick_4">
     <g id="line2d_4">
      <g>
       <use xlink:href="#m2da916620f" x="230.4" y="317.622857" style="stroke: #000000; stroke-width: 0.8"/>
      </g>
     </g>
     <g id="text_4">
      <!-- 0 -->
      <g transform="translate(227.21875 332.221295)scale(0.1 -0.1)">
       <use xlink:href="#DejaVuSans-30"/>
      </g>
     </g>
    </g>
    <g id="xtick_5">
     <g id="line2d_5">
      <g>
       <use xlink:href="#m2da916620f" x="296.228571" y="317.622857" style="stroke: #000000; stroke-width: 0.8"/>
      </g>
     </g>
     <g id="text_5">
      <!-- 10 -->
      <g transform="translate(289.866071 332.221295)scale(0.1 -0.1)">
       <use xlink:href="#DejaVuSans-31"/>
       <use xlink:href="#DejaVuSans-30" x="63.623047"/>
      </g>
     </g>
    </g>
    <g id="xtick_6">
     <g id="line2d_6">
      <g>
       <use xlink:href="#m2da916620f" x="362.057143" y="317.622857" style="stroke: #000000; stroke-width: 0.8"/>
      </g>
     </g>
     <g id="text_6">
      <!-- 20 -->
      <g transform="translate(355.694643 332.221295)scale(0.1 -0.1)">
       <use xlink:href="#DejaVuSans-32"/>
       <use xlink:href="#DejaVuSans-30" x="63.623047"/>
      </g>
     </g>
    </g>
    <g id="xtick_7">
     <g id="line2d_7">
      <g>
       <use xlink:href="#m2da916620f" x="427.885714" y="317.622857" style="stroke: #000000; stroke-width: 0.8"/>
      </g>
     </g>
     <g id="text_7">
      <!-- 30 -->
      <g transform="translate(421.523214 332.221295)scale(0.1 -0.1)">
       <use xlink:href="#DejaVuSans-33"/>
       <use xlink:href="#DejaVuSans-30" x="63.623047"/>
      </g>
     </g>
    </g>
   </g>
   <g id="matplotlib.axis_2"/>
   <g id="line2d_8">
    <path d="M 0 187.734612 
L 2.4192 187.831894 
L 4.8384 187.702325 
L 7.2576 187.349178 
L 10.0224 186.712651 
L 14.0544 185.520381 
L 18.5472 184.244353 
L 21.0816 183.750257 
L 23.2704 183.535074 
L 25.344 183.543708 
L 27.4176 183.76951 
L 29.6064 184.233612 
L 32.0256 184.97648 
L 35.3664 186.260166 
L 40.4352 188.209837 
L 42.8544 188.880865 
L 44.928 189.21913 
L 46.7712 189.299487 
L 48.6144 189.155438 
L 50.4576 188.785349 
L 52.416 188.159726 
L 54.6048 187.219573 
L 57.4848 185.718254 
L 63.0144 182.785894 
L 65.088 181.959063 
L 66.9312 181.458371 
L 68.544 181.238714 
L 70.1568 181.245171 
L 71.7696 181.488538 
L 73.3824 181.968594 
L 75.1104 182.732106 
L 76.9536 183.798378 
L 79.1424 185.329928 
L 82.8288 188.238756 
L 85.9392 190.57892 
L 87.8976 191.790013 
L 89.5104 192.549158 
L 91.008 193.016485 
L 92.3904 193.21753 
L 93.6576 193.192064 
L 94.9248 192.95743 
L 96.192 192.510863 
L 97.5744 191.785523 
L 99.072 190.732686 
L 100.6848 189.317061 
L 102.528 187.399126 
L 104.9472 184.541718 
L 110.592 177.747465 
L 112.4352 175.95061 
L 113.9328 174.791969 
L 115.2 174.069599 
L 116.352 173.645789 
L 117.504 173.463883 
L 118.5408 173.519821 
L 119.5776 173.792462 
L 120.6144 174.286961 
L 121.7664 175.098836 
L 122.9184 176.184694 
L 124.1856 177.68657 
L 125.568 179.672273 
L 127.1808 182.403733 
L 129.024 185.985761 
L 131.4432 191.215354 
L 137.3184 204.165852 
L 139.0464 207.364992 
L 140.544 209.680183 
L 141.8112 211.227754 
L 142.848 212.170282 
L 143.7696 212.737935 
L 144.576 213.010509 
L 145.3824 213.061797 
L 146.1888 212.881424 
L 146.9952 212.460249 
L 147.8016 211.790451 
L 148.7232 210.71236 
L 149.6448 209.293963 
L 150.6816 207.285867 
L 151.8336 204.539974 
L 153.1008 200.897905 
L 154.4832 196.198841 
L 155.9808 190.291141 
L 157.7088 182.498683 
L 159.6672 172.561243 
L 162.0864 159.015801 
L 166.0032 135.536316 
L 169.4592 115.320783 
L 171.5328 104.444435 
L 173.1456 97.064259 
L 174.528 91.705692 
L 175.68 88.045591 
L 176.7168 85.458103 
L 177.5232 83.951222 
L 178.2144 83.03593 
L 178.9056 82.486378 
L 179.4816 82.319684 
L 180.0576 82.427315 
L 180.6336 82.817552 
L 181.2096 83.497934 
L 181.9008 84.706731 
L 182.7072 86.669894 
L 183.5136 89.238828 
L 184.4352 92.923232 
L 185.472 98.018153 
L 186.624 104.826602 
L 188.0064 114.478957 
L 189.6192 127.462121 
L 192.1536 150.015652 
L 194.4576 169.795857 
L 195.7248 178.939698 
L 196.7616 184.923082 
L 197.568 188.440099 
L 198.2592 190.575895 
L 198.8352 191.70276 
L 199.296 192.166881 
L 199.6416 192.258359 
L 199.9872 192.130674 
L 200.3328 191.785923 
L 200.7936 190.994461 
L 201.3696 189.487796 
L 202.0608 186.959023 
L 202.8672 183.092464 
L 203.904 176.845893 
L 205.1712 167.621886 
L 206.784 154.087212 
L 209.8944 125.546702 
L 212.6592 101.088924 
L 214.5024 86.703065 
L 216 76.624182 
L 217.3824 68.819599 
L 218.5344 63.520022 
L 219.5712 59.741998 
L 220.4928 57.201433 
L 221.2992 55.624317 
L 221.9904 54.75883 
L 222.5664 54.38296 
L 223.0272 54.30898 
L 223.488 54.436585 
L 224.064 54.879074 
L 224.64 55.634697 
L 225.3312 56.951694 
L 226.1376 59.047028 
L 227.0592 62.164691 
L 228.096 66.567872 
L 229.248 72.527578 
L 230.5152 80.306912 
L 232.0128 91.018811 
L 233.7408 105.179203 
L 235.6992 123.141777 
L 238.3488 149.702063 
L 245.4912 222.590624 
L 247.5648 240.849755 
L 249.2928 254.129839 
L 250.7904 263.946318 
L 252.0576 270.8893 
L 253.2096 276.04331 
L 254.2464 279.700505 
L 255.168 282.152531 
L 255.9744 283.674725 
L 256.6656 284.515593 
L 257.2416 284.890556 
L 257.8176 284.971748 
L 258.2784 284.827391 
L 258.8544 284.388891 
L 259.4304 283.668564 
L 260.1216 282.44096 
L 260.928 280.524082 
L 261.8496 277.72314 
L 262.8864 273.842717 
L 264.1536 268.144718 
L 265.6512 260.232844 
L 267.3792 249.831436 
L 269.7984 233.752898 
L 275.328 196.435743 
L 277.2864 185.001972 
L 278.8992 176.89279 
L 280.2816 171.061808 
L 281.4336 167.074333 
L 282.4704 164.203264 
L 283.392 162.240545 
L 284.1984 160.985342 
L 284.8896 160.254252 
L 285.5808 159.8403 
L 286.1568 159.735414 
L 286.7328 159.845831 
L 287.3088 160.167858 
L 288 160.827153 
L 288.8064 161.96047 
L 289.728 163.713938 
L 290.7648 166.233704 
L 291.9168 169.65365 
L 293.2992 174.51356 
L 294.912 181.040255 
L 296.9856 190.405161 
L 305.1648 228.448152 
L 307.008 235.516158 
L 308.736 241.299796 
L 310.3488 245.941495 
L 311.9616 249.891977 
L 313.5744 253.244734 
L 315.4176 256.534427 
L 320.6016 265.371888 
L 322.0992 268.603716 
L 323.712 272.658761 
L 328.2048 284.476868 
L 329.0112 285.77925 
L 329.5872 286.370703 
L 330.048 286.609787 
L 330.5088 286.622758 
L 330.9696 286.396938 
L 331.4304 285.923725 
L 332.0064 284.977966 
L 332.6976 283.325109 
L 333.504 280.706584 
L 334.4256 276.872151 
L 335.5776 270.984486 
L 336.96 262.658326 
L 338.9184 249.358349 
L 344.5632 210.190458 
L 346.4064 199.248621 
L 348.0192 190.913725 
L 349.5168 184.316727 
L 350.8992 179.242312 
L 352.1664 175.449462 
L 353.3184 172.699361 
L 354.3552 170.771768 
L 355.2768 169.473365 
L 356.1984 168.543984 
L 357.0048 168.015006 
L 357.8112 167.733283 
L 358.6176 167.680473 
L 359.424 167.837387 
L 360.3456 168.248111 
L 361.3824 168.969162 
L 362.5344 170.041301 
L 364.032 171.768219 
L 365.9904 174.404056 
L 372.3264 183.213401 
L 374.1696 185.277855 
L 375.7824 186.776803 
L 377.28 187.892926 
L 378.7776 188.741617 
L 380.2752 189.332928 
L 381.7728 189.686494 
L 383.3856 189.832468 
L 385.1136 189.763518 
L 387.1872 189.447717 
L 390.0672 188.753549 
L 396.9792 186.999529 
L 400.0896 186.492314 
L 403.4304 186.180413 
L 408.1536 185.990414 
L 415.4112 185.678523 
L 423.5904 185.00717 
L 427.8528 184.808676 
L 431.3088 184.874953 
L 434.6496 185.16414 
L 438.6816 185.754115 
L 447.3216 187.099779 
L 450.432 187.30849 
L 453.312 187.285134 
L 456.3072 187.039777 
L 459.8784 186.512497 
L 460.8 186.349216 
L 460.8 186.349216 
" clip-path="url(#p17021b23b9)" style="fill: none; stroke: #1f77b4; stroke-width: 1.5; stroke-linecap: square"/>
   </g>
   <g id="LineCollection_1">
    <path d="M 0 185.965714 
L 0 187.734612 
" clip-path="url(#p17021b23b9)" style="fill: none; stroke: #000000; stroke-width: 1.5"/>
    <path d="M 6.776471 185.965714 
L 6.776471 187.436131 
" clip-path="url(#p17021b23b9)" style="fill: none; stroke: #000000; stroke-width: 1.5"/>
    <path d="M 13.552941 185.965714 
L 13.552941 185.675478 
" clip-path="url(#p17021b23b9)" style="fill: none; stroke: #000000; stroke-width: 1.5"/>
    <path d="M 20.329412 185.965714 
L 20.329412 183.87221 
" clip-path="url(#p17021b23b9)" style="fill: none; stroke: #000000; stroke-width: 1.5"/>
    <path d="M 27.105882 185.965714 
L 27.105882 183.721822 
" clip-path="url(#p17021b23b9)" style="fill: none; stroke: #000000; stroke-width: 1.5"/>
    <path d="M 33.882353 185.965714 
L 33.882353 185.666123 
" clip-path="url(#p17021b23b9)" style="fill: none; stroke: #000000; stroke-width: 1.5"/>
    <path d="M 40.658824 185.965714 
L 40.658824 188.282184 
" clip-path="url(#p17021b23b9)" style="fill: none; stroke: #000000; stroke-width: 1.5"/>
    <path d="M 47.435294 185.965714 
L 47.435294 189.273851 
" clip-path="url(#p17021b23b9)" style="fill: none; stroke: #000000; stroke-width: 1.5"/>
    <path d="M 54.211765 185.965714 
L 54.211765 187.404317 
" clip-path="url(#p17021b23b9)" style="fill: none; stroke: #000000; stroke-width: 1.5"/>
    <path d="M 60.988235 185.965714 
L 60.988235 183.788151 
" clip-path="url(#p17021b23b9)" style="fill: none; stroke: #000000; stroke-width: 1.5"/>
    <path d="M 67.764706 185.965714 
L 67.764706 181.317686 
" clip-path="url(#p17021b23b9)" style="fill: none; stroke: #000000; stroke-width: 1.5"/>
    <path d="M 74.541176 185.965714 
L 74.541176 182.453554 
" clip-path="url(#p17021b23b9)" style="fill: none; stroke: #000000; stroke-width: 1.5"/>
    <path d="M 81.317647 185.965714 
L 81.317647 187.02773 
" clip-path="url(#p17021b23b9)" style="fill: none; stroke: #000000; stroke-width: 1.5"/>
    <path d="M 88.094118 185.965714 
L 88.094118 191.895256 
" clip-path="url(#p17021b23b9)" style="fill: none; stroke: #000000; stroke-width: 1.5"/>
    <path d="M 94.870588 185.965714 
L 94.870588 192.971807 
" clip-path="url(#p17021b23b9)" style="fill: none; stroke: #000000; stroke-width: 1.5"/>
    <path d="M 101.647059 185.965714 
L 101.647059 188.350992 
" clip-path="url(#p17021b23b9)" style="fill: none; stroke: #000000; stroke-width: 1.5"/>
    <path d="M 108.423529 185.965714 
L 108.423529 180.230484 
" clip-path="url(#p17021b23b9)" style="fill: none; stroke: #000000; stroke-width: 1.5"/>
    <path d="M 115.2 185.965714 
L 115.2 174.069599 
" clip-path="url(#p17021b23b9)" style="fill: none; stroke: #000000; stroke-width: 1.5"/>
    <path d="M 121.976471 185.965714 
L 121.976471 175.276568 
" clip-path="url(#p17021b23b9)" style="fill: none; stroke: #000000; stroke-width: 1.5"/>
    <path d="M 128.752941 185.965714 
L 128.752941 185.432694 
" clip-path="url(#p17021b23b9)" style="fill: none; stroke: #000000; stroke-width: 1.5"/>
    <path d="M 135.529412 185.965714 
L 135.529412 200.424792 
" clip-path="url(#p17021b23b9)" style="fill: none; stroke: #000000; stroke-width: 1.5"/>
    <path d="M 142.305882 185.965714 
L 142.305882 211.715929 
" clip-path="url(#p17021b23b9)" style="fill: none; stroke: #000000; stroke-width: 1.5"/>
    <path d="M 149.082353 185.965714 
L 149.082353 210.200384 
" clip-path="url(#p17021b23b9)" style="fill: none; stroke: #000000; stroke-width: 1.5"/>
    <path d="M 155.858824 185.965714 
L 155.858824 190.802802 
" clip-path="url(#p17021b23b9)" style="fill: none; stroke: #000000; stroke-width: 1.5"/>
    <path d="M 162.635294 185.965714 
L 162.635294 155.799051 
" clip-path="url(#p17021b23b9)" style="fill: none; stroke: #000000; stroke-width: 1.5"/>
    <path d="M 169.411765 185.965714 
L 169.411765 115.584006 
" clip-path="url(#p17021b23b9)" style="fill: none; stroke: #000000; stroke-width: 1.5"/>
    <path d="M 176.188235 185.965714 
L 176.188235 86.689227 
" clip-path="url(#p17021b23b9)" style="fill: none; stroke: #000000; stroke-width: 1.5"/>
    <path d="M 182.964706 185.965714 
L 182.964706 87.424008 
" clip-path="url(#p17021b23b9)" style="fill: none; stroke: #000000; stroke-width: 1.5"/>
    <path d="M 189.741176 185.965714 
L 189.741176 128.504322 
" clip-path="url(#p17021b23b9)" style="fill: none; stroke: #000000; stroke-width: 1.5"/>
    <path d="M 196.517647 185.965714 
L 196.517647 183.655232 
" clip-path="url(#p17021b23b9)" style="fill: none; stroke: #000000; stroke-width: 1.5"/>
    <path d="M 203.294118 185.965714 
L 203.294118 180.681767 
" clip-path="url(#p17021b23b9)" style="fill: none; stroke: #000000; stroke-width: 1.5"/>
    <path d="M 210.070588 185.965714 
L 210.070588 123.92441 
" clip-path="url(#p17021b23b9)" style="fill: none; stroke: #000000; stroke-width: 1.5"/>
    <path d="M 216.847059 185.965714 
L 216.847059 71.660988 
" clip-path="url(#p17021b23b9)" style="fill: none; stroke: #000000; stroke-width: 1.5"/>
    <path d="M 223.623529 185.965714 
L 223.623529 54.512445 
" clip-path="url(#p17021b23b9)" style="fill: none; stroke: #000000; stroke-width: 1.5"/>
    <path d="M 230.4 185.965714 
L 230.4 79.549137 
" clip-path="url(#p17021b23b9)" style="fill: none; stroke: #000000; stroke-width: 1.5"/>
    <path d="M 237.176471 185.965714 
L 237.176471 137.710257 
" clip-path="url(#p17021b23b9)" style="fill: none; stroke: #000000; stroke-width: 1.5"/>
    <path d="M 243.952941 185.965714 
L 243.952941 207.769506 
" clip-path="url(#p17021b23b9)" style="fill: none; stroke: #000000; stroke-width: 1.5"/>
    <path d="M 250.729412 185.965714 
L 250.729412 263.579762 
" clip-path="url(#p17021b23b9)" style="fill: none; stroke: #000000; stroke-width: 1.5"/>
    <path d="M 257.505882 185.965714 
L 257.505882 284.964105 
" clip-path="url(#p17021b23b9)" style="fill: none; stroke: #000000; stroke-width: 1.5"/>
    <path d="M 264.282353 185.965714 
L 264.282353 267.511732 
" clip-path="url(#p17021b23b9)" style="fill: none; stroke: #000000; stroke-width: 1.5"/>
    <path d="M 271.058824 185.965714 
L 271.058824 225.033852 
" clip-path="url(#p17021b23b9)" style="fill: none; stroke: #000000; stroke-width: 1.5"/>
    <path d="M 277.835294 185.965714 
L 277.835294 182.095631 
" clip-path="url(#p17021b23b9)" style="fill: none; stroke: #000000; stroke-width: 1.5"/>
    <path d="M 284.611765 185.965714 
L 284.611765 160.509894 
" clip-path="url(#p17021b23b9)" style="fill: none; stroke: #000000; stroke-width: 1.5"/>
    <path d="M 291.388235 185.965714 
L 291.388235 168.007881 
" clip-path="url(#p17021b23b9)" style="fill: none; stroke: #000000; stroke-width: 1.5"/>
    <path d="M 298.164706 185.965714 
L 298.164706 196.030216 
" clip-path="url(#p17021b23b9)" style="fill: none; stroke: #000000; stroke-width: 1.5"/>
    <path d="M 304.941176 185.965714 
L 304.941176 227.531874 
" clip-path="url(#p17021b23b9)" style="fill: none; stroke: #000000; stroke-width: 1.5"/>
    <path d="M 311.717647 185.965714 
L 311.717647 249.335711 
" clip-path="url(#p17021b23b9)" style="fill: none; stroke: #000000; stroke-width: 1.5"/>
    <path d="M 318.494118 185.965714 
L 318.494118 261.545993 
" clip-path="url(#p17021b23b9)" style="fill: none; stroke: #000000; stroke-width: 1.5"/>
    <path d="M 325.270588 185.965714 
L 325.270588 277.003658 
" clip-path="url(#p17021b23b9)" style="fill: none; stroke: #000000; stroke-width: 1.5"/>
    <path d="M 332.047059 185.965714 
L 332.047059 284.8963 
" clip-path="url(#p17021b23b9)" style="fill: none; stroke: #000000; stroke-width: 1.5"/>
    <path d="M 338.823529 185.965714 
L 338.823529 250.027653 
" clip-path="url(#p17021b23b9)" style="fill: none; stroke: #000000; stroke-width: 1.5"/>
    <path d="M 345.6 185.965714 
L 345.6 203.862546 
" clip-path="url(#p17021b23b9)" style="fill: none; stroke: #000000; stroke-width: 1.5"/>
    <path d="M 352.376471 185.965714 
L 352.376471 174.899055 
" clip-path="url(#p17021b23b9)" style="fill: none; stroke: #000000; stroke-width: 1.5"/>
    <path d="M 359.152941 185.965714 
L 359.152941 167.762458 
" clip-path="url(#p17021b23b9)" style="fill: none; stroke: #000000; stroke-width: 1.5"/>
    <path d="M 365.929412 185.965714 
L 365.929412 174.317795 
" clip-path="url(#p17021b23b9)" style="fill: none; stroke: #000000; stroke-width: 1.5"/>
    <path d="M 372.705882 185.965714 
L 372.705882 183.666726 
" clip-path="url(#p17021b23b9)" style="fill: none; stroke: #000000; stroke-width: 1.5"/>
    <path d="M 379.482353 185.965714 
L 379.482353 189.050942 
" clip-path="url(#p17021b23b9)" style="fill: none; stroke: #000000; stroke-width: 1.5"/>
    <path d="M 386.258824 185.965714 
L 386.258824 189.615099 
" clip-path="url(#p17021b23b9)" style="fill: none; stroke: #000000; stroke-width: 1.5"/>
    <path d="M 393.035294 185.965714 
L 393.035294 187.939586 
" clip-path="url(#p17021b23b9)" style="fill: none; stroke: #000000; stroke-width: 1.5"/>
    <path d="M 399.811765 185.965714 
L 399.811765 186.5285 
" clip-path="url(#p17021b23b9)" style="fill: none; stroke: #000000; stroke-width: 1.5"/>
    <path d="M 406.588235 185.965714 
L 406.588235 186.03666 
" clip-path="url(#p17021b23b9)" style="fill: none; stroke: #000000; stroke-width: 1.5"/>
    <path d="M 413.364706 185.965714 
L 413.364706 185.80147 
" clip-path="url(#p17021b23b9)" style="fill: none; stroke: #000000; stroke-width: 1.5"/>
    <path d="M 420.141176 185.965714 
L 420.141176 185.293926 
" clip-path="url(#p17021b23b9)" style="fill: none; stroke: #000000; stroke-width: 1.5"/>
    <path d="M 426.917647 185.965714 
L 426.917647 184.829309 
" clip-path="url(#p17021b23b9)" style="fill: none; stroke: #000000; stroke-width: 1.5"/>
    <path d="M 433.694118 185.965714 
L 433.694118 185.059746 
" clip-path="url(#p17021b23b9)" style="fill: none; stroke: #000000; stroke-width: 1.5"/>
    <path d="M 440.470588 185.965714 
L 440.470588 186.062662 
" clip-path="url(#p17021b23b9)" style="fill: none; stroke: #000000; stroke-width: 1.5"/>
    <path d="M 447.247059 185.965714 
L 447.247059 187.092084 
" clip-path="url(#p17021b23b9)" style="fill: none; stroke: #000000; stroke-width: 1.5"/>
    <path d="M 454.023529 185.965714 
L 454.023529 187.246389 
" clip-path="url(#p17021b23b9)" style="fill: none; stroke: #000000; stroke-width: 1.5"/>
    <path d="M 460.8 185.965714 
L 460.8 186.349216 
" clip-path="url(#p17021b23b9)" style="fill: none; stroke: #000000; stroke-width: 1.5"/>
   </g>
   <g id="line2d_9">
    <defs>
     <path id="m506a972995" d="M -0 4.242641 
L 4.242641 0 
L 0 -4.242641 
L -4.242641 -0 
z
" style="stroke: #000000; stroke-linejoin: miter"/>
    </defs>
    <g clip-path="url(#p17021b23b9)">
     <use xlink:href="#m506a972995" x="0" y="187.734612" style="stroke: #000000; stroke-linejoin: miter"/>
     <use xlink:href="#m506a972995" x="6.776471" y="187.436131" style="stroke: #000000; stroke-linejoin: miter"/>
     <use xlink:href="#m506a972995" x="13.552941" y="185.675478" style="stroke: #000000; stroke-linejoin: miter"/>
     <use xlink:href="#m506a972995" x="20.329412" y="183.87221" style="stroke: #000000; stroke-linejoin: miter"/>
     <use xlink:href="#m506a972995" x="27.105882" y="183.721822" style="stroke: #000000; stroke-linejoin: miter"/>
     <use xlink:href="#m506a972995" x="33.882353" y="185.666123" style="stroke: #000000; stroke-linejoin: miter"/>
     <use xlink:href="#m506a972995" x="40.658824" y="188.282184" style="stroke: #000000; stroke-linejoin: miter"/>
     <use xlink:href="#m506a972995" x="47.435294" y="189.273851" style="stroke: #000000; stroke-linejoin: miter"/>
     <use xlink:href="#m506a972995" x="54.211765" y="187.404317" style="stroke: #000000; stroke-linejoin: miter"/>
     <use xlink:href="#m506a972995" x="60.988235" y="183.788151" style="stroke: #000000; stroke-linejoin: miter"/>
     <use xlink:href="#m506a972995" x="67.764706" y="181.317686" style="stroke: #000000; stroke-linejoin: miter"/>
     <use xlink:href="#m506a972995" x="74.541176" y="182.453554" style="stroke: #000000; stroke-linejoin: miter"/>
     <use xlink:href="#m506a972995" x="81.317647" y="187.02773" style="stroke: #000000; stroke-linejoin: miter"/>
     <use xlink:href="#m506a972995" x="88.094118" y="191.895256" style="stroke: #000000; stroke-linejoin: miter"/>
     <use xlink:href="#m506a972995" x="94.870588" y="192.971807" style="stroke: #000000; stroke-linejoin: miter"/>
     <use xlink:href="#m506a972995" x="101.647059" y="188.350992" style="stroke: #000000; stroke-linejoin: miter"/>
     <use xlink:href="#m506a972995" x="108.423529" y="180.230484" style="stroke: #000000; stroke-linejoin: miter"/>
     <use xlink:href="#m506a972995" x="115.2" y="174.069599" style="stroke: #000000; stroke-linejoin: miter"/>
     <use xlink:href="#m506a972995" x="121.976471" y="175.276568" style="stroke: #000000; stroke-linejoin: miter"/>
     <use xlink:href="#m506a972995" x="128.752941" y="185.432694" style="stroke: #000000; stroke-linejoin: miter"/>
     <use xlink:href="#m506a972995" x="135.529412" y="200.424792" style="stroke: #000000; stroke-linejoin: miter"/>
     <use xlink:href="#m506a972995" x="142.305882" y="211.715929" style="stroke: #000000; stroke-linejoin: miter"/>
     <use xlink:href="#m506a972995" x="149.082353" y="210.200384" style="stroke: #000000; stroke-linejoin: miter"/>
     <use xlink:href="#m506a972995" x="155.858824" y="190.802802" style="stroke: #000000; stroke-linejoin: miter"/>
     <use xlink:href="#m506a972995" x="162.635294" y="155.799051" style="stroke: #000000; stroke-linejoin: miter"/>
     <use xlink:href="#m506a972995" x="169.411765" y="115.584006" style="stroke: #000000; stroke-linejoin: miter"/>
     <use xlink:href="#m506a972995" x="176.188235" y="86.689227" style="stroke: #000000; stroke-linejoin: miter"/>
     <use xlink:href="#m506a972995" x="182.964706" y="87.424008" style="stroke: #000000; stroke-linejoin: miter"/>
     <use xlink:href="#m506a972995" x="189.741176" y="128.504322" style="stroke: #000000; stroke-linejoin: miter"/>
     <use xlink:href="#m506a972995" x="196.517647" y="183.655232" style="stroke: #000000; stroke-linejoin: miter"/>
     <use xlink:href="#m506a972995" x="203.294118" y="180.681767" style="stroke: #000000; stroke-linejoin: miter"/>
     <use xlink:href="#m506a972995" x="210.070588" y="123.92441" style="stroke: #000000; stroke-linejoin: miter"/>
     <use xlink:href="#m506a972995" x="216.847059" y="71.660988" style="stroke: #000000; stroke-linejoin: miter"/>
     <use xlink:href="#m506a972995" x="223.623529" y="54.512445" style="stroke: #000000; stroke-linejoin: miter"/>
     <use xlink:href="#m506a972995" x="230.4" y="79.549137" style="stroke: #000000; stroke-linejoin: miter"/>
     <use xlink:href="#m506a972995" x="237.176471" y="137.710257" style="stroke: #000000; stroke-linejoin: miter"/>
     <use xlink:href="#m506a972995" x="243.952941" y="207.769506" style="stroke: #000000; stroke-linejoin: miter"/>
     <use xlink:href="#m506a972995" x="250.729412" y="263.579762" style="stroke: #000000; stroke-linejoin: miter"/>
     <use xlink:href="#m506a972995" x="257.505882" y="284.964105" style="stroke: #000000; stroke-linejoin: miter"/>
     <use xlink:href="#m506a972995" x="264.282353" y="267.511732" style="stroke: #000000; stroke-linejoin: miter"/>
     <use xlink:href="#m506a972995" x="271.058824" y="225.033852" style="stroke: #000000; stroke-linejoin: miter"/>
     <use xlink:href="#m506a972995" x="277.835294" y="182.095631" style="stroke: #000000; stroke-linejoin: miter"/>
     <use xlink:href="#m506a972995" x="284.611765" y="160.509894" style="stroke: #000000; stroke-linejoin: miter"/>
     <use xlink:href="#m506a972995" x="291.388235" y="168.007881" style="stroke: #000000; stroke-linejoin: miter"/>
     <use xlink:href="#m506a972995" x="298.164706" y="196.030216" style="stroke: #000000; stroke-linejoin: miter"/>
     <use xlink:href="#m506a972995" x="304.941176" y="227.531874" style="stroke: #000000; stroke-linejoin: miter"/>
     <use xlink:href="#m506a972995" x="311.717647" y="249.335711" style="stroke: #000000; stroke-linejoin: miter"/>
     <use xlink:href="#m506a972995" x="318.494118" y="261.545993" style="stroke: #000000; stroke-linejoin: miter"/>
     <use xlink:href="#m506a972995" x="325.270588" y="277.003658" style="stroke: #000000; stroke-linejoin: miter"/>
     <use xlink:href="#m506a972995" x="332.047059" y="284.8963" style="stroke: #000000; stroke-linejoin: miter"/>
     <use xlink:href="#m506a972995" x="338.823529" y="250.027653" style="stroke: #000000; stroke-linejoin: miter"/>
     <use xlink:href="#m506a972995" x="345.6" y="203.862546" style="stroke: #000000; stroke-linejoin: miter"/>
     <use xlink:href="#m506a972995" x="352.376471" y="174.899055" style="stroke: #000000; stroke-linejoin: miter"/>
     <use xlink:href="#m506a972995" x="359.152941" y="167.762458" style="stroke: #000000; stroke-linejoin: miter"/>
     <use xlink:href="#m506a972995" x="365.929412" y="174.317795" style="stroke: #000000; stroke-linejoin: miter"/>
     <use xlink:href="#m506a972995" x="372.705882" y="183.666726" style="stroke: #000000; stroke-linejoin: miter"/>
     <use xlink:href="#m506a972995" x="379.482353" y="189.050942" style="stroke: #000000; stroke-linejoin: miter"/>
     <use xlink:href="#m506a972995" x="386.258824" y="189.615099" style="stroke: #000000; stroke-linejoin: miter"/>
     <use xlink:href="#m506a972995" x="393.035294" y="187.939586" style="stroke: #000000; stroke-linejoin: miter"/>
     <use xlink:href="#m506a972995" x="399.811765" y="186.5285" style="stroke: #000000; stroke-linejoin: miter"/>
     <use xlink:href="#m506a972995" x="406.588235" y="186.03666" style="stroke: #000000; stroke-linejoin: miter"/>
     <use xlink:href="#m506a972995" x="413.364706" y="185.80147" style="stroke: #000000; stroke-linejoin: miter"/>
     <use xlink:href="#m506a972995" x="420.141176" y="185.293926" style="stroke: #000000; stroke-linejoin: miter"/>
     <use xlink:href="#m506a972995" x="426.917647" y="184.829309" style="stroke: #000000; stroke-linejoin: miter"/>
     <use xlink:href="#m506a972995" x="433.694118" y="185.059746" style="stroke: #000000; stroke-linejoin: miter"/>
     <use xlink:href="#m506a972995" x="440.470588" y="186.062662" style="stroke: #000000; stroke-linejoin: miter"/>
     <use xlink:href="#m506a972995" x="447.247059" y="187.092084" style="stroke: #000000; stroke-linejoin: miter"/>
     <use xlink:href="#m506a972995" x="454.023529" y="187.246389" style="stroke: #000000; stroke-linejoin: miter"/>
     <use xlink:href="#m506a972995" x="460.8" y="186.349216" style="stroke: #000000; stroke-linejoin: miter"/>
    </g>
   </g>
   <g id="line2d_10">
    <path d="M 0 185.965714 
L 460.8 185.965714 
" clip-path="url(#p17021b23b9)" style="fill: none; stroke: #d62728; stroke-width: 1.5; stroke-linecap: square"/>
   </g>
   <g id="patch_3">
    <path d="M 0 317.622857 
L 0 27.977143 
" style="fill: none; stroke: #000000; stroke-width: 0.8; stroke-linejoin: miter; stroke-linecap: square"/>
   </g>
   <g id="patch_4">
    <path d="M 460.8 317.622857 
L 460.8 27.977143 
" style="fill: none; stroke: #000000; stroke-width: 0.8; stroke-linejoin: miter; stroke-linecap: square"/>
   </g>
   <g id="patch_5">
    <path d="M 0 317.622857 
L 460.8 317.622857 
" style="fill: none; stroke: #000000; stroke-width: 0.8; stroke-linejoin: miter; stroke-linecap: square"/>
   </g>
   <g id="patch_6">
    <path d="M 0 27.977143 
L 460.8 27.977143 
" style="fill: none; stroke: #000000; stroke-width: 0.8; stroke-linejoin: miter; stroke-linecap: square"/>
   </g>
  </g>
 </g>
 <defs>
  <clipPath id="p17021b23b9">
   <rect x="0" y="27.977143" width="460.8" height="289.645714"/>
  </clipPath>
 </defs>
</svg>
